G04 DipTrace 2.4.0.2*
%INBottomSilk.gbr*%
%MOIN*%
%ADD10C,0.005*%
%ADD12C,0.003*%
%FSLAX44Y44*%
G04*
G70*
G90*
G75*
G01*
%LNBotSilk*%
%LPD*%
X26687Y39063D2*
D10*
G02X26187Y39063I-250J7D01*
G01*
X28974D2*
X26687D1*
X26187D2*
X23900D1*
X28974Y22843D2*
X23900D1*
X28974Y39063D2*
Y22843D1*
X23900Y39063D2*
Y22843D1*
X26687Y21063D2*
G02X26187Y21063I-250J7D01*
G01*
X28974D2*
X26687D1*
X26187D2*
X23900D1*
X28974Y4843D2*
X23900D1*
X28974Y21063D2*
Y4843D1*
X23900Y21063D2*
Y4843D1*
X38187Y39047D2*
G02X37686Y39047I-250J7D01*
G01*
X40474D2*
X38187D1*
X37686D2*
X35399D1*
X40474Y22827D2*
X35399D1*
X40474Y39047D2*
Y22827D1*
X35399Y39047D2*
Y22827D1*
X38187Y21047D2*
G02X37686Y21047I-250J7D01*
G01*
X40474D2*
X38187D1*
X37686D2*
X35399D1*
X40474Y4827D2*
X35399D1*
X40474Y21047D2*
Y4827D1*
X35399Y21047D2*
Y4827D1*
X28447Y39603D2*
D12*
X28477D1*
X28727D2*
X28757D1*
X28207Y39593D2*
X28257D1*
X28447D2*
X28477D1*
X28727D2*
X28757D1*
X28186Y39583D2*
X28275D1*
X28447D2*
X28477D1*
X28727D2*
X28757D1*
X28168Y39573D2*
X28291D1*
X28447D2*
X28477D1*
X28727D2*
X28757D1*
X28153Y39563D2*
X28179D1*
X28265D2*
X28304D1*
X28447D2*
X28477D1*
X28727D2*
X28757D1*
X28141Y39553D2*
X28164D1*
X28281D2*
X28315D1*
X28447D2*
X28477D1*
X28727D2*
X28757D1*
X28132Y39543D2*
X28152D1*
X28294D2*
X28325D1*
X28447D2*
X28477D1*
X28727D2*
X28757D1*
X28126Y39533D2*
X28144D1*
X28304D2*
X28331D1*
X28447D2*
X28477D1*
X28727D2*
X28757D1*
X28120Y39523D2*
X28139D1*
X28312D2*
X28336D1*
X28447D2*
X28477D1*
X28727D2*
X28757D1*
X28115Y39513D2*
X28134D1*
X28318D2*
X28340D1*
X28447D2*
X28477D1*
X28727D2*
X28757D1*
X28111Y39503D2*
X28131D1*
X28322D2*
X28343D1*
X28447D2*
X28477D1*
X28727D2*
X28757D1*
X28109Y39493D2*
X28129D1*
X28325D2*
X28345D1*
X28447D2*
X28477D1*
X28727D2*
X28757D1*
X28107Y39483D2*
X28128D1*
X28326D2*
X28346D1*
X28447D2*
X28477D1*
X28727D2*
X28757D1*
X28106Y39473D2*
X28127D1*
X28327D2*
X28347D1*
X28447D2*
X28477D1*
X28727D2*
X28757D1*
X28103Y39463D2*
X28127D1*
X28326D2*
X28347D1*
X28447D2*
X28477D1*
X28727D2*
X28757D1*
X28100Y39453D2*
X28127D1*
X28325D2*
X28347D1*
X28447D2*
X28477D1*
X28727D2*
X28757D1*
X28099Y39443D2*
X28129D1*
X28323D2*
X28345D1*
X28447D2*
X28477D1*
X28727D2*
X28757D1*
X28098Y39433D2*
X28131D1*
X28319D2*
X28343D1*
X28447D2*
X28477D1*
X28727D2*
X28757D1*
X28097Y39423D2*
X28136D1*
X28314D2*
X28338D1*
X28447D2*
X28477D1*
X28727D2*
X28757D1*
X28097Y39413D2*
X28141D1*
X28307D2*
X28332D1*
X28447D2*
X28477D1*
X28727D2*
X28757D1*
X28097Y39403D2*
X28147D1*
X28297D2*
X28325D1*
X28447D2*
X28477D1*
X28727D2*
X28757D1*
X28097Y39393D2*
X28132D1*
X28157D2*
D3*
X28283D2*
X28316D1*
X28447D2*
X28477D1*
X28727D2*
X28757D1*
X28097Y39383D2*
X28124D1*
X28169D2*
X28177D1*
X28267D2*
X28306D1*
X28447D2*
X28477D1*
X28727D2*
X28757D1*
X28099Y39373D2*
X28124D1*
X28183D2*
X28293D1*
X28447D2*
X28477D1*
X28727D2*
X28757D1*
X28101Y39363D2*
X28125D1*
X28200D2*
X28276D1*
X28449D2*
X28477D1*
X28727D2*
X28757D1*
X28104Y39353D2*
X28126D1*
X28217D2*
X28257D1*
X28451D2*
X28477D1*
X28727D2*
X28757D1*
X28106Y39343D2*
X28126D1*
X28454D2*
X28477D1*
X28727D2*
X28757D1*
X28108Y39333D2*
X28127D1*
X28455D2*
X28479D1*
X28727D2*
X28755D1*
X28111Y39323D2*
X28129D1*
X28456D2*
X28481D1*
X28727D2*
X28753D1*
X28114Y39313D2*
X28131D1*
X28457D2*
X28484D1*
X28725D2*
X28750D1*
X28117Y39303D2*
X28135D1*
X28459D2*
X28486D1*
X28723D2*
X28748D1*
X28121Y39293D2*
X28140D1*
X28317D2*
X28337D1*
X28461D2*
X28488D1*
X28720D2*
X28746D1*
X28125Y39283D2*
X28145D1*
X28315D2*
X28333D1*
X28466D2*
X28491D1*
X28717D2*
X28743D1*
X28131Y39273D2*
X28152D1*
X28312D2*
X28329D1*
X28471D2*
X28496D1*
X28711D2*
X28738D1*
X28139Y39263D2*
X28161D1*
X28302D2*
X28323D1*
X28477D2*
X28501D1*
X28703D2*
X28733D1*
X28148Y39253D2*
X28189D1*
X28277D2*
X28315D1*
X28484D2*
X28513D1*
X28692D2*
X28725D1*
X28159Y39243D2*
X28233D1*
X28237D2*
X28305D1*
X28493D2*
X28549D1*
X28658D2*
X28716D1*
X28173Y39233D2*
X28293D1*
X28505D2*
X28606D1*
X28604D2*
X28704D1*
X28190Y39223D2*
X28276D1*
X28522D2*
X28689D1*
X28207Y39213D2*
X28257D1*
X28544D2*
X28669D1*
X28567Y39203D2*
X28647D1*
X28862Y21603D2*
X28892D1*
X29142D2*
X29172D1*
X28282Y21593D2*
X28332D1*
X28592D2*
X28602D1*
X28862D2*
X28892D1*
X29142D2*
X29172D1*
X28266Y21583D2*
X28351D1*
X28592D2*
X28612D1*
X28862D2*
X28892D1*
X29142D2*
X29172D1*
X28252Y21573D2*
X28367D1*
X28592D2*
X28622D1*
X28862D2*
X28892D1*
X29142D2*
X29172D1*
X28241Y21563D2*
X28274D1*
X28350D2*
X28380D1*
X28592D2*
X28632D1*
X28862D2*
X28892D1*
X29142D2*
X29172D1*
X28231Y21553D2*
X28259D1*
X28366D2*
X28391D1*
X28592D2*
X28642D1*
X28862D2*
X28892D1*
X29142D2*
X29172D1*
X28223Y21543D2*
X28246D1*
X28378D2*
X28400D1*
X28592D2*
X28652D1*
X28862D2*
X28892D1*
X29142D2*
X29172D1*
X28216Y21533D2*
X28238D1*
X28386D2*
X28407D1*
X28592D2*
X28664D1*
X28862D2*
X28892D1*
X29142D2*
X29172D1*
X28211Y21523D2*
X28231D1*
X28393D2*
X28413D1*
X28592D2*
X28678D1*
X28862D2*
X28892D1*
X29142D2*
X29172D1*
X28206Y21513D2*
X28227D1*
X28397D2*
X28418D1*
X28592D2*
X28622D1*
X28672D2*
X28693D1*
X28862D2*
X28892D1*
X29142D2*
X29172D1*
X28202Y21503D2*
X28224D1*
X28400D2*
X28420D1*
X28592D2*
X28622D1*
X28687D2*
X28708D1*
X28862D2*
X28892D1*
X29142D2*
X29172D1*
X28199Y21493D2*
X28221D1*
X28402D2*
X28423D1*
X28592D2*
X28622D1*
X28702D2*
X28722D1*
X28862D2*
X28892D1*
X29142D2*
X29172D1*
X28196Y21483D2*
X28218D1*
X28403D2*
X28426D1*
X28592D2*
X28622D1*
X28862D2*
X28892D1*
X29142D2*
X29172D1*
X28194Y21473D2*
X28216D1*
X28406D2*
X28429D1*
X28592D2*
X28622D1*
X28862D2*
X28892D1*
X29142D2*
X29172D1*
X28193Y21463D2*
X28214D1*
X28409D2*
X28430D1*
X28592D2*
X28622D1*
X28862D2*
X28892D1*
X29142D2*
X29172D1*
X28192Y21453D2*
X28213D1*
X28410D2*
X28431D1*
X28592D2*
X28622D1*
X28862D2*
X28892D1*
X29142D2*
X29172D1*
X28192Y21443D2*
X28212D1*
X28411D2*
X28432D1*
X28592D2*
X28622D1*
X28862D2*
X28892D1*
X29142D2*
X29172D1*
X28192Y21433D2*
X28212D1*
X28412D2*
X28432D1*
X28592D2*
X28622D1*
X28862D2*
X28892D1*
X29142D2*
X29172D1*
X28192Y21423D2*
X28212D1*
X28412D2*
X28432D1*
X28592D2*
X28622D1*
X28862D2*
X28892D1*
X29142D2*
X29172D1*
X28192Y21413D2*
X28212D1*
X28412D2*
X28432D1*
X28592D2*
X28622D1*
X28862D2*
X28892D1*
X29142D2*
X29172D1*
X28192Y21403D2*
X28212D1*
X28412D2*
X28432D1*
X28592D2*
X28622D1*
X28862D2*
X28892D1*
X29142D2*
X29172D1*
X28192Y21393D2*
X28212D1*
X28412D2*
X28432D1*
X28592D2*
X28622D1*
X28862D2*
X28892D1*
X29142D2*
X29172D1*
X28192Y21383D2*
X28212D1*
X28412D2*
X28432D1*
X28592D2*
X28622D1*
X28862D2*
X28892D1*
X29142D2*
X29172D1*
X28192Y21373D2*
X28212D1*
X28412D2*
X28432D1*
X28592D2*
X28622D1*
X28862D2*
X28892D1*
X29142D2*
X29172D1*
X28192Y21363D2*
X28212D1*
X28412D2*
X28432D1*
X28592D2*
X28622D1*
X28864D2*
X28892D1*
X29142D2*
X29172D1*
X28192Y21353D2*
X28212D1*
X28412D2*
X28432D1*
X28592D2*
X28622D1*
X28866D2*
X28892D1*
X29142D2*
X29172D1*
X28192Y21343D2*
X28214D1*
X28410D2*
X28430D1*
X28592D2*
X28622D1*
X28869D2*
X28892D1*
X29142D2*
X29172D1*
X28194Y21333D2*
X28216D1*
X28408D2*
X28428D1*
X28592D2*
X28622D1*
X28870D2*
X28894D1*
X29142D2*
X29170D1*
X28196Y21323D2*
X28219D1*
X28405D2*
X28425D1*
X28592D2*
X28622D1*
X28871D2*
X28896D1*
X29142D2*
X29168D1*
X28199Y21313D2*
X28221D1*
X28403D2*
X28423D1*
X28592D2*
X28622D1*
X28872D2*
X28899D1*
X29140D2*
X29165D1*
X28202Y21303D2*
X28223D1*
X28401D2*
X28421D1*
X28592D2*
X28622D1*
X28874D2*
X28901D1*
X29138D2*
X29163D1*
X28206Y21293D2*
X28226D1*
X28398D2*
X28418D1*
X28592D2*
X28622D1*
X28876D2*
X28903D1*
X29135D2*
X29161D1*
X28210Y21283D2*
X28231D1*
X28393D2*
X28413D1*
X28592D2*
X28622D1*
X28881D2*
X28906D1*
X29132D2*
X29158D1*
X28216Y21273D2*
X28237D1*
X28387D2*
X28408D1*
X28592D2*
X28622D1*
X28886D2*
X28911D1*
X29126D2*
X29153D1*
X28223Y21263D2*
X28246D1*
X28378D2*
X28401D1*
X28592D2*
X28622D1*
X28892D2*
X28916D1*
X29118D2*
X29148D1*
X28231Y21253D2*
X28272D1*
X28352D2*
X28393D1*
X28592D2*
X28622D1*
X28899D2*
X28928D1*
X29107D2*
X29140D1*
X28240Y21243D2*
X28312D1*
X28383D1*
X28592D2*
X28622D1*
X28908D2*
X28964D1*
X29073D2*
X29131D1*
X28252Y21233D2*
X28370D1*
X28592D2*
X28622D1*
X28920D2*
X29021D1*
X29019D2*
X29119D1*
X28267Y21223D2*
X28352D1*
X28592D2*
X28622D1*
X28937D2*
X29104D1*
X28282Y21213D2*
X28332D1*
X28592D2*
X28622D1*
X28959D2*
X29084D1*
X28982Y21203D2*
X29062D1*
X40361Y39587D2*
X40391D1*
X40641D2*
X40671D1*
X39791Y39577D2*
X39841D1*
X40091D2*
X40101D1*
X40361D2*
X40391D1*
X40641D2*
X40671D1*
X39771Y39567D2*
X39859D1*
X40091D2*
X40111D1*
X40361D2*
X40391D1*
X40641D2*
X40671D1*
X39753Y39557D2*
X39875D1*
X40091D2*
X40121D1*
X40361D2*
X40391D1*
X40641D2*
X40671D1*
X39739Y39547D2*
X39773D1*
X39863D2*
X39888D1*
X40091D2*
X40131D1*
X40361D2*
X40391D1*
X40641D2*
X40671D1*
X39728Y39537D2*
X39758D1*
X39874D2*
X39899D1*
X40091D2*
X40141D1*
X40361D2*
X40391D1*
X40641D2*
X40671D1*
X39721Y39527D2*
X39746D1*
X39884D2*
X39906D1*
X40091D2*
X40152D1*
X40361D2*
X40391D1*
X40641D2*
X40671D1*
X39716Y39517D2*
X39737D1*
X39891D2*
X39913D1*
X40091D2*
X40163D1*
X40361D2*
X40391D1*
X40641D2*
X40671D1*
X39714Y39507D2*
X39734D1*
X39897D2*
X39917D1*
X40091D2*
X40177D1*
X40361D2*
X40391D1*
X40641D2*
X40671D1*
X39712Y39497D2*
X39733D1*
X39901D2*
X39921D1*
X40091D2*
X40121D1*
X40171D2*
X40192D1*
X40361D2*
X40391D1*
X40641D2*
X40671D1*
X39712Y39487D2*
X39732D1*
X40091D2*
X40121D1*
X40186D2*
X40207D1*
X40361D2*
X40391D1*
X40641D2*
X40671D1*
X39714Y39477D2*
X39732D1*
X40091D2*
X40121D1*
X40201D2*
X40221D1*
X40361D2*
X40391D1*
X40641D2*
X40671D1*
X39717Y39467D2*
X39734D1*
X40091D2*
X40121D1*
X40361D2*
X40391D1*
X40641D2*
X40671D1*
X39724Y39457D2*
X39738D1*
X40091D2*
X40121D1*
X40361D2*
X40391D1*
X40641D2*
X40671D1*
X39734Y39447D2*
X39744D1*
X40091D2*
X40121D1*
X40361D2*
X40391D1*
X40641D2*
X40671D1*
X39744Y39437D2*
X39751D1*
X40091D2*
X40121D1*
X40361D2*
X40391D1*
X40641D2*
X40671D1*
X39752Y39427D2*
X39781D1*
X40091D2*
X40121D1*
X40361D2*
X40391D1*
X40641D2*
X40671D1*
X39758Y39417D2*
X39807D1*
X40091D2*
X40121D1*
X40361D2*
X40391D1*
X40641D2*
X40671D1*
X39749Y39407D2*
X39831D1*
X40091D2*
X40121D1*
X40361D2*
X40391D1*
X40641D2*
X40671D1*
X39738Y39397D2*
X39795D1*
X40091D2*
X40121D1*
X40361D2*
X40391D1*
X40641D2*
X40671D1*
X39726Y39387D2*
X39765D1*
X40091D2*
X40121D1*
X40361D2*
X40391D1*
X40641D2*
X40671D1*
X39715Y39377D2*
X39744D1*
X40091D2*
X40121D1*
X40361D2*
X40391D1*
X40641D2*
X40671D1*
X39707Y39367D2*
X39729D1*
X40091D2*
X40121D1*
X40361D2*
X40391D1*
X40641D2*
X40671D1*
X39700Y39357D2*
X39722D1*
X40091D2*
X40121D1*
X40362D2*
X40391D1*
X40641D2*
X40671D1*
X39696Y39347D2*
X39717D1*
X40091D2*
X40121D1*
X40363D2*
X40391D1*
X40641D2*
X40671D1*
X39692Y39337D2*
X39714D1*
X40091D2*
X40121D1*
X40365D2*
X40391D1*
X40641D2*
X40671D1*
X39689Y39327D2*
X39712D1*
X40091D2*
X40121D1*
X40368D2*
X40392D1*
X40641D2*
X40671D1*
X39686Y39317D2*
X39712D1*
X40091D2*
X40121D1*
X40370D2*
X40393D1*
X40641D2*
X40670D1*
X39687Y39307D2*
X39712D1*
X40091D2*
X40121D1*
X40371D2*
X40395D1*
X40641D2*
X40667D1*
X39689Y39297D2*
X39712D1*
X40091D2*
X40121D1*
X40372D2*
X40398D1*
X40640D2*
X40665D1*
X39692Y39287D2*
X39713D1*
X39901D2*
X39931D1*
X40091D2*
X40121D1*
X40373D2*
X40400D1*
X40637D2*
X40663D1*
X39695Y39277D2*
X39716D1*
X39900D2*
X39926D1*
X40091D2*
X40121D1*
X40376D2*
X40402D1*
X40634D2*
X40660D1*
X39700Y39267D2*
X39720D1*
X39897D2*
X39922D1*
X40091D2*
X40121D1*
X40380D2*
X40406D1*
X40631D2*
X40657D1*
X39706Y39257D2*
X39727D1*
X39892D2*
X39916D1*
X40091D2*
X40121D1*
X40386D2*
X40410D1*
X40626D2*
X40653D1*
X39713Y39247D2*
X39736D1*
X39885D2*
X39909D1*
X40091D2*
X40121D1*
X40392D2*
X40416D1*
X40618D2*
X40647D1*
X39723Y39237D2*
X39763D1*
X39858D2*
X39900D1*
X40091D2*
X40121D1*
X40399D2*
X40427D1*
X40607D2*
X40639D1*
X39734Y39227D2*
X39807D1*
X39815D2*
X39889D1*
X40091D2*
X40121D1*
X40407D2*
X40463D1*
X40572D2*
X40630D1*
X39748Y39217D2*
X39875D1*
X40091D2*
X40121D1*
X40420D2*
X40520D1*
X40518D2*
X40619D1*
X39764Y39207D2*
X39859D1*
X40091D2*
X40121D1*
X40437D2*
X40603D1*
X39781Y39197D2*
X39841D1*
X40091D2*
X40121D1*
X40458D2*
X40583D1*
X40481Y39187D2*
X40561D1*
X37361Y21587D2*
X37391D1*
X37641D2*
X37671D1*
X36741Y21577D2*
X36761D1*
X37091D2*
X37101D1*
X37361D2*
X37391D1*
X37641D2*
X37671D1*
X36741Y21567D2*
X36768D1*
X37091D2*
X37111D1*
X37361D2*
X37391D1*
X37641D2*
X37671D1*
X36741Y21557D2*
X36775D1*
X37091D2*
X37121D1*
X37361D2*
X37391D1*
X37641D2*
X37671D1*
X36741Y21547D2*
X36783D1*
X37091D2*
X37131D1*
X37361D2*
X37391D1*
X37641D2*
X37671D1*
X36741Y21537D2*
X36790D1*
X37091D2*
X37141D1*
X37361D2*
X37391D1*
X37641D2*
X37671D1*
X36741Y21527D2*
X36798D1*
X37091D2*
X37152D1*
X37361D2*
X37391D1*
X37641D2*
X37671D1*
X36741Y21517D2*
X36805D1*
X37091D2*
X37163D1*
X37361D2*
X37391D1*
X37641D2*
X37671D1*
X36741Y21507D2*
X36813D1*
X37091D2*
X37177D1*
X37361D2*
X37391D1*
X37641D2*
X37671D1*
X36741Y21497D2*
X36771D1*
X36811D2*
X36822D1*
X37091D2*
X37121D1*
X37171D2*
X37192D1*
X37361D2*
X37391D1*
X37641D2*
X37671D1*
X36741Y21487D2*
X36771D1*
X36821D2*
X36831D1*
X37091D2*
X37121D1*
X37186D2*
X37207D1*
X37361D2*
X37391D1*
X37641D2*
X37671D1*
X36741Y21477D2*
X36771D1*
X37091D2*
X37121D1*
X37201D2*
X37221D1*
X37361D2*
X37391D1*
X37641D2*
X37671D1*
X36741Y21467D2*
X36771D1*
X36831D2*
X36841D1*
X37091D2*
X37121D1*
X37361D2*
X37391D1*
X37641D2*
X37671D1*
X36741Y21457D2*
X36771D1*
X36841D2*
X36851D1*
X37091D2*
X37121D1*
X37361D2*
X37391D1*
X37641D2*
X37671D1*
X36741Y21447D2*
X36771D1*
X36851D2*
X36861D1*
X37091D2*
X37121D1*
X37361D2*
X37391D1*
X37641D2*
X37671D1*
X36741Y21437D2*
X36771D1*
X37091D2*
X37121D1*
X37361D2*
X37391D1*
X37641D2*
X37671D1*
X36741Y21427D2*
X36771D1*
X36861D2*
X36871D1*
X37091D2*
X37121D1*
X37361D2*
X37391D1*
X37641D2*
X37671D1*
X36741Y21417D2*
X36771D1*
X36871D2*
X36881D1*
X37091D2*
X37121D1*
X37361D2*
X37391D1*
X37641D2*
X37671D1*
X36741Y21407D2*
X36771D1*
X36881D2*
X36891D1*
X37091D2*
X37121D1*
X37361D2*
X37391D1*
X37641D2*
X37671D1*
X36741Y21397D2*
X36771D1*
X37091D2*
X37121D1*
X37361D2*
X37391D1*
X37641D2*
X37671D1*
X36741Y21387D2*
X36771D1*
X36891D2*
X36901D1*
X37091D2*
X37121D1*
X37361D2*
X37391D1*
X37641D2*
X37671D1*
X36741Y21377D2*
X36771D1*
X36901D2*
X36911D1*
X37091D2*
X37121D1*
X37361D2*
X37391D1*
X37641D2*
X37671D1*
X36741Y21367D2*
X36771D1*
X36911D2*
X36921D1*
X37091D2*
X37121D1*
X37361D2*
X37391D1*
X37641D2*
X37671D1*
X36741Y21357D2*
X36771D1*
X37091D2*
X37121D1*
X37362D2*
X37391D1*
X37641D2*
X37671D1*
X36741Y21347D2*
X36771D1*
X36921D2*
X36931D1*
X37091D2*
X37121D1*
X37363D2*
X37391D1*
X37641D2*
X37671D1*
X36741Y21337D2*
X36771D1*
X36921D2*
X36939D1*
X37091D2*
X37121D1*
X37365D2*
X37391D1*
X37641D2*
X37671D1*
X36741Y21327D2*
X36771D1*
X36921D2*
X36945D1*
X37091D2*
X37121D1*
X37368D2*
X37392D1*
X37641D2*
X37671D1*
X36681Y21317D2*
X36949D1*
X37091D2*
X37121D1*
X37370D2*
X37393D1*
X37641D2*
X37670D1*
X36681Y21307D2*
X36950D1*
X37091D2*
X37121D1*
X37371D2*
X37395D1*
X37641D2*
X37667D1*
X36681Y21297D2*
X36951D1*
X37091D2*
X37121D1*
X37372D2*
X37398D1*
X37640D2*
X37665D1*
X36741Y21287D2*
X36771D1*
X37091D2*
X37121D1*
X37373D2*
X37400D1*
X37637D2*
X37663D1*
X36741Y21277D2*
X36771D1*
X37091D2*
X37121D1*
X37376D2*
X37402D1*
X37634D2*
X37660D1*
X36741Y21267D2*
X36771D1*
X37091D2*
X37121D1*
X37380D2*
X37406D1*
X37631D2*
X37657D1*
X36741Y21257D2*
X36771D1*
X37091D2*
X37121D1*
X37386D2*
X37410D1*
X37626D2*
X37653D1*
X36741Y21247D2*
X36771D1*
X37091D2*
X37121D1*
X37392D2*
X37416D1*
X37618D2*
X37647D1*
X36741Y21237D2*
X36771D1*
X37091D2*
X37121D1*
X37399D2*
X37427D1*
X37607D2*
X37639D1*
X36741Y21227D2*
X36771D1*
X37091D2*
X37121D1*
X37407D2*
X37463D1*
X37572D2*
X37630D1*
X36741Y21217D2*
X36771D1*
X37091D2*
X37121D1*
X37420D2*
X37520D1*
X37518D2*
X37619D1*
X36741Y21207D2*
X36771D1*
X37091D2*
X37121D1*
X37437D2*
X37603D1*
X36741Y21197D2*
X36771D1*
X37091D2*
X37121D1*
X37458D2*
X37583D1*
X37481Y21187D2*
X37561D1*
X28447Y39603D2*
Y39593D1*
Y39583D1*
Y39573D1*
Y39563D1*
Y39553D1*
Y39543D1*
Y39533D1*
Y39523D1*
Y39513D1*
Y39503D1*
Y39493D1*
Y39483D1*
Y39473D1*
Y39463D1*
Y39453D1*
Y39443D1*
Y39433D1*
Y39423D1*
Y39413D1*
Y39403D1*
Y39393D1*
Y39383D1*
Y39373D1*
X28449Y39363D1*
X28451Y39353D1*
X28454Y39343D1*
X28455Y39333D1*
X28456Y39323D1*
X28457Y39313D1*
X28459Y39303D1*
X28461Y39293D1*
X28466Y39283D1*
X28471Y39273D1*
X28477Y39263D1*
X28484Y39253D1*
X28493Y39243D1*
X28505Y39233D1*
X28522Y39223D1*
X28544Y39213D1*
X28567Y39203D1*
X28477Y39603D2*
Y39593D1*
Y39583D1*
Y39573D1*
Y39563D1*
Y39553D1*
Y39543D1*
Y39533D1*
Y39523D1*
Y39513D1*
Y39503D1*
Y39493D1*
Y39483D1*
Y39473D1*
Y39463D1*
Y39453D1*
Y39443D1*
Y39433D1*
Y39423D1*
Y39413D1*
Y39403D1*
Y39393D1*
Y39383D1*
Y39373D1*
Y39363D1*
Y39353D1*
Y39343D1*
X28479Y39333D1*
X28481Y39323D1*
X28484Y39313D1*
X28486Y39303D1*
X28488Y39293D1*
X28491Y39283D1*
X28496Y39273D1*
X28501Y39263D1*
X28513Y39253D1*
X28549Y39243D1*
X28606Y39233D1*
X28677Y39223D1*
X28727Y39603D2*
Y39593D1*
Y39583D1*
Y39573D1*
Y39563D1*
Y39553D1*
Y39543D1*
Y39533D1*
Y39523D1*
Y39513D1*
Y39503D1*
Y39493D1*
Y39483D1*
Y39473D1*
Y39463D1*
Y39453D1*
Y39443D1*
Y39433D1*
Y39423D1*
Y39413D1*
Y39403D1*
Y39393D1*
Y39383D1*
Y39373D1*
Y39363D1*
Y39353D1*
Y39343D1*
Y39333D1*
Y39323D1*
X28725Y39313D1*
X28723Y39303D1*
X28720Y39293D1*
X28717Y39283D1*
X28711Y39273D1*
X28703Y39263D1*
X28692Y39253D1*
X28658Y39243D1*
X28604Y39233D1*
X28537Y39223D1*
X28757Y39603D2*
Y39593D1*
Y39583D1*
Y39573D1*
Y39563D1*
Y39553D1*
Y39543D1*
Y39533D1*
Y39523D1*
Y39513D1*
Y39503D1*
Y39493D1*
Y39483D1*
Y39473D1*
Y39463D1*
Y39453D1*
Y39443D1*
Y39433D1*
Y39423D1*
Y39413D1*
Y39403D1*
Y39393D1*
Y39383D1*
Y39373D1*
Y39363D1*
Y39353D1*
Y39343D1*
X28755Y39333D1*
X28753Y39323D1*
X28750Y39313D1*
X28748Y39303D1*
X28746Y39293D1*
X28743Y39283D1*
X28738Y39273D1*
X28733Y39263D1*
X28725Y39253D1*
X28716Y39243D1*
X28704Y39233D1*
X28689Y39223D1*
X28669Y39213D1*
X28647Y39203D1*
X28207Y39593D2*
X28186Y39583D1*
X28168Y39573D1*
X28153Y39563D1*
X28141Y39553D1*
X28132Y39543D1*
X28126Y39533D1*
X28120Y39523D1*
X28115Y39513D1*
X28111Y39503D1*
X28109Y39493D1*
X28107Y39483D1*
X28106Y39473D1*
X28103Y39463D1*
X28100Y39453D1*
X28099Y39443D1*
X28098Y39433D1*
X28097Y39423D1*
Y39413D1*
Y39403D1*
Y39393D1*
Y39383D1*
X28099Y39373D1*
X28101Y39363D1*
X28104Y39353D1*
X28106Y39343D1*
X28108Y39333D1*
X28111Y39323D1*
X28114Y39313D1*
X28117Y39303D1*
X28121Y39293D1*
X28125Y39283D1*
X28131Y39273D1*
X28139Y39263D1*
X28148Y39253D1*
X28159Y39243D1*
X28173Y39233D1*
X28190Y39223D1*
X28207Y39213D1*
X28257Y39593D2*
X28275Y39583D1*
X28291Y39573D1*
X28304Y39563D1*
X28315Y39553D1*
X28325Y39543D1*
X28331Y39533D1*
X28336Y39523D1*
X28340Y39513D1*
X28343Y39503D1*
X28345Y39493D1*
X28346Y39483D1*
X28347Y39473D1*
Y39463D1*
Y39453D1*
X28345Y39443D1*
X28343Y39433D1*
X28338Y39423D1*
X28332Y39413D1*
X28325Y39403D1*
X28316Y39393D1*
X28306Y39383D1*
X28293Y39373D1*
X28276Y39363D1*
X28257Y39353D1*
X28197Y39573D2*
X28179Y39563D1*
X28164Y39553D1*
X28152Y39543D1*
X28144Y39533D1*
X28139Y39523D1*
X28134Y39513D1*
X28131Y39503D1*
X28129Y39493D1*
X28128Y39483D1*
X28127Y39473D1*
Y39463D1*
Y39453D1*
X28129Y39443D1*
X28131Y39433D1*
X28136Y39423D1*
X28141Y39413D1*
X28147Y39403D1*
X28132Y39393D1*
X28124Y39383D1*
Y39373D1*
X28125Y39363D1*
X28126Y39353D1*
Y39343D1*
X28127Y39333D1*
X28129Y39323D1*
X28131Y39313D1*
X28135Y39303D1*
X28140Y39293D1*
X28145Y39283D1*
X28152Y39273D1*
X28161Y39263D1*
X28189Y39253D1*
X28233Y39243D1*
X28287Y39233D1*
X28247Y39573D2*
X28265Y39563D1*
X28281Y39553D1*
X28294Y39543D1*
X28304Y39533D1*
X28312Y39523D1*
X28318Y39513D1*
X28322Y39503D1*
X28325Y39493D1*
X28326Y39483D1*
X28327Y39473D1*
X28326Y39463D1*
X28325Y39453D1*
X28323Y39443D1*
X28319Y39433D1*
X28314Y39423D1*
X28307Y39413D1*
X28297Y39403D1*
X28283Y39393D1*
X28267Y39383D1*
X28157Y39393D2*
X28169Y39383D1*
X28183Y39373D1*
X28200Y39363D1*
X28217Y39353D1*
X28177Y39383D2*
X28187Y39373D1*
X28317Y39293D2*
X28315Y39283D1*
X28312Y39273D1*
X28302Y39263D1*
X28277Y39253D1*
X28237Y39243D1*
X28187Y39233D1*
X28337Y39293D2*
X28333Y39283D1*
X28329Y39273D1*
X28323Y39263D1*
X28315Y39253D1*
X28305Y39243D1*
X28293Y39233D1*
X28276Y39223D1*
X28257Y39213D1*
X28862Y21603D2*
Y21593D1*
Y21583D1*
Y21573D1*
Y21563D1*
Y21553D1*
Y21543D1*
Y21533D1*
Y21523D1*
Y21513D1*
Y21503D1*
Y21493D1*
Y21483D1*
Y21473D1*
Y21463D1*
Y21453D1*
Y21443D1*
Y21433D1*
Y21423D1*
Y21413D1*
Y21403D1*
Y21393D1*
Y21383D1*
Y21373D1*
X28864Y21363D1*
X28866Y21353D1*
X28869Y21343D1*
X28870Y21333D1*
X28871Y21323D1*
X28872Y21313D1*
X28874Y21303D1*
X28876Y21293D1*
X28881Y21283D1*
X28886Y21273D1*
X28892Y21263D1*
X28899Y21253D1*
X28908Y21243D1*
X28920Y21233D1*
X28937Y21223D1*
X28959Y21213D1*
X28982Y21203D1*
X28892Y21603D2*
Y21593D1*
Y21583D1*
Y21573D1*
Y21563D1*
Y21553D1*
Y21543D1*
Y21533D1*
Y21523D1*
Y21513D1*
Y21503D1*
Y21493D1*
Y21483D1*
Y21473D1*
Y21463D1*
Y21453D1*
Y21443D1*
Y21433D1*
Y21423D1*
Y21413D1*
Y21403D1*
Y21393D1*
Y21383D1*
Y21373D1*
Y21363D1*
Y21353D1*
Y21343D1*
X28894Y21333D1*
X28896Y21323D1*
X28899Y21313D1*
X28901Y21303D1*
X28903Y21293D1*
X28906Y21283D1*
X28911Y21273D1*
X28916Y21263D1*
X28928Y21253D1*
X28964Y21243D1*
X29021Y21233D1*
X29092Y21223D1*
X29142Y21603D2*
Y21593D1*
Y21583D1*
Y21573D1*
Y21563D1*
Y21553D1*
Y21543D1*
Y21533D1*
Y21523D1*
Y21513D1*
Y21503D1*
Y21493D1*
Y21483D1*
Y21473D1*
Y21463D1*
Y21453D1*
Y21443D1*
Y21433D1*
Y21423D1*
Y21413D1*
Y21403D1*
Y21393D1*
Y21383D1*
Y21373D1*
Y21363D1*
Y21353D1*
Y21343D1*
Y21333D1*
Y21323D1*
X29140Y21313D1*
X29138Y21303D1*
X29135Y21293D1*
X29132Y21283D1*
X29126Y21273D1*
X29118Y21263D1*
X29107Y21253D1*
X29073Y21243D1*
X29019Y21233D1*
X28952Y21223D1*
X29172Y21603D2*
Y21593D1*
Y21583D1*
Y21573D1*
Y21563D1*
Y21553D1*
Y21543D1*
Y21533D1*
Y21523D1*
Y21513D1*
Y21503D1*
Y21493D1*
Y21483D1*
Y21473D1*
Y21463D1*
Y21453D1*
Y21443D1*
Y21433D1*
Y21423D1*
Y21413D1*
Y21403D1*
Y21393D1*
Y21383D1*
Y21373D1*
Y21363D1*
Y21353D1*
Y21343D1*
X29170Y21333D1*
X29168Y21323D1*
X29165Y21313D1*
X29163Y21303D1*
X29161Y21293D1*
X29158Y21283D1*
X29153Y21273D1*
X29148Y21263D1*
X29140Y21253D1*
X29131Y21243D1*
X29119Y21233D1*
X29104Y21223D1*
X29084Y21213D1*
X29062Y21203D1*
X28282Y21593D2*
X28266Y21583D1*
X28252Y21573D1*
X28241Y21563D1*
X28231Y21553D1*
X28223Y21543D1*
X28216Y21533D1*
X28211Y21523D1*
X28206Y21513D1*
X28202Y21503D1*
X28199Y21493D1*
X28196Y21483D1*
X28194Y21473D1*
X28193Y21463D1*
X28192Y21453D1*
Y21443D1*
Y21433D1*
Y21423D1*
Y21413D1*
Y21403D1*
Y21393D1*
Y21383D1*
Y21373D1*
Y21363D1*
Y21353D1*
Y21343D1*
X28194Y21333D1*
X28196Y21323D1*
X28199Y21313D1*
X28202Y21303D1*
X28206Y21293D1*
X28210Y21283D1*
X28216Y21273D1*
X28223Y21263D1*
X28231Y21253D1*
X28240Y21243D1*
X28252Y21233D1*
X28267Y21223D1*
X28282Y21213D1*
X28332Y21593D2*
X28351Y21583D1*
X28367Y21573D1*
X28380Y21563D1*
X28391Y21553D1*
X28400Y21543D1*
X28407Y21533D1*
X28413Y21523D1*
X28418Y21513D1*
X28420Y21503D1*
X28423Y21493D1*
X28426Y21483D1*
X28429Y21473D1*
X28430Y21463D1*
X28431Y21453D1*
X28432Y21443D1*
Y21433D1*
Y21423D1*
Y21413D1*
Y21403D1*
Y21393D1*
Y21383D1*
Y21373D1*
Y21363D1*
Y21353D1*
X28430Y21343D1*
X28428Y21333D1*
X28425Y21323D1*
X28423Y21313D1*
X28421Y21303D1*
X28418Y21293D1*
X28413Y21283D1*
X28408Y21273D1*
X28401Y21263D1*
X28393Y21253D1*
X28383Y21243D1*
X28370Y21233D1*
X28352Y21223D1*
X28332Y21213D1*
X28592Y21593D2*
Y21583D1*
Y21573D1*
Y21563D1*
Y21553D1*
Y21543D1*
Y21533D1*
Y21523D1*
Y21513D1*
Y21503D1*
Y21493D1*
Y21483D1*
Y21473D1*
Y21463D1*
Y21453D1*
Y21443D1*
Y21433D1*
Y21423D1*
Y21413D1*
Y21403D1*
Y21393D1*
Y21383D1*
Y21373D1*
Y21363D1*
Y21353D1*
Y21343D1*
Y21333D1*
Y21323D1*
Y21313D1*
Y21303D1*
Y21293D1*
Y21283D1*
Y21273D1*
Y21263D1*
Y21253D1*
Y21243D1*
Y21233D1*
Y21223D1*
Y21213D1*
X28602Y21593D2*
X28612Y21583D1*
X28622Y21573D1*
X28632Y21563D1*
X28642Y21553D1*
X28652Y21543D1*
X28664Y21533D1*
X28678Y21523D1*
X28693Y21513D1*
X28708Y21503D1*
X28722Y21493D1*
X28292Y21573D2*
X28274Y21563D1*
X28259Y21553D1*
X28246Y21543D1*
X28238Y21533D1*
X28231Y21523D1*
X28227Y21513D1*
X28224Y21503D1*
X28221Y21493D1*
X28218Y21483D1*
X28216Y21473D1*
X28214Y21463D1*
X28213Y21453D1*
X28212Y21443D1*
Y21433D1*
Y21423D1*
Y21413D1*
Y21403D1*
Y21393D1*
Y21383D1*
Y21373D1*
Y21363D1*
Y21353D1*
X28214Y21343D1*
X28216Y21333D1*
X28219Y21323D1*
X28221Y21313D1*
X28223Y21303D1*
X28226Y21293D1*
X28231Y21283D1*
X28237Y21273D1*
X28246Y21263D1*
X28272Y21253D1*
X28312Y21243D1*
X28362Y21233D1*
X28332Y21573D2*
X28350Y21563D1*
X28366Y21553D1*
X28378Y21543D1*
X28386Y21533D1*
X28393Y21523D1*
X28397Y21513D1*
X28400Y21503D1*
X28402Y21493D1*
X28403Y21483D1*
X28406Y21473D1*
X28409Y21463D1*
X28410Y21453D1*
X28411Y21443D1*
X28412Y21433D1*
Y21423D1*
Y21413D1*
Y21403D1*
Y21393D1*
Y21383D1*
Y21373D1*
Y21363D1*
Y21353D1*
X28410Y21343D1*
X28408Y21333D1*
X28405Y21323D1*
X28403Y21313D1*
X28401Y21303D1*
X28398Y21293D1*
X28393Y21283D1*
X28387Y21273D1*
X28378Y21263D1*
X28352Y21253D1*
X28312Y21243D1*
X28262Y21233D1*
X28622Y21523D2*
Y21513D1*
Y21503D1*
Y21493D1*
Y21483D1*
Y21473D1*
Y21463D1*
Y21453D1*
Y21443D1*
Y21433D1*
Y21423D1*
Y21413D1*
Y21403D1*
Y21393D1*
Y21383D1*
Y21373D1*
Y21363D1*
Y21353D1*
Y21343D1*
Y21333D1*
Y21323D1*
Y21313D1*
Y21303D1*
Y21293D1*
Y21283D1*
Y21273D1*
Y21263D1*
Y21253D1*
Y21243D1*
Y21233D1*
Y21223D1*
Y21213D1*
X28672Y21513D2*
X28687Y21503D1*
X28702Y21493D1*
X40361Y39587D2*
Y39577D1*
Y39567D1*
Y39557D1*
Y39547D1*
Y39537D1*
Y39527D1*
Y39517D1*
Y39507D1*
Y39497D1*
Y39487D1*
Y39477D1*
Y39467D1*
Y39457D1*
Y39447D1*
Y39437D1*
Y39427D1*
Y39417D1*
Y39407D1*
Y39397D1*
Y39387D1*
Y39377D1*
Y39367D1*
X40362Y39357D1*
X40363Y39347D1*
X40365Y39337D1*
X40368Y39327D1*
X40370Y39317D1*
X40371Y39307D1*
X40372Y39297D1*
X40373Y39287D1*
X40376Y39277D1*
X40380Y39267D1*
X40386Y39257D1*
X40392Y39247D1*
X40399Y39237D1*
X40407Y39227D1*
X40420Y39217D1*
X40437Y39207D1*
X40458Y39197D1*
X40481Y39187D1*
X40391Y39587D2*
Y39577D1*
Y39567D1*
Y39557D1*
Y39547D1*
Y39537D1*
Y39527D1*
Y39517D1*
Y39507D1*
Y39497D1*
Y39487D1*
Y39477D1*
Y39467D1*
Y39457D1*
Y39447D1*
Y39437D1*
Y39427D1*
Y39417D1*
Y39407D1*
Y39397D1*
Y39387D1*
Y39377D1*
Y39367D1*
Y39357D1*
Y39347D1*
Y39337D1*
X40392Y39327D1*
X40393Y39317D1*
X40395Y39307D1*
X40398Y39297D1*
X40400Y39287D1*
X40402Y39277D1*
X40406Y39267D1*
X40410Y39257D1*
X40416Y39247D1*
X40427Y39237D1*
X40463Y39227D1*
X40520Y39217D1*
X40591Y39207D1*
X40641Y39587D2*
Y39577D1*
Y39567D1*
Y39557D1*
Y39547D1*
Y39537D1*
Y39527D1*
Y39517D1*
Y39507D1*
Y39497D1*
Y39487D1*
Y39477D1*
Y39467D1*
Y39457D1*
Y39447D1*
Y39437D1*
Y39427D1*
Y39417D1*
Y39407D1*
Y39397D1*
Y39387D1*
Y39377D1*
Y39367D1*
Y39357D1*
Y39347D1*
Y39337D1*
Y39327D1*
Y39317D1*
Y39307D1*
X40640Y39297D1*
X40637Y39287D1*
X40634Y39277D1*
X40631Y39267D1*
X40626Y39257D1*
X40618Y39247D1*
X40607Y39237D1*
X40572Y39227D1*
X40518Y39217D1*
X40451Y39207D1*
X40671Y39587D2*
Y39577D1*
Y39567D1*
Y39557D1*
Y39547D1*
Y39537D1*
Y39527D1*
Y39517D1*
Y39507D1*
Y39497D1*
Y39487D1*
Y39477D1*
Y39467D1*
Y39457D1*
Y39447D1*
Y39437D1*
Y39427D1*
Y39417D1*
Y39407D1*
Y39397D1*
Y39387D1*
Y39377D1*
Y39367D1*
Y39357D1*
Y39347D1*
Y39337D1*
Y39327D1*
X40670Y39317D1*
X40667Y39307D1*
X40665Y39297D1*
X40663Y39287D1*
X40660Y39277D1*
X40657Y39267D1*
X40653Y39257D1*
X40647Y39247D1*
X40639Y39237D1*
X40630Y39227D1*
X40619Y39217D1*
X40603Y39207D1*
X40583Y39197D1*
X40561Y39187D1*
X39791Y39577D2*
X39771Y39567D1*
X39753Y39557D1*
X39739Y39547D1*
X39728Y39537D1*
X39721Y39527D1*
X39716Y39517D1*
X39714Y39507D1*
X39712Y39497D1*
Y39487D1*
X39714Y39477D1*
X39717Y39467D1*
X39724Y39457D1*
X39734Y39447D1*
X39744Y39437D1*
X39752Y39427D1*
X39758Y39417D1*
X39749Y39407D1*
X39738Y39397D1*
X39726Y39387D1*
X39715Y39377D1*
X39707Y39367D1*
X39700Y39357D1*
X39696Y39347D1*
X39692Y39337D1*
X39689Y39327D1*
X39686Y39317D1*
X39687Y39307D1*
X39689Y39297D1*
X39692Y39287D1*
X39695Y39277D1*
X39700Y39267D1*
X39706Y39257D1*
X39713Y39247D1*
X39723Y39237D1*
X39734Y39227D1*
X39748Y39217D1*
X39764Y39207D1*
X39781Y39197D1*
X39841Y39577D2*
X39859Y39567D1*
X39875Y39557D1*
X39888Y39547D1*
X39899Y39537D1*
X39906Y39527D1*
X39913Y39517D1*
X39917Y39507D1*
X39921Y39497D1*
X40091Y39577D2*
Y39567D1*
Y39557D1*
Y39547D1*
Y39537D1*
Y39527D1*
Y39517D1*
Y39507D1*
Y39497D1*
Y39487D1*
Y39477D1*
Y39467D1*
Y39457D1*
Y39447D1*
Y39437D1*
Y39427D1*
Y39417D1*
Y39407D1*
Y39397D1*
Y39387D1*
Y39377D1*
Y39367D1*
Y39357D1*
Y39347D1*
Y39337D1*
Y39327D1*
Y39317D1*
Y39307D1*
Y39297D1*
Y39287D1*
Y39277D1*
Y39267D1*
Y39257D1*
Y39247D1*
Y39237D1*
Y39227D1*
Y39217D1*
Y39207D1*
Y39197D1*
X40101Y39577D2*
X40111Y39567D1*
X40121Y39557D1*
X40131Y39547D1*
X40141Y39537D1*
X40152Y39527D1*
X40163Y39517D1*
X40177Y39507D1*
X40192Y39497D1*
X40207Y39487D1*
X40221Y39477D1*
X39791Y39557D2*
X39773Y39547D1*
X39758Y39537D1*
X39746Y39527D1*
X39737Y39517D1*
X39734Y39507D1*
X39733Y39497D1*
X39732Y39487D1*
Y39477D1*
X39734Y39467D1*
X39738Y39457D1*
X39744Y39447D1*
X39751Y39437D1*
X39851Y39557D2*
X39863Y39547D1*
X39874Y39537D1*
X39884Y39527D1*
X39891Y39517D1*
X39897Y39507D1*
X39901Y39497D1*
X40121Y39507D2*
Y39497D1*
Y39487D1*
Y39477D1*
Y39467D1*
Y39457D1*
Y39447D1*
Y39437D1*
Y39427D1*
Y39417D1*
Y39407D1*
Y39397D1*
Y39387D1*
Y39377D1*
Y39367D1*
Y39357D1*
Y39347D1*
Y39337D1*
Y39327D1*
Y39317D1*
Y39307D1*
Y39297D1*
Y39287D1*
Y39277D1*
Y39267D1*
Y39257D1*
Y39247D1*
Y39237D1*
Y39227D1*
Y39217D1*
Y39207D1*
Y39197D1*
X40171Y39497D2*
X40186Y39487D1*
X40201Y39477D1*
X39781Y39427D2*
X39807Y39417D1*
X39831Y39407D1*
X39795Y39397D1*
X39765Y39387D1*
X39744Y39377D1*
X39729Y39367D1*
X39722Y39357D1*
X39717Y39347D1*
X39714Y39337D1*
X39712Y39327D1*
Y39317D1*
Y39307D1*
Y39297D1*
X39713Y39287D1*
X39716Y39277D1*
X39720Y39267D1*
X39727Y39257D1*
X39736Y39247D1*
X39763Y39237D1*
X39807Y39227D1*
X39861Y39217D1*
X39901Y39287D2*
X39900Y39277D1*
X39897Y39267D1*
X39892Y39257D1*
X39885Y39247D1*
X39858Y39237D1*
X39815Y39227D1*
X39761Y39217D1*
X39931Y39287D2*
X39926Y39277D1*
X39922Y39267D1*
X39916Y39257D1*
X39909Y39247D1*
X39900Y39237D1*
X39889Y39227D1*
X39875Y39217D1*
X39859Y39207D1*
X39841Y39197D1*
X37361Y21587D2*
Y21577D1*
Y21567D1*
Y21557D1*
Y21547D1*
Y21537D1*
Y21527D1*
Y21517D1*
Y21507D1*
Y21497D1*
Y21487D1*
Y21477D1*
Y21467D1*
Y21457D1*
Y21447D1*
Y21437D1*
Y21427D1*
Y21417D1*
Y21407D1*
Y21397D1*
Y21387D1*
Y21377D1*
Y21367D1*
X37362Y21357D1*
X37363Y21347D1*
X37365Y21337D1*
X37368Y21327D1*
X37370Y21317D1*
X37371Y21307D1*
X37372Y21297D1*
X37373Y21287D1*
X37376Y21277D1*
X37380Y21267D1*
X37386Y21257D1*
X37392Y21247D1*
X37399Y21237D1*
X37407Y21227D1*
X37420Y21217D1*
X37437Y21207D1*
X37458Y21197D1*
X37481Y21187D1*
X37391Y21587D2*
Y21577D1*
Y21567D1*
Y21557D1*
Y21547D1*
Y21537D1*
Y21527D1*
Y21517D1*
Y21507D1*
Y21497D1*
Y21487D1*
Y21477D1*
Y21467D1*
Y21457D1*
Y21447D1*
Y21437D1*
Y21427D1*
Y21417D1*
Y21407D1*
Y21397D1*
Y21387D1*
Y21377D1*
Y21367D1*
Y21357D1*
Y21347D1*
Y21337D1*
X37392Y21327D1*
X37393Y21317D1*
X37395Y21307D1*
X37398Y21297D1*
X37400Y21287D1*
X37402Y21277D1*
X37406Y21267D1*
X37410Y21257D1*
X37416Y21247D1*
X37427Y21237D1*
X37463Y21227D1*
X37520Y21217D1*
X37591Y21207D1*
X37641Y21587D2*
Y21577D1*
Y21567D1*
Y21557D1*
Y21547D1*
Y21537D1*
Y21527D1*
Y21517D1*
Y21507D1*
Y21497D1*
Y21487D1*
Y21477D1*
Y21467D1*
Y21457D1*
Y21447D1*
Y21437D1*
Y21427D1*
Y21417D1*
Y21407D1*
Y21397D1*
Y21387D1*
Y21377D1*
Y21367D1*
Y21357D1*
Y21347D1*
Y21337D1*
Y21327D1*
Y21317D1*
Y21307D1*
X37640Y21297D1*
X37637Y21287D1*
X37634Y21277D1*
X37631Y21267D1*
X37626Y21257D1*
X37618Y21247D1*
X37607Y21237D1*
X37572Y21227D1*
X37518Y21217D1*
X37451Y21207D1*
X37671Y21587D2*
Y21577D1*
Y21567D1*
Y21557D1*
Y21547D1*
Y21537D1*
Y21527D1*
Y21517D1*
Y21507D1*
Y21497D1*
Y21487D1*
Y21477D1*
Y21467D1*
Y21457D1*
Y21447D1*
Y21437D1*
Y21427D1*
Y21417D1*
Y21407D1*
Y21397D1*
Y21387D1*
Y21377D1*
Y21367D1*
Y21357D1*
Y21347D1*
Y21337D1*
Y21327D1*
X37670Y21317D1*
X37667Y21307D1*
X37665Y21297D1*
X37663Y21287D1*
X37660Y21277D1*
X37657Y21267D1*
X37653Y21257D1*
X37647Y21247D1*
X37639Y21237D1*
X37630Y21227D1*
X37619Y21217D1*
X37603Y21207D1*
X37583Y21197D1*
X37561Y21187D1*
X36741Y21577D2*
Y21567D1*
Y21557D1*
Y21547D1*
Y21537D1*
Y21527D1*
Y21517D1*
Y21507D1*
Y21497D1*
Y21487D1*
Y21477D1*
Y21467D1*
Y21457D1*
Y21447D1*
Y21437D1*
Y21427D1*
Y21417D1*
Y21407D1*
Y21397D1*
Y21387D1*
Y21377D1*
Y21367D1*
Y21357D1*
Y21347D1*
Y21337D1*
Y21327D1*
Y21317D1*
X36681D1*
Y21307D1*
Y21297D1*
Y21287D1*
X36741D1*
Y21277D1*
Y21267D1*
Y21257D1*
Y21247D1*
Y21237D1*
Y21227D1*
Y21217D1*
Y21207D1*
Y21197D1*
X36761Y21577D2*
X36768Y21567D1*
X36775Y21557D1*
X36783Y21547D1*
X36790Y21537D1*
X36798Y21527D1*
X36805Y21517D1*
X36813Y21507D1*
X36822Y21497D1*
X36831Y21487D1*
X37091Y21577D2*
Y21567D1*
Y21557D1*
Y21547D1*
Y21537D1*
Y21527D1*
Y21517D1*
Y21507D1*
Y21497D1*
Y21487D1*
Y21477D1*
Y21467D1*
Y21457D1*
Y21447D1*
Y21437D1*
Y21427D1*
Y21417D1*
Y21407D1*
Y21397D1*
Y21387D1*
Y21377D1*
Y21367D1*
Y21357D1*
Y21347D1*
Y21337D1*
Y21327D1*
Y21317D1*
Y21307D1*
Y21297D1*
Y21287D1*
Y21277D1*
Y21267D1*
Y21257D1*
Y21247D1*
Y21237D1*
Y21227D1*
Y21217D1*
Y21207D1*
Y21197D1*
X37101Y21577D2*
X37111Y21567D1*
X37121Y21557D1*
X37131Y21547D1*
X37141Y21537D1*
X37152Y21527D1*
X37163Y21517D1*
X37177Y21507D1*
X37192Y21497D1*
X37207Y21487D1*
X37221Y21477D1*
X36771Y21507D2*
Y21497D1*
Y21487D1*
Y21477D1*
Y21467D1*
Y21457D1*
Y21447D1*
Y21437D1*
Y21427D1*
Y21417D1*
Y21407D1*
Y21397D1*
Y21387D1*
Y21377D1*
Y21367D1*
Y21357D1*
Y21347D1*
Y21337D1*
Y21327D1*
Y21317D1*
X36811Y21497D2*
X36821Y21487D1*
X37121Y21507D2*
Y21497D1*
Y21487D1*
Y21477D1*
Y21467D1*
Y21457D1*
Y21447D1*
Y21437D1*
Y21427D1*
Y21417D1*
Y21407D1*
Y21397D1*
Y21387D1*
Y21377D1*
Y21367D1*
Y21357D1*
Y21347D1*
Y21337D1*
Y21327D1*
Y21317D1*
Y21307D1*
Y21297D1*
Y21287D1*
Y21277D1*
Y21267D1*
Y21257D1*
Y21247D1*
Y21237D1*
Y21227D1*
Y21217D1*
Y21207D1*
Y21197D1*
X37171Y21497D2*
X37186Y21487D1*
X37201Y21477D1*
X36831Y21467D2*
X36841Y21457D1*
X36851Y21447D1*
X36841Y21467D2*
X36851Y21457D1*
X36861Y21447D1*
Y21427D2*
X36871Y21417D1*
X36881Y21407D1*
X36871Y21427D2*
X36881Y21417D1*
X36891Y21407D1*
Y21387D2*
X36901Y21377D1*
X36911Y21367D1*
X36901Y21387D2*
X36911Y21377D1*
X36921Y21367D1*
Y21347D2*
Y21337D1*
Y21327D1*
Y21317D1*
X36931Y21347D2*
X36939Y21337D1*
X36945Y21327D1*
X36949Y21317D1*
X36950Y21307D1*
X36951Y21297D1*
X36771D2*
Y21287D1*
Y21277D1*
Y21267D1*
Y21257D1*
Y21247D1*
Y21237D1*
Y21227D1*
Y21217D1*
Y21207D1*
Y21197D1*
M02*
