M48
INCH
T01C0.0191
T02C0.032
T03C0.0354
T04C0.038
T05C0.0394
T06C0.1102
%
T01
X+038936Y+019937
X+038936Y+018937
X+038936Y+017937
X+038936Y+016937
X+038936Y+015937
X+038936Y+014937
X+040186Y+014921
X+038936Y+013421
X+038936Y+012421
X+038936Y+011421
X+038936Y+010421
X+038936Y+009421
X+038936Y+008421
X+038936Y+007421
X+038936Y+006421
X+038936Y+005437
X+038186Y+004421
X+037186Y+004921
X+036186Y+004437
X+034186Y+004421
X+032436Y+004437
X+030686Y+004437
X+028936Y+004437
X+026936Y+004437
X+024936Y+004437
X+022936Y+004437
X+020936Y+004437
X+018936Y+004437
X+016936Y+004437
X+014936Y+004437
X+014186Y+004437
X+013686Y+005187
X+011936Y+005187
X+011686Y+004437
X+010936Y+004437
X+006936Y+004437
X+004436Y+006937
X+004436Y+009187
X+004436Y+011187
X+005186Y+011187
X+004436Y+013437
X+004436Y+015937
X+004436Y+017937
X+004436Y+019937
X+004436Y+021937
X+004436Y+023937
X+004436Y+025687
X+005186Y+026437
X+004436Y+027937
X+004436Y+029937
X+004436Y+031687
X+004436Y+033437
X+004936Y+033937
X+004436Y+034437
X+004436Y+035937
X+004436Y+038187
X+006436Y+040187
X+008936Y+036937
X+007936Y+036187
X+010936Y+036187
X+011686Y+036187
X+011686Y+034687
X+010936Y+034687
X+009186Y+033187
X+009186Y+032187
X+009186Y+030687
X+011436Y+029937
X+012186Y+028187
X+011186Y+025187
X+011186Y+023687
X+011186Y+022187
X+011186Y+020937
X+008936Y+019437
X+009186Y+018687
X+008686Y+017687
X+007936Y+017187
X+007936Y+018437
X+007936Y+019437
X+009186Y+023187
X+009186Y+024187
X+008936Y+025437
X+009186Y+025937
X+015936Y+025687
X+015936Y+024687
X+015936Y+026937
X+018686Y+028937
X+019631Y+030007
X+021686Y+028937
X+021436Y+026937
X+021436Y+025937
X+021436Y+024937
X+022186Y+023687
X+021936Y+022687
X+021436Y+022937
X+022686Y+021437
X+023436Y+021187
X+023436Y+022187
X+024436Y+021937
X+025436Y+021437
X+025436Y+022937
X+029436Y+021937
X+031936Y+021921
X+032686Y+019937
X+032686Y+018937
X+032686Y+016937
X+032686Y+015937
X+032686Y+014937
X+032686Y+013937
X+027186Y+010437
X+024936Y+010437
X+022686Y+011437
X+022686Y+012437
X+019436Y+012187
X+018936Y+011187
X+018686Y+009187
X+018936Y+008187
X+016686Y+009437
X+015936Y+008437
X+013936Y+008437
X+013936Y+010687
X+015436Y+010687
X+016186Y+012437
X+016186Y+014187
X+013686Y+014187
X+013936Y+012187
X+011686Y+013437
X+011186Y+012937
X+010686Y+013437
X+010936Y+011687
X+010936Y+011187
X+009186Y+010687
X+007936Y+009937
X+007936Y+014437
X+009686Y+015437
X+011936Y+016687
X+011686Y+018187
X+017936Y+017437
X+018686Y+018437
X+018436Y+019437
X+018436Y+019937
X+018936Y+021187
X+019186Y+023437
X+019436Y+024437
X+022436Y+026937
X+022436Y+031437
X+022436Y+032437
X+022436Y+033437
X+019686Y+033937
X+018936Y+034687
X+019686Y+035687
X+021436Y+037937
X+022561Y+038437
X+018936Y+040437
X+015686Y+039437
X+015686Y+037937
X+016686Y+035937
X+015686Y+033937
X+018686Y+032687
X+027186Y+028437
X+028936Y+028937
X+032436Y+028937
X+038686Y+029421
X+038686Y+028421
X+038686Y+027421
X+038686Y+026421
X+038686Y+025421
X+038686Y+024421
X+038686Y+022937
X+038686Y+020937
X+040936Y+021937
X+038686Y+030421
X+038686Y+031421
X+038686Y+032421
X+038686Y+033421
X+038686Y+034421
X+038686Y+035421
X+038686Y+036421
X+038686Y+037421
X+038686Y+038437
X+039436Y+040437
X+040936Y+039437
X+031436Y+040437
X+029436Y+040437
X+012936Y+040437
X+019436Y+016687
X+019436Y+015687
X+018936Y+015187
X+019436Y+014437
X+019436Y+013437
X+021686Y+007937
X+022686Y+008437
X+024936Y+017437
X+040186Y+004437
T02
X+007437Y+040195
X+008437Y+040195
X+009437Y+040195
X+009437Y+039195
X+008437Y+039195
X+007437Y+039195
T03
X+014687Y+039453
X+014687Y+038453
X+014687Y+037453
X+014687Y+036453
X+014687Y+035453
X+014687Y+034453
X+014687Y+033453
X+014687Y+032453
X+014687Y+031453
X+014687Y+030453
X+012929Y+030703
X+012929Y+029703
X+012929Y+028703
X+014687Y+027453
X+014687Y+026453
X+014687Y+025453
X+014687Y+024453
X+014687Y+023453
X+014687Y+022453
X+014687Y+021453
X+014687Y+020453
X+014687Y+019453
X+014687Y+018453
X+012929Y+018703
X+012929Y+017703
X+012929Y+016703
X+014687Y+015203
X+014687Y+014203
X+014687Y+013203
X+014687Y+012203
X+014687Y+011203
X+014687Y+010203
X+014687Y+009203
X+014687Y+008203
X+012929Y+008703
X+012929Y+007703
X+012929Y+006703
X+012929Y+005703
X+012929Y+004703
X+009937Y+004703
X+009937Y+005703
X+009937Y+006703
X+009937Y+007703
X+009937Y+008703
X+009937Y+009703
X+009937Y+010703
X+009937Y+011703
X+009937Y+012703
X+009937Y+013703
X+012929Y+013703
X+012929Y+012703
X+012929Y+011703
X+012929Y+010703
X+012929Y+009703
X+017679Y+009203
X+017679Y+008203
X+017679Y+010203
X+017679Y+011203
X+017679Y+012203
X+017679Y+013203
X+017679Y+014203
X+017679Y+015203
X+020437Y+015453
X+020437Y+014453
X+020437Y+013453
X+020437Y+012453
X+020437Y+011453
X+020437Y+010453
X+020437Y+009453
X+020437Y+008453
X+020437Y+007453
X+020437Y+006453
X+020437Y+005453
X+023437Y+005453
X+023437Y+006453
X+023437Y+007453
X+023437Y+008453
X+023437Y+009453
X+023437Y+010453
X+023437Y+011453
X+023437Y+012453
X+023437Y+013453
X+023437Y+014453
X+023437Y+015453
X+023437Y+016453
X+023437Y+017453
X+023437Y+018453
X+023437Y+019453
X+023437Y+020453
X+020437Y+020453
X+020437Y+019453
X+020437Y+018453
X+020437Y+017453
X+020437Y+016453
X+017679Y+018453
X+017679Y+019453
X+017679Y+020453
X+017679Y+021453
X+017679Y+022453
X+017679Y+023453
X+017679Y+024453
X+017679Y+025453
X+017679Y+026453
X+017679Y+027453
X+020437Y+027453
X+020437Y+026453
X+020437Y+025453
X+020437Y+024453
X+020437Y+023453
X+023437Y+023453
X+023437Y+024453
X+023437Y+025453
X+023437Y+026453
X+023437Y+027453
X+023437Y+028453
X+023437Y+029453
X+023437Y+030453
X+023437Y+031453
X+023437Y+032453
X+023437Y+033453
X+023437Y+034453
X+023437Y+035453
X+023437Y+036453
X+023437Y+037453
X+023437Y+038453
X+020437Y+038453
X+020437Y+037453
X+020437Y+036453
X+020437Y+035453
X+020437Y+034453
X+020437Y+033453
X+020437Y+032453
X+020437Y+031453
X+020437Y+030453
X+020437Y+029453
X+020437Y+028453
X+017679Y+030453
X+017679Y+031453
X+017679Y+032453
X+017679Y+033453
X+017679Y+034453
X+017679Y+035453
X+017679Y+036453
X+017679Y+037453
X+017679Y+038453
X+017679Y+039453
X+012929Y+037703
X+012929Y+036703
X+012929Y+035703
X+012929Y+034703
X+012929Y+033703
X+012929Y+032703
X+012929Y+031703
X+009937Y+031703
X+009937Y+032703
X+009937Y+033703
X+009937Y+034703
X+009937Y+035703
X+009937Y+036703
X+009937Y+037703
X+009937Y+030703
X+009937Y+029703
X+009937Y+028703
X+009937Y+025703
X+009937Y+024703
X+009937Y+023703
X+009937Y+022703
X+009937Y+021703
X+009937Y+020703
X+009937Y+019703
X+009937Y+018703
X+009937Y+017703
X+009937Y+016703
X+012929Y+019703
X+012929Y+020703
X+012929Y+021703
X+012929Y+022703
X+012929Y+023703
X+012929Y+024703
X+012929Y+025703
X+026437Y+025453
X+026437Y+026453
X+026437Y+027453
X+026437Y+028453
X+026437Y+029453
X+026437Y+030453
X+026437Y+031453
X+026437Y+032453
X+026437Y+033453
X+026437Y+034453
X+026437Y+035453
X+026437Y+036453
X+026437Y+037453
X+026437Y+038453
X+029437Y+038453
X+029437Y+037453
X+029437Y+036453
X+029437Y+035453
X+029437Y+034453
X+029437Y+033453
X+029437Y+032453
X+029437Y+031453
X+029437Y+030453
X+029437Y+029453
X+029437Y+028453
X+029437Y+027453
X+029437Y+026453
X+029437Y+025453
X+029437Y+024453
X+029437Y+023453
X+031936Y+023437
X+031936Y+024437
X+031936Y+025437
X+031936Y+026437
X+031936Y+027437
X+031936Y+028437
X+031936Y+029437
X+031936Y+030437
X+031936Y+031437
X+031936Y+032437
X+031936Y+033437
X+031936Y+034437
X+031936Y+035437
X+031936Y+036437
X+031936Y+037437
X+031936Y+038437
X+034936Y+038437
X+034936Y+037437
X+034936Y+036437
X+034936Y+035437
X+034936Y+034437
X+034936Y+033437
X+034936Y+032437
X+034936Y+031437
X+034936Y+030437
X+034936Y+029437
X+034936Y+028437
X+034936Y+027437
X+034936Y+026437
X+034936Y+025437
X+034936Y+024437
X+034936Y+023437
X+034936Y+020437
X+034936Y+019437
X+034936Y+018437
X+034936Y+017437
X+034936Y+016437
X+034936Y+015437
X+034936Y+014437
X+034936Y+013437
X+034936Y+012437
X+034936Y+011437
X+034936Y+010437
X+034936Y+009437
X+034936Y+008437
X+034936Y+007437
X+034936Y+006437
X+034936Y+005437
X+031936Y+005437
X+031936Y+006437
X+031936Y+007437
X+031936Y+008437
X+031936Y+009437
X+031936Y+010437
X+031936Y+011437
X+031936Y+012437
X+031936Y+013437
X+031936Y+014437
X+031936Y+015437
X+031936Y+016437
X+031936Y+017437
X+031936Y+018437
X+031936Y+019437
X+031936Y+020437
X+029437Y+020453
X+029437Y+019453
X+029437Y+018453
X+029437Y+017453
X+029437Y+016453
X+029437Y+015453
X+029437Y+014453
X+029437Y+013453
X+029437Y+012453
X+029437Y+011453
X+029437Y+010453
X+029437Y+009453
X+029437Y+008453
X+029437Y+007453
X+029437Y+006453
X+029437Y+005453
X+026437Y+005453
X+026437Y+006453
X+026437Y+007453
X+026437Y+008453
X+026437Y+009453
X+026437Y+010453
X+026437Y+011453
X+026437Y+012453
X+026437Y+013453
X+026437Y+014453
X+026437Y+015453
X+026437Y+016453
X+026437Y+017453
X+026437Y+018453
X+026437Y+019453
X+026437Y+020453
X+026437Y+023453
X+026437Y+024453
X+037936Y+024437
X+037936Y+023437
X+037936Y+025437
X+037936Y+026437
X+037936Y+027437
X+037936Y+028437
X+037936Y+029437
X+037936Y+030437
X+037936Y+031437
X+037936Y+032437
X+037936Y+033437
X+037936Y+034437
X+037936Y+035437
X+037936Y+036437
X+037936Y+037437
X+037936Y+038437
X+040936Y+038437
X+040936Y+037437
X+040936Y+036437
X+040936Y+035437
X+040936Y+034437
X+040936Y+033437
X+040936Y+032437
X+040936Y+031437
X+040936Y+030437
X+040936Y+029437
X+040936Y+028437
X+040936Y+027437
X+040936Y+026437
X+040936Y+025437
X+040936Y+024437
X+040936Y+023437
X+040936Y+020437
X+040936Y+019437
X+040936Y+018437
X+040936Y+017437
X+040936Y+016437
X+040936Y+015437
X+040936Y+014437
X+040936Y+013437
X+040936Y+012437
X+040936Y+011437
X+040936Y+010437
X+040936Y+009437
X+040936Y+008437
X+040936Y+007437
X+040936Y+006437
X+040936Y+005437
X+037936Y+005437
X+037936Y+006437
X+037936Y+007437
X+037936Y+008437
X+037936Y+009437
X+037936Y+010437
X+037936Y+011437
X+037936Y+012437
X+037936Y+013437
X+037936Y+014437
X+037936Y+015437
X+037936Y+016437
X+037936Y+017437
X+037936Y+018437
X+037936Y+019437
X+037936Y+020437
T04
X+008186Y+006937
X+008186Y+005937
X+010937Y+015203
X+011937Y+015203
X+015936Y+016687
X+016936Y+016687
X+026437Y+021953
X+027437Y+021953
X+034936Y+021937
X+035936Y+021937
X+037686Y+021937
X+038686Y+021937
X+037936Y+039937
X+036936Y+039937
X+034936Y+039937
X+033936Y+039937
X+026436Y+039937
X+025436Y+039937
X+023437Y+039953
X+022437Y+039953
X+018937Y+039453
X+018937Y+038453
X+012937Y+039195
X+011937Y+039195
X+015686Y+028687
X+016686Y+028687
X+011937Y+027203
X+010937Y+027203
T05
X+006936Y+037937
X+006936Y+036937
X+006936Y+035937
X+006936Y+034937
X+006936Y+033937
X+006936Y+032937
X+006936Y+031937
X+006936Y+030937
X+006936Y+029937
X+006936Y+028937
X+006936Y+027937
X+006936Y+026937
X+006936Y+025937
X+006936Y+024937
X+006936Y+023937
X+006936Y+022937
X+006936Y+021937
X+006936Y+020937
X+006936Y+019937
X+006936Y+018937
X+006936Y+017937
X+006936Y+016937
X+006936Y+015937
X+006936Y+014937
X+006936Y+013937
X+006936Y+012937
X+006936Y+011937
X+006936Y+010937
X+006936Y+009937
X+006936Y+008937
X+006936Y+007937
X+006936Y+006937
X+005936Y+006937
X+005936Y+007937
X+005936Y+008937
X+005936Y+009937
X+005936Y+010937
X+005936Y+011937
X+005936Y+012937
X+005936Y+013937
X+005936Y+014937
X+005936Y+015937
X+005936Y+016937
X+005936Y+017937
X+005936Y+018937
X+005936Y+019937
X+005936Y+020937
X+005936Y+021937
X+005936Y+022937
X+005936Y+023937
X+005936Y+024937
X+005936Y+025937
X+005936Y+026937
X+005936Y+027937
X+005936Y+028937
X+005936Y+029937
X+005936Y+030937
X+005936Y+031937
X+005936Y+032937
X+005936Y+033937
X+005936Y+034937
X+005936Y+035937
X+005936Y+036937
X+005936Y+037937
T06
X+004936Y+039929
X+004936Y+004929
T00
M30
