G04 DipTrace 2.3.1.0*
%INBottomSilk.gbr*%
%MOMM*%
%ADD10C,0.127*%
%ADD12C,0.076*%
%FSLAX53Y53*%
G04*
G71*
G90*
G75*
G01*
%LNBotSilk*%
%LPD*%
X67786Y99220D2*
D10*
G02X66514Y99220I-636J18D01*
G01*
X73595D2*
X67786D1*
X66514D2*
X60705D1*
X73595Y58020D2*
X60705D1*
X73595Y99220D2*
Y58020D1*
X60705Y99220D2*
Y58020D1*
X67786Y53500D2*
G02X66514Y53500I-636J18D01*
G01*
X73595D2*
X67786D1*
X66514D2*
X60705D1*
X73595Y12300D2*
X60705D1*
X73595Y53500D2*
Y12300D1*
X60705Y53500D2*
Y12300D1*
X98901Y99220D2*
G02X97629Y99220I-636J18D01*
G01*
X104710D2*
X98901D1*
X97629D2*
X91820D1*
X104710Y58020D2*
X91820D1*
X104710Y99220D2*
Y58020D1*
X91820Y99220D2*
Y58020D1*
X98901Y53500D2*
G02X97629Y53500I-636J18D01*
G01*
X104710D2*
X98901D1*
X97629D2*
X91820D1*
X104710Y12300D2*
X91820D1*
X104710Y53500D2*
Y12300D1*
X91820Y53500D2*
Y12300D1*
X72255Y100588D2*
D12*
X72331D1*
X72965D2*
X73041D1*
X71647Y100563D2*
X71774D1*
X72255D2*
X72331D1*
X72965D2*
X73041D1*
X71595Y100537D2*
X71820D1*
X72255D2*
X72331D1*
X72965D2*
X73041D1*
X71550Y100512D2*
X71860D1*
X72255D2*
X72331D1*
X72965D2*
X73041D1*
X71514Y100487D2*
X71602D1*
X71828D2*
X71893D1*
X72255D2*
X72331D1*
X72965D2*
X73041D1*
X71488Y100461D2*
X71563D1*
X71856D2*
X71919D1*
X72255D2*
X72331D1*
X72965D2*
X73041D1*
X71469Y100436D2*
X71533D1*
X71881D2*
X71939D1*
X72255D2*
X72331D1*
X72965D2*
X73041D1*
X71457Y100411D2*
X71511D1*
X71900D2*
X71954D1*
X72255D2*
X72331D1*
X72965D2*
X73041D1*
X71450Y100385D2*
X71503D1*
X71914D2*
X71967D1*
X72255D2*
X72331D1*
X72965D2*
X73041D1*
X71447Y100360D2*
X71498D1*
X71926D2*
X71977D1*
X72255D2*
X72331D1*
X72965D2*
X73041D1*
X71447Y100335D2*
X71497D1*
X72255D2*
X72331D1*
X72965D2*
X73041D1*
X71450Y100309D2*
X71497D1*
X72255D2*
X72331D1*
X72965D2*
X73041D1*
X71458Y100284D2*
X71501D1*
X72255D2*
X72331D1*
X72965D2*
X73041D1*
X71477Y100259D2*
X71511D1*
X72255D2*
X72331D1*
X72965D2*
X73041D1*
X71501Y100233D2*
X71527D1*
X72255D2*
X72331D1*
X72965D2*
X73041D1*
X71527Y100208D2*
X71546D1*
X72255D2*
X72331D1*
X72965D2*
X73041D1*
X71547Y100183D2*
X71622D1*
X72255D2*
X72331D1*
X72965D2*
X73041D1*
X71562Y100157D2*
X71688D1*
X72255D2*
X72331D1*
X72965D2*
X73041D1*
X71541Y100132D2*
X71749D1*
X72255D2*
X72331D1*
X72965D2*
X73041D1*
X71511Y100107D2*
X71655D1*
X72255D2*
X72331D1*
X72965D2*
X73041D1*
X71481Y100081D2*
X71581D1*
X72255D2*
X72331D1*
X72965D2*
X73041D1*
X71454Y100056D2*
X71528D1*
X72255D2*
X72331D1*
X72965D2*
X73041D1*
X71433Y100031D2*
X71489D1*
X72255D2*
X72331D1*
X72965D2*
X73041D1*
X71417Y100005D2*
X71470D1*
X72256D2*
X72331D1*
X72965D2*
X73041D1*
X71405Y99980D2*
X71458D1*
X72260D2*
X72331D1*
X72965D2*
X73041D1*
X71395Y99955D2*
X71451D1*
X72266D2*
X72331D1*
X72965D2*
X73041D1*
X71387Y99929D2*
X71447D1*
X72272D2*
X72332D1*
X72965D2*
X73040D1*
X71380Y99904D2*
X71446D1*
X72277D2*
X72336D1*
X72965D2*
X73036D1*
X71383Y99879D2*
X71445D1*
X72279D2*
X72342D1*
X72964D2*
X73030D1*
X71388Y99853D2*
X71446D1*
X72281D2*
X72348D1*
X72960D2*
X73024D1*
X71395Y99828D2*
X71449D1*
X71926D2*
X72002D1*
X72285D2*
X72354D1*
X72954D2*
X73018D1*
X71404Y99803D2*
X71456D1*
X71922D2*
X71989D1*
X72292D2*
X72359D1*
X72947D2*
X73013D1*
X71416Y99777D2*
X71467D1*
X71915D2*
X71978D1*
X72303D2*
X72367D1*
X72938D2*
X73005D1*
X71431Y99752D2*
X71483D1*
X71902D2*
X71964D1*
X72316D2*
X72379D1*
X72925D2*
X72993D1*
X71450Y99727D2*
X71506D1*
X71884D2*
X71945D1*
X72332D2*
X72393D1*
X72905D2*
X72979D1*
X71473Y99701D2*
X71576D1*
X71817D2*
X71922D1*
X72350D2*
X72422D1*
X72876D2*
X72959D1*
X71502Y99676D2*
X71687D1*
X71708D2*
X71894D1*
X72371D2*
X72513D1*
X72789D2*
X72936D1*
X71537Y99651D2*
X71859D1*
X72403D2*
X72658D1*
X72652D2*
X72907D1*
X71578Y99625D2*
X71818D1*
X72447D2*
X72868D1*
X71622Y99600D2*
X71774D1*
X72500D2*
X72818D1*
X72559Y99575D2*
X72762D1*
X72890Y54868D2*
X72966D1*
X73600D2*
X73676D1*
X72156Y54843D2*
X72206D1*
X72890D2*
X72966D1*
X73600D2*
X73676D1*
X72156Y54817D2*
X72223D1*
X72890D2*
X72966D1*
X73600D2*
X73676D1*
X72156Y54792D2*
X72241D1*
X72890D2*
X72966D1*
X73600D2*
X73676D1*
X72156Y54767D2*
X72260D1*
X72890D2*
X72966D1*
X73600D2*
X73676D1*
X72156Y54741D2*
X72280D1*
X72890D2*
X72966D1*
X73600D2*
X73676D1*
X72156Y54716D2*
X72298D1*
X72890D2*
X72966D1*
X73600D2*
X73676D1*
X72156Y54691D2*
X72317D1*
X72890D2*
X72966D1*
X73600D2*
X73676D1*
X72156Y54665D2*
X72337D1*
X72890D2*
X72966D1*
X73600D2*
X73676D1*
X72156Y54640D2*
X72232D1*
X72333D2*
X72360D1*
X72890D2*
X72966D1*
X73600D2*
X73676D1*
X72156Y54615D2*
X72232D1*
X72358D2*
X72384D1*
X72890D2*
X72966D1*
X73600D2*
X73676D1*
X72156Y54589D2*
X72232D1*
X72890D2*
X72966D1*
X73600D2*
X73676D1*
X72156Y54564D2*
X72232D1*
X72384D2*
X72409D1*
X72890D2*
X72966D1*
X73600D2*
X73676D1*
X72156Y54539D2*
X72232D1*
X72409D2*
X72434D1*
X72890D2*
X72966D1*
X73600D2*
X73676D1*
X72156Y54513D2*
X72232D1*
X72434D2*
X72460D1*
X72890D2*
X72966D1*
X73600D2*
X73676D1*
X72156Y54488D2*
X72232D1*
X72890D2*
X72966D1*
X73600D2*
X73676D1*
X72156Y54463D2*
X72232D1*
X72460D2*
X72485D1*
X72890D2*
X72966D1*
X73600D2*
X73676D1*
X72156Y54437D2*
X72232D1*
X72485D2*
X72510D1*
X72890D2*
X72966D1*
X73600D2*
X73676D1*
X72156Y54412D2*
X72232D1*
X72510D2*
X72536D1*
X72890D2*
X72966D1*
X73600D2*
X73676D1*
X72156Y54387D2*
X72232D1*
X72890D2*
X72966D1*
X73600D2*
X73676D1*
X72156Y54361D2*
X72232D1*
X72536D2*
X72561D1*
X72890D2*
X72966D1*
X73600D2*
X73676D1*
X72156Y54336D2*
X72232D1*
X72561D2*
X72586D1*
X72890D2*
X72966D1*
X73600D2*
X73676D1*
X72156Y54311D2*
X72232D1*
X72586D2*
X72612D1*
X72890D2*
X72966D1*
X73600D2*
X73676D1*
X72156Y54285D2*
X72232D1*
X72891D2*
X72966D1*
X73600D2*
X73676D1*
X72156Y54260D2*
X72232D1*
X72612D2*
X72637D1*
X72895D2*
X72966D1*
X73600D2*
X73676D1*
X72156Y54235D2*
X72232D1*
X72612D2*
X72657D1*
X72901D2*
X72966D1*
X73600D2*
X73676D1*
X72156Y54209D2*
X72232D1*
X72612D2*
X72672D1*
X72907D2*
X72967D1*
X73600D2*
X73675D1*
X72004Y54184D2*
X72681D1*
X72912D2*
X72971D1*
X73600D2*
X73671D1*
X72004Y54159D2*
X72685D1*
X72914D2*
X72977D1*
X73599D2*
X73665D1*
X72004Y54133D2*
X72688D1*
X72916D2*
X72983D1*
X73595D2*
X73659D1*
X72156Y54108D2*
X72232D1*
X72920D2*
X72989D1*
X73589D2*
X73653D1*
X72156Y54083D2*
X72232D1*
X72927D2*
X72994D1*
X73582D2*
X73648D1*
X72156Y54057D2*
X72232D1*
X72938D2*
X73002D1*
X73573D2*
X73640D1*
X72156Y54032D2*
X72232D1*
X72951D2*
X73014D1*
X73560D2*
X73628D1*
X72156Y54007D2*
X72232D1*
X72967D2*
X73028D1*
X73540D2*
X73614D1*
X72156Y53981D2*
X72232D1*
X72985D2*
X73057D1*
X73511D2*
X73594D1*
X72156Y53956D2*
X72232D1*
X73006D2*
X73148D1*
X73424D2*
X73571D1*
X72156Y53931D2*
X72232D1*
X73038D2*
X73293D1*
X73287D2*
X73542D1*
X72156Y53905D2*
X72232D1*
X73082D2*
X73503D1*
X72156Y53880D2*
X72232D1*
X73135D2*
X73453D1*
X73194Y53855D2*
X73397D1*
X104005Y100588D2*
X104081D1*
X104715D2*
X104791D1*
X103119Y100563D2*
X103752D1*
X104005D2*
X104081D1*
X104715D2*
X104791D1*
X103131Y100537D2*
X103752D1*
X104005D2*
X104081D1*
X104715D2*
X104791D1*
X103146Y100512D2*
X103752D1*
X104005D2*
X104081D1*
X104715D2*
X104791D1*
X103162Y100487D2*
X103245D1*
X104005D2*
X104081D1*
X104715D2*
X104791D1*
X103179Y100461D2*
X103246D1*
X104005D2*
X104081D1*
X104715D2*
X104791D1*
X103198Y100436D2*
X103251D1*
X104005D2*
X104081D1*
X104715D2*
X104791D1*
X103218Y100411D2*
X103261D1*
X104005D2*
X104081D1*
X104715D2*
X104791D1*
X103236Y100385D2*
X103277D1*
X104005D2*
X104081D1*
X104715D2*
X104791D1*
X103253Y100360D2*
X103295D1*
X104005D2*
X104081D1*
X104715D2*
X104791D1*
X103271Y100335D2*
X103312D1*
X104005D2*
X104081D1*
X104715D2*
X104791D1*
X103287Y100309D2*
X103329D1*
X104005D2*
X104081D1*
X104715D2*
X104791D1*
X103301Y100284D2*
X103347D1*
X104005D2*
X104081D1*
X104715D2*
X104791D1*
X103315Y100259D2*
X103363D1*
X104005D2*
X104081D1*
X104715D2*
X104791D1*
X103331Y100233D2*
X103377D1*
X104005D2*
X104081D1*
X104715D2*
X104791D1*
X103347Y100208D2*
X103390D1*
X104005D2*
X104081D1*
X104715D2*
X104791D1*
X103363Y100183D2*
X103403D1*
X104005D2*
X104081D1*
X104715D2*
X104791D1*
X103377Y100157D2*
X103416D1*
X104005D2*
X104081D1*
X104715D2*
X104791D1*
X103390Y100132D2*
X103429D1*
X104005D2*
X104081D1*
X104715D2*
X104791D1*
X103403Y100107D2*
X103442D1*
X104005D2*
X104081D1*
X104715D2*
X104791D1*
X103413Y100081D2*
X103454D1*
X104005D2*
X104081D1*
X104715D2*
X104791D1*
X103422Y100056D2*
X103467D1*
X104005D2*
X104081D1*
X104715D2*
X104791D1*
X103432Y100031D2*
X103480D1*
X104005D2*
X104081D1*
X104715D2*
X104791D1*
X103443Y100005D2*
X103492D1*
X104006D2*
X104081D1*
X104715D2*
X104791D1*
X103454Y99980D2*
X103504D1*
X104010D2*
X104081D1*
X104715D2*
X104791D1*
X103463Y99955D2*
X103513D1*
X104016D2*
X104081D1*
X104715D2*
X104791D1*
X103469Y99929D2*
X103520D1*
X104022D2*
X104082D1*
X104715D2*
X104790D1*
X103476Y99904D2*
X103526D1*
X104027D2*
X104086D1*
X104715D2*
X104786D1*
X103483Y99879D2*
X103534D1*
X104029D2*
X104092D1*
X104714D2*
X104780D1*
X103491Y99853D2*
X103541D1*
X104031D2*
X104098D1*
X104710D2*
X104774D1*
X103499Y99828D2*
X103549D1*
X104035D2*
X104104D1*
X104704D2*
X104768D1*
X103507Y99803D2*
X103558D1*
X104042D2*
X104109D1*
X104697D2*
X104763D1*
X103515Y99777D2*
X103565D1*
X104053D2*
X104117D1*
X104688D2*
X104755D1*
X103520Y99752D2*
X103570D1*
X104066D2*
X104129D1*
X104675D2*
X104743D1*
X103522Y99727D2*
X103574D1*
X104082D2*
X104143D1*
X104655D2*
X104729D1*
X103523Y99701D2*
X103578D1*
X104100D2*
X104172D1*
X104626D2*
X104709D1*
X103524Y99676D2*
X103585D1*
X104121D2*
X104263D1*
X104539D2*
X104686D1*
X103524Y99651D2*
X103591D1*
X104153D2*
X104408D1*
X104402D2*
X104657D1*
X103524Y99625D2*
X103596D1*
X104197D2*
X104618D1*
X103524Y99600D2*
X103600D1*
X104250D2*
X104568D1*
X104309Y99575D2*
X104512D1*
X96385Y54868D2*
X96461D1*
X97095D2*
X97171D1*
X95752Y54843D2*
X95904D1*
X96385D2*
X96461D1*
X97095D2*
X97171D1*
X95706Y54817D2*
X95950D1*
X96385D2*
X96461D1*
X97095D2*
X97171D1*
X95666Y54792D2*
X95989D1*
X96385D2*
X96461D1*
X97095D2*
X97171D1*
X95633Y54767D2*
X95701D1*
X95924D2*
X96019D1*
X96385D2*
X96461D1*
X97095D2*
X97171D1*
X95607Y54741D2*
X95677D1*
X95963D2*
X96042D1*
X96385D2*
X96461D1*
X97095D2*
X97171D1*
X95587Y54716D2*
X95656D1*
X95993D2*
X96058D1*
X96385D2*
X96461D1*
X97095D2*
X97171D1*
X95572Y54691D2*
X95641D1*
X96016D2*
X96071D1*
X96385D2*
X96461D1*
X97095D2*
X97171D1*
X95561Y54665D2*
X95632D1*
X96023D2*
X96081D1*
X96385D2*
X96461D1*
X97095D2*
X97171D1*
X95556Y54640D2*
X95628D1*
X96028D2*
X96093D1*
X96385D2*
X96461D1*
X97095D2*
X97171D1*
X95556Y54615D2*
X95627D1*
X96029D2*
X96107D1*
X96385D2*
X96461D1*
X97095D2*
X97171D1*
X95562Y54589D2*
X95627D1*
X96029D2*
X96094D1*
X96385D2*
X96461D1*
X97095D2*
X97171D1*
X95572Y54564D2*
X95631D1*
X96025D2*
X96082D1*
X96385D2*
X96461D1*
X97095D2*
X97171D1*
X95586Y54539D2*
X95639D1*
X96017D2*
X96067D1*
X96385D2*
X96461D1*
X97095D2*
X97171D1*
X95606Y54513D2*
X95659D1*
X95994D2*
X96046D1*
X96385D2*
X96461D1*
X97095D2*
X97171D1*
X95631Y54488D2*
X95717D1*
X95929D2*
X96019D1*
X96385D2*
X96461D1*
X97095D2*
X97171D1*
X95656Y54463D2*
X95811D1*
X95827D2*
X95993D1*
X96385D2*
X96461D1*
X97095D2*
X97171D1*
X95677Y54437D2*
X95972D1*
X96385D2*
X96461D1*
X97095D2*
X97171D1*
X95692Y54412D2*
X95962D1*
X96385D2*
X96461D1*
X97095D2*
X97171D1*
X95671Y54387D2*
X95985D1*
X96385D2*
X96461D1*
X97095D2*
X97171D1*
X95641Y54361D2*
X95701D1*
X95955D2*
X96014D1*
X96385D2*
X96461D1*
X97095D2*
X97171D1*
X95611Y54336D2*
X95664D1*
X95991D2*
X96045D1*
X96385D2*
X96461D1*
X97095D2*
X97171D1*
X95584Y54311D2*
X95633D1*
X96020D2*
X96072D1*
X96385D2*
X96461D1*
X97095D2*
X97171D1*
X95563Y54285D2*
X95608D1*
X96042D2*
X96093D1*
X96386D2*
X96461D1*
X97095D2*
X97171D1*
X95547Y54260D2*
X95589D1*
X96058D2*
X96109D1*
X96390D2*
X96461D1*
X97095D2*
X97171D1*
X95535Y54235D2*
X95581D1*
X96070D2*
X96120D1*
X96396D2*
X96461D1*
X97095D2*
X97171D1*
X95525Y54209D2*
X95578D1*
X96076D2*
X96127D1*
X96402D2*
X96462D1*
X97095D2*
X97170D1*
X95517Y54184D2*
X95576D1*
X96079D2*
X96130D1*
X96407D2*
X96466D1*
X97095D2*
X97166D1*
X95510Y54159D2*
X95575D1*
X96080D2*
X96131D1*
X96409D2*
X96472D1*
X97094D2*
X97160D1*
X95513Y54133D2*
X95575D1*
X96080D2*
X96131D1*
X96411D2*
X96478D1*
X97090D2*
X97154D1*
X95518Y54108D2*
X95576D1*
X96077D2*
X96128D1*
X96415D2*
X96484D1*
X97084D2*
X97148D1*
X95525Y54083D2*
X95580D1*
X96070D2*
X96121D1*
X96422D2*
X96489D1*
X97077D2*
X97143D1*
X95534Y54057D2*
X95590D1*
X96059D2*
X96110D1*
X96433D2*
X96497D1*
X97068D2*
X97135D1*
X95546Y54032D2*
X95609D1*
X96045D2*
X96095D1*
X96446D2*
X96509D1*
X97055D2*
X97123D1*
X95561Y54007D2*
X95634D1*
X96017D2*
X96076D1*
X96462D2*
X96523D1*
X97035D2*
X97109D1*
X95581Y53981D2*
X95705D1*
X95940D2*
X96054D1*
X96480D2*
X96552D1*
X97006D2*
X97089D1*
X95609Y53956D2*
X95817D1*
X95821D2*
X96028D1*
X96501D2*
X96643D1*
X96919D2*
X97066D1*
X95647Y53931D2*
X95995D1*
X96533D2*
X96788D1*
X96782D2*
X97037D1*
X95696Y53905D2*
X95953D1*
X96577D2*
X96998D1*
X95752Y53880D2*
X95904D1*
X96630D2*
X96948D1*
X96689Y53855D2*
X96892D1*
X72255Y100588D2*
Y100563D1*
Y100537D1*
Y100512D1*
Y100487D1*
Y100461D1*
Y100436D1*
Y100411D1*
Y100385D1*
Y100360D1*
Y100335D1*
Y100309D1*
Y100284D1*
Y100259D1*
Y100233D1*
Y100208D1*
Y100183D1*
Y100157D1*
Y100132D1*
Y100107D1*
Y100081D1*
Y100056D1*
Y100031D1*
X72256Y100005D1*
X72260Y99980D1*
X72266Y99955D1*
X72272Y99929D1*
X72277Y99904D1*
X72279Y99879D1*
X72281Y99853D1*
X72285Y99828D1*
X72292Y99803D1*
X72303Y99777D1*
X72316Y99752D1*
X72332Y99727D1*
X72350Y99701D1*
X72371Y99676D1*
X72403Y99651D1*
X72447Y99625D1*
X72500Y99600D1*
X72559Y99575D1*
X72331Y100588D2*
Y100563D1*
Y100537D1*
Y100512D1*
Y100487D1*
Y100461D1*
Y100436D1*
Y100411D1*
Y100385D1*
Y100360D1*
Y100335D1*
Y100309D1*
Y100284D1*
Y100259D1*
Y100233D1*
Y100208D1*
Y100183D1*
Y100157D1*
Y100132D1*
Y100107D1*
Y100081D1*
Y100056D1*
Y100031D1*
Y100005D1*
Y99980D1*
Y99955D1*
X72332Y99929D1*
X72336Y99904D1*
X72342Y99879D1*
X72348Y99853D1*
X72354Y99828D1*
X72359Y99803D1*
X72367Y99777D1*
X72379Y99752D1*
X72393Y99727D1*
X72422Y99701D1*
X72513Y99676D1*
X72658Y99651D1*
X72838Y99625D1*
X72965Y100588D2*
Y100563D1*
Y100537D1*
Y100512D1*
Y100487D1*
Y100461D1*
Y100436D1*
Y100411D1*
Y100385D1*
Y100360D1*
Y100335D1*
Y100309D1*
Y100284D1*
Y100259D1*
Y100233D1*
Y100208D1*
Y100183D1*
Y100157D1*
Y100132D1*
Y100107D1*
Y100081D1*
Y100056D1*
Y100031D1*
Y100005D1*
Y99980D1*
Y99955D1*
Y99929D1*
Y99904D1*
X72964Y99879D1*
X72960Y99853D1*
X72954Y99828D1*
X72947Y99803D1*
X72938Y99777D1*
X72925Y99752D1*
X72905Y99727D1*
X72876Y99701D1*
X72789Y99676D1*
X72652Y99651D1*
X72483Y99625D1*
X73041Y100588D2*
Y100563D1*
Y100537D1*
Y100512D1*
Y100487D1*
Y100461D1*
Y100436D1*
Y100411D1*
Y100385D1*
Y100360D1*
Y100335D1*
Y100309D1*
Y100284D1*
Y100259D1*
Y100233D1*
Y100208D1*
Y100183D1*
Y100157D1*
Y100132D1*
Y100107D1*
Y100081D1*
Y100056D1*
Y100031D1*
Y100005D1*
Y99980D1*
Y99955D1*
X73040Y99929D1*
X73036Y99904D1*
X73030Y99879D1*
X73024Y99853D1*
X73018Y99828D1*
X73013Y99803D1*
X73005Y99777D1*
X72993Y99752D1*
X72979Y99727D1*
X72959Y99701D1*
X72936Y99676D1*
X72907Y99651D1*
X72868Y99625D1*
X72818Y99600D1*
X72762Y99575D1*
X71647Y100563D2*
X71595Y100537D1*
X71550Y100512D1*
X71514Y100487D1*
X71488Y100461D1*
X71469Y100436D1*
X71457Y100411D1*
X71450Y100385D1*
X71447Y100360D1*
Y100335D1*
X71450Y100309D1*
X71458Y100284D1*
X71477Y100259D1*
X71501Y100233D1*
X71527Y100208D1*
X71547Y100183D1*
X71562Y100157D1*
X71541Y100132D1*
X71511Y100107D1*
X71481Y100081D1*
X71454Y100056D1*
X71433Y100031D1*
X71417Y100005D1*
X71405Y99980D1*
X71395Y99955D1*
X71387Y99929D1*
X71380Y99904D1*
X71383Y99879D1*
X71388Y99853D1*
X71395Y99828D1*
X71404Y99803D1*
X71416Y99777D1*
X71431Y99752D1*
X71450Y99727D1*
X71473Y99701D1*
X71502Y99676D1*
X71537Y99651D1*
X71578Y99625D1*
X71622Y99600D1*
X71774Y100563D2*
X71820Y100537D1*
X71860Y100512D1*
X71893Y100487D1*
X71919Y100461D1*
X71939Y100436D1*
X71954Y100411D1*
X71967Y100385D1*
X71977Y100360D1*
X71647Y100512D2*
X71602Y100487D1*
X71563Y100461D1*
X71533Y100436D1*
X71511Y100411D1*
X71503Y100385D1*
X71498Y100360D1*
X71497Y100335D1*
Y100309D1*
X71501Y100284D1*
X71511Y100259D1*
X71527Y100233D1*
X71546Y100208D1*
X71799Y100512D2*
X71828Y100487D1*
X71856Y100461D1*
X71881Y100436D1*
X71900Y100411D1*
X71914Y100385D1*
X71926Y100360D1*
X71622Y100183D2*
X71688Y100157D1*
X71749Y100132D1*
X71655Y100107D1*
X71581Y100081D1*
X71528Y100056D1*
X71489Y100031D1*
X71470Y100005D1*
X71458Y99980D1*
X71451Y99955D1*
X71447Y99929D1*
X71446Y99904D1*
X71445Y99879D1*
X71446Y99853D1*
X71449Y99828D1*
X71456Y99803D1*
X71467Y99777D1*
X71483Y99752D1*
X71506Y99727D1*
X71576Y99701D1*
X71687Y99676D1*
X71825Y99651D1*
X71926Y99828D2*
X71922Y99803D1*
X71915Y99777D1*
X71902Y99752D1*
X71884Y99727D1*
X71817Y99701D1*
X71708Y99676D1*
X71571Y99651D1*
X72002Y99828D2*
X71989Y99803D1*
X71978Y99777D1*
X71964Y99752D1*
X71945Y99727D1*
X71922Y99701D1*
X71894Y99676D1*
X71859Y99651D1*
X71818Y99625D1*
X71774Y99600D1*
X72890Y54868D2*
Y54843D1*
Y54817D1*
Y54792D1*
Y54767D1*
Y54741D1*
Y54716D1*
Y54691D1*
Y54665D1*
Y54640D1*
Y54615D1*
Y54589D1*
Y54564D1*
Y54539D1*
Y54513D1*
Y54488D1*
Y54463D1*
Y54437D1*
Y54412D1*
Y54387D1*
Y54361D1*
Y54336D1*
Y54311D1*
X72891Y54285D1*
X72895Y54260D1*
X72901Y54235D1*
X72907Y54209D1*
X72912Y54184D1*
X72914Y54159D1*
X72916Y54133D1*
X72920Y54108D1*
X72927Y54083D1*
X72938Y54057D1*
X72951Y54032D1*
X72967Y54007D1*
X72985Y53981D1*
X73006Y53956D1*
X73038Y53931D1*
X73082Y53905D1*
X73135Y53880D1*
X73194Y53855D1*
X72966Y54868D2*
Y54843D1*
Y54817D1*
Y54792D1*
Y54767D1*
Y54741D1*
Y54716D1*
Y54691D1*
Y54665D1*
Y54640D1*
Y54615D1*
Y54589D1*
Y54564D1*
Y54539D1*
Y54513D1*
Y54488D1*
Y54463D1*
Y54437D1*
Y54412D1*
Y54387D1*
Y54361D1*
Y54336D1*
Y54311D1*
Y54285D1*
Y54260D1*
Y54235D1*
X72967Y54209D1*
X72971Y54184D1*
X72977Y54159D1*
X72983Y54133D1*
X72989Y54108D1*
X72994Y54083D1*
X73002Y54057D1*
X73014Y54032D1*
X73028Y54007D1*
X73057Y53981D1*
X73148Y53956D1*
X73293Y53931D1*
X73473Y53905D1*
X73600Y54868D2*
Y54843D1*
Y54817D1*
Y54792D1*
Y54767D1*
Y54741D1*
Y54716D1*
Y54691D1*
Y54665D1*
Y54640D1*
Y54615D1*
Y54589D1*
Y54564D1*
Y54539D1*
Y54513D1*
Y54488D1*
Y54463D1*
Y54437D1*
Y54412D1*
Y54387D1*
Y54361D1*
Y54336D1*
Y54311D1*
Y54285D1*
Y54260D1*
Y54235D1*
Y54209D1*
Y54184D1*
X73599Y54159D1*
X73595Y54133D1*
X73589Y54108D1*
X73582Y54083D1*
X73573Y54057D1*
X73560Y54032D1*
X73540Y54007D1*
X73511Y53981D1*
X73424Y53956D1*
X73287Y53931D1*
X73118Y53905D1*
X73676Y54868D2*
Y54843D1*
Y54817D1*
Y54792D1*
Y54767D1*
Y54741D1*
Y54716D1*
Y54691D1*
Y54665D1*
Y54640D1*
Y54615D1*
Y54589D1*
Y54564D1*
Y54539D1*
Y54513D1*
Y54488D1*
Y54463D1*
Y54437D1*
Y54412D1*
Y54387D1*
Y54361D1*
Y54336D1*
Y54311D1*
Y54285D1*
Y54260D1*
Y54235D1*
X73675Y54209D1*
X73671Y54184D1*
X73665Y54159D1*
X73659Y54133D1*
X73653Y54108D1*
X73648Y54083D1*
X73640Y54057D1*
X73628Y54032D1*
X73614Y54007D1*
X73594Y53981D1*
X73571Y53956D1*
X73542Y53931D1*
X73503Y53905D1*
X73453Y53880D1*
X73397Y53855D1*
X72156Y54843D2*
Y54817D1*
Y54792D1*
Y54767D1*
Y54741D1*
Y54716D1*
Y54691D1*
Y54665D1*
Y54640D1*
Y54615D1*
Y54589D1*
Y54564D1*
Y54539D1*
Y54513D1*
Y54488D1*
Y54463D1*
Y54437D1*
Y54412D1*
Y54387D1*
Y54361D1*
Y54336D1*
Y54311D1*
Y54285D1*
Y54260D1*
Y54235D1*
Y54209D1*
Y54184D1*
X72004D1*
Y54159D1*
Y54133D1*
Y54108D1*
X72156D1*
Y54083D1*
Y54057D1*
Y54032D1*
Y54007D1*
Y53981D1*
Y53956D1*
Y53931D1*
Y53905D1*
Y53880D1*
X72206Y54843D2*
X72223Y54817D1*
X72241Y54792D1*
X72260Y54767D1*
X72280Y54741D1*
X72298Y54716D1*
X72317Y54691D1*
X72337Y54665D1*
X72360Y54640D1*
X72384Y54615D1*
X72232Y54665D2*
Y54640D1*
Y54615D1*
Y54589D1*
Y54564D1*
Y54539D1*
Y54513D1*
Y54488D1*
Y54463D1*
Y54437D1*
Y54412D1*
Y54387D1*
Y54361D1*
Y54336D1*
Y54311D1*
Y54285D1*
Y54260D1*
Y54235D1*
Y54209D1*
Y54184D1*
X72333Y54640D2*
X72358Y54615D1*
X72384Y54564D2*
X72409Y54539D1*
X72434Y54513D1*
X72409Y54564D2*
X72434Y54539D1*
X72460Y54513D1*
Y54463D2*
X72485Y54437D1*
X72510Y54412D1*
X72485Y54463D2*
X72510Y54437D1*
X72536Y54412D1*
Y54361D2*
X72561Y54336D1*
X72586Y54311D1*
X72561Y54361D2*
X72586Y54336D1*
X72612Y54311D1*
Y54260D2*
Y54235D1*
Y54209D1*
Y54184D1*
X72637Y54260D2*
X72657Y54235D1*
X72672Y54209D1*
X72681Y54184D1*
X72685Y54159D1*
X72688Y54133D1*
X72232D2*
Y54108D1*
Y54083D1*
Y54057D1*
Y54032D1*
Y54007D1*
Y53981D1*
Y53956D1*
Y53931D1*
Y53905D1*
Y53880D1*
X104005Y100588D2*
Y100563D1*
Y100537D1*
Y100512D1*
Y100487D1*
Y100461D1*
Y100436D1*
Y100411D1*
Y100385D1*
Y100360D1*
Y100335D1*
Y100309D1*
Y100284D1*
Y100259D1*
Y100233D1*
Y100208D1*
Y100183D1*
Y100157D1*
Y100132D1*
Y100107D1*
Y100081D1*
Y100056D1*
Y100031D1*
X104006Y100005D1*
X104010Y99980D1*
X104016Y99955D1*
X104022Y99929D1*
X104027Y99904D1*
X104029Y99879D1*
X104031Y99853D1*
X104035Y99828D1*
X104042Y99803D1*
X104053Y99777D1*
X104066Y99752D1*
X104082Y99727D1*
X104100Y99701D1*
X104121Y99676D1*
X104153Y99651D1*
X104197Y99625D1*
X104250Y99600D1*
X104309Y99575D1*
X104081Y100588D2*
Y100563D1*
Y100537D1*
Y100512D1*
Y100487D1*
Y100461D1*
Y100436D1*
Y100411D1*
Y100385D1*
Y100360D1*
Y100335D1*
Y100309D1*
Y100284D1*
Y100259D1*
Y100233D1*
Y100208D1*
Y100183D1*
Y100157D1*
Y100132D1*
Y100107D1*
Y100081D1*
Y100056D1*
Y100031D1*
Y100005D1*
Y99980D1*
Y99955D1*
X104082Y99929D1*
X104086Y99904D1*
X104092Y99879D1*
X104098Y99853D1*
X104104Y99828D1*
X104109Y99803D1*
X104117Y99777D1*
X104129Y99752D1*
X104143Y99727D1*
X104172Y99701D1*
X104263Y99676D1*
X104408Y99651D1*
X104588Y99625D1*
X104715Y100588D2*
Y100563D1*
Y100537D1*
Y100512D1*
Y100487D1*
Y100461D1*
Y100436D1*
Y100411D1*
Y100385D1*
Y100360D1*
Y100335D1*
Y100309D1*
Y100284D1*
Y100259D1*
Y100233D1*
Y100208D1*
Y100183D1*
Y100157D1*
Y100132D1*
Y100107D1*
Y100081D1*
Y100056D1*
Y100031D1*
Y100005D1*
Y99980D1*
Y99955D1*
Y99929D1*
Y99904D1*
X104714Y99879D1*
X104710Y99853D1*
X104704Y99828D1*
X104697Y99803D1*
X104688Y99777D1*
X104675Y99752D1*
X104655Y99727D1*
X104626Y99701D1*
X104539Y99676D1*
X104402Y99651D1*
X104233Y99625D1*
X104791Y100588D2*
Y100563D1*
Y100537D1*
Y100512D1*
Y100487D1*
Y100461D1*
Y100436D1*
Y100411D1*
Y100385D1*
Y100360D1*
Y100335D1*
Y100309D1*
Y100284D1*
Y100259D1*
Y100233D1*
Y100208D1*
Y100183D1*
Y100157D1*
Y100132D1*
Y100107D1*
Y100081D1*
Y100056D1*
Y100031D1*
Y100005D1*
Y99980D1*
Y99955D1*
X104790Y99929D1*
X104786Y99904D1*
X104780Y99879D1*
X104774Y99853D1*
X104768Y99828D1*
X104763Y99803D1*
X104755Y99777D1*
X104743Y99752D1*
X104729Y99727D1*
X104709Y99701D1*
X104686Y99676D1*
X104657Y99651D1*
X104618Y99625D1*
X104568Y99600D1*
X104512Y99575D1*
X103119Y100563D2*
X103131Y100537D1*
X103146Y100512D1*
X103162Y100487D1*
X103179Y100461D1*
X103198Y100436D1*
X103218Y100411D1*
X103236Y100385D1*
X103253Y100360D1*
X103271Y100335D1*
X103287Y100309D1*
X103301Y100284D1*
X103315Y100259D1*
X103331Y100233D1*
X103347Y100208D1*
X103363Y100183D1*
X103377Y100157D1*
X103390Y100132D1*
X103403Y100107D1*
X103413Y100081D1*
X103422Y100056D1*
X103432Y100031D1*
X103443Y100005D1*
X103454Y99980D1*
X103463Y99955D1*
X103469Y99929D1*
X103476Y99904D1*
X103483Y99879D1*
X103491Y99853D1*
X103499Y99828D1*
X103507Y99803D1*
X103515Y99777D1*
X103520Y99752D1*
X103522Y99727D1*
X103523Y99701D1*
X103524Y99676D1*
Y99651D1*
Y99625D1*
Y99600D1*
X103752Y100563D2*
Y100537D1*
Y100512D1*
X103245D2*
Y100487D1*
X103246Y100461D1*
X103251Y100436D1*
X103261Y100411D1*
X103277Y100385D1*
X103295Y100360D1*
X103312Y100335D1*
X103329Y100309D1*
X103347Y100284D1*
X103363Y100259D1*
X103377Y100233D1*
X103390Y100208D1*
X103403Y100183D1*
X103416Y100157D1*
X103429Y100132D1*
X103442Y100107D1*
X103454Y100081D1*
X103467Y100056D1*
X103480Y100031D1*
X103492Y100005D1*
X103504Y99980D1*
X103513Y99955D1*
X103520Y99929D1*
X103526Y99904D1*
X103534Y99879D1*
X103541Y99853D1*
X103549Y99828D1*
X103558Y99803D1*
X103565Y99777D1*
X103570Y99752D1*
X103574Y99727D1*
X103578Y99701D1*
X103585Y99676D1*
X103591Y99651D1*
X103596Y99625D1*
X103600Y99600D1*
X96385Y54868D2*
Y54843D1*
Y54817D1*
Y54792D1*
Y54767D1*
Y54741D1*
Y54716D1*
Y54691D1*
Y54665D1*
Y54640D1*
Y54615D1*
Y54589D1*
Y54564D1*
Y54539D1*
Y54513D1*
Y54488D1*
Y54463D1*
Y54437D1*
Y54412D1*
Y54387D1*
Y54361D1*
Y54336D1*
Y54311D1*
X96386Y54285D1*
X96390Y54260D1*
X96396Y54235D1*
X96402Y54209D1*
X96407Y54184D1*
X96409Y54159D1*
X96411Y54133D1*
X96415Y54108D1*
X96422Y54083D1*
X96433Y54057D1*
X96446Y54032D1*
X96462Y54007D1*
X96480Y53981D1*
X96501Y53956D1*
X96533Y53931D1*
X96577Y53905D1*
X96630Y53880D1*
X96689Y53855D1*
X96461Y54868D2*
Y54843D1*
Y54817D1*
Y54792D1*
Y54767D1*
Y54741D1*
Y54716D1*
Y54691D1*
Y54665D1*
Y54640D1*
Y54615D1*
Y54589D1*
Y54564D1*
Y54539D1*
Y54513D1*
Y54488D1*
Y54463D1*
Y54437D1*
Y54412D1*
Y54387D1*
Y54361D1*
Y54336D1*
Y54311D1*
Y54285D1*
Y54260D1*
Y54235D1*
X96462Y54209D1*
X96466Y54184D1*
X96472Y54159D1*
X96478Y54133D1*
X96484Y54108D1*
X96489Y54083D1*
X96497Y54057D1*
X96509Y54032D1*
X96523Y54007D1*
X96552Y53981D1*
X96643Y53956D1*
X96788Y53931D1*
X96968Y53905D1*
X97095Y54868D2*
Y54843D1*
Y54817D1*
Y54792D1*
Y54767D1*
Y54741D1*
Y54716D1*
Y54691D1*
Y54665D1*
Y54640D1*
Y54615D1*
Y54589D1*
Y54564D1*
Y54539D1*
Y54513D1*
Y54488D1*
Y54463D1*
Y54437D1*
Y54412D1*
Y54387D1*
Y54361D1*
Y54336D1*
Y54311D1*
Y54285D1*
Y54260D1*
Y54235D1*
Y54209D1*
Y54184D1*
X97094Y54159D1*
X97090Y54133D1*
X97084Y54108D1*
X97077Y54083D1*
X97068Y54057D1*
X97055Y54032D1*
X97035Y54007D1*
X97006Y53981D1*
X96919Y53956D1*
X96782Y53931D1*
X96613Y53905D1*
X97171Y54868D2*
Y54843D1*
Y54817D1*
Y54792D1*
Y54767D1*
Y54741D1*
Y54716D1*
Y54691D1*
Y54665D1*
Y54640D1*
Y54615D1*
Y54589D1*
Y54564D1*
Y54539D1*
Y54513D1*
Y54488D1*
Y54463D1*
Y54437D1*
Y54412D1*
Y54387D1*
Y54361D1*
Y54336D1*
Y54311D1*
Y54285D1*
Y54260D1*
Y54235D1*
X97170Y54209D1*
X97166Y54184D1*
X97160Y54159D1*
X97154Y54133D1*
X97148Y54108D1*
X97143Y54083D1*
X97135Y54057D1*
X97123Y54032D1*
X97109Y54007D1*
X97089Y53981D1*
X97066Y53956D1*
X97037Y53931D1*
X96998Y53905D1*
X96948Y53880D1*
X96892Y53855D1*
X95752Y54843D2*
X95706Y54817D1*
X95666Y54792D1*
X95633Y54767D1*
X95607Y54741D1*
X95587Y54716D1*
X95572Y54691D1*
X95561Y54665D1*
X95556Y54640D1*
Y54615D1*
X95562Y54589D1*
X95572Y54564D1*
X95586Y54539D1*
X95606Y54513D1*
X95631Y54488D1*
X95656Y54463D1*
X95677Y54437D1*
X95692Y54412D1*
X95671Y54387D1*
X95641Y54361D1*
X95611Y54336D1*
X95584Y54311D1*
X95563Y54285D1*
X95547Y54260D1*
X95535Y54235D1*
X95525Y54209D1*
X95517Y54184D1*
X95510Y54159D1*
X95513Y54133D1*
X95518Y54108D1*
X95525Y54083D1*
X95534Y54057D1*
X95546Y54032D1*
X95561Y54007D1*
X95581Y53981D1*
X95609Y53956D1*
X95647Y53931D1*
X95696Y53905D1*
X95752Y53880D1*
X95904Y54843D2*
X95950Y54817D1*
X95989Y54792D1*
X96019Y54767D1*
X96042Y54741D1*
X96058Y54716D1*
X96071Y54691D1*
X96081Y54665D1*
X96093Y54640D1*
X96107Y54615D1*
X96094Y54589D1*
X96082Y54564D1*
X96067Y54539D1*
X96046Y54513D1*
X96019Y54488D1*
X95993Y54463D1*
X95972Y54437D1*
X95962Y54412D1*
X95985Y54387D1*
X96014Y54361D1*
X96045Y54336D1*
X96072Y54311D1*
X96093Y54285D1*
X96109Y54260D1*
X96120Y54235D1*
X96127Y54209D1*
X96130Y54184D1*
X96131Y54159D1*
Y54133D1*
X96128Y54108D1*
X96121Y54083D1*
X96110Y54057D1*
X96095Y54032D1*
X96076Y54007D1*
X96054Y53981D1*
X96028Y53956D1*
X95995Y53931D1*
X95953Y53905D1*
X95904Y53880D1*
X95727Y54792D2*
X95701Y54767D1*
X95677Y54741D1*
X95656Y54716D1*
X95641Y54691D1*
X95632Y54665D1*
X95628Y54640D1*
X95627Y54615D1*
Y54589D1*
X95631Y54564D1*
X95639Y54539D1*
X95659Y54513D1*
X95717Y54488D1*
X95811Y54463D1*
X95929Y54437D1*
X95879Y54792D2*
X95924Y54767D1*
X95963Y54741D1*
X95993Y54716D1*
X96016Y54691D1*
X96023Y54665D1*
X96028Y54640D1*
X96029Y54615D1*
Y54589D1*
X96025Y54564D1*
X96017Y54539D1*
X95994Y54513D1*
X95929Y54488D1*
X95827Y54463D1*
X95701Y54437D1*
Y54361D2*
X95664Y54336D1*
X95633Y54311D1*
X95608Y54285D1*
X95589Y54260D1*
X95581Y54235D1*
X95578Y54209D1*
X95576Y54184D1*
X95575Y54159D1*
Y54133D1*
X95576Y54108D1*
X95580Y54083D1*
X95590Y54057D1*
X95609Y54032D1*
X95634Y54007D1*
X95705Y53981D1*
X95817Y53956D1*
X95955Y53931D1*
Y54361D2*
X95991Y54336D1*
X96020Y54311D1*
X96042Y54285D1*
X96058Y54260D1*
X96070Y54235D1*
X96076Y54209D1*
X96079Y54184D1*
X96080Y54159D1*
Y54133D1*
X96077Y54108D1*
X96070Y54083D1*
X96059Y54057D1*
X96045Y54032D1*
X96017Y54007D1*
X95940Y53981D1*
X95821Y53956D1*
X95676Y53931D1*
M02*
