G04 DipTrace 2.3.1.0*
%INBottomMask.gbr*%
%MOMM*%
%ADD26C,1.016*%
%ADD28C,2.8*%
%ADD33C,1.216*%
%ADD34C,1.7*%
%ADD36R,1.7X1.7*%
%ADD38C,1.7*%
%ADD40C,1.978*%
%ADD42R,1.724X1.724*%
%ADD44C,1.724*%
%FSLAX53Y53*%
G04*
G71*
G90*
G75*
G01*
%LNBotMask*%
%LPD*%
D33*
X100805Y50680D3*
Y43060D3*
Y45600D3*
Y48140D3*
Y40520D3*
Y37980D3*
X84930Y50680D3*
Y48140D3*
Y43060D3*
Y40520D3*
Y37980D3*
Y35440D3*
X76675Y36710D3*
Y34170D3*
Y31630D3*
Y29090D3*
Y26550D3*
Y24010D3*
X69053Y26510D3*
X96358Y12540D3*
X56988Y68420D3*
X12538Y86200D3*
X45558Y44290D3*
X20158Y25240D3*
X23333Y27145D3*
X29683Y88105D3*
X27778D3*
Y91915D3*
X29683D3*
X49368Y42385D3*
X30318Y46195D3*
X27778Y29685D3*
Y28415D3*
X29683Y34130D3*
X46828Y50640D3*
X36033Y11270D3*
X37938D3*
X29683D3*
X27778D3*
X11268Y28415D3*
Y40480D3*
X23333Y61435D3*
Y58895D3*
X48098Y11270D3*
X58258D3*
X68418D3*
X78578D3*
X88738D3*
X98898D3*
Y102710D3*
X78578D3*
X68418D3*
X48098D3*
X28413Y53180D3*
Y60165D3*
X22698Y64610D3*
Y93820D3*
X11268Y91280D3*
Y81120D3*
Y70960D3*
Y60800D3*
Y50640D3*
X17618Y11270D3*
X11268Y17620D3*
X32858Y102710D3*
X100168Y95090D3*
X59528Y53815D3*
X56353Y60165D3*
X57623Y29050D3*
X49368Y33495D3*
X54448Y96360D3*
X55083Y73500D3*
X100168Y92550D3*
Y90010D3*
Y87470D3*
Y84930D3*
Y82390D3*
Y79850D3*
Y77310D3*
Y74770D3*
Y72230D3*
X100803Y34130D3*
Y31590D3*
Y29050D3*
Y26510D3*
Y23970D3*
Y21430D3*
Y18890D3*
Y16350D3*
X57623Y31590D3*
X48098Y28415D3*
X49368Y36035D3*
X35398Y27145D3*
X39843Y96360D3*
X28413Y56355D3*
Y63975D3*
X64608Y56990D3*
Y54450D3*
X74768Y55720D3*
X83023D3*
X16348Y102075D3*
X35398Y30955D3*
X20158Y43655D3*
X22063Y44925D3*
X20158Y36670D3*
X29683Y13175D3*
X34763D3*
X103978Y37940D3*
X23333Y77945D3*
Y81755D3*
X20158Y46830D3*
X23333Y84295D3*
X30953Y71595D3*
X34763Y36035D3*
X49368Y30955D3*
X39208Y69690D3*
X20158Y91915D3*
D26*
X42383Y91280D3*
X49862Y76217D3*
X39208Y86200D3*
X30318Y42385D3*
X55718Y57625D3*
X62068Y55720D3*
X46828Y49370D3*
X48098Y53815D3*
X47463Y46830D3*
X13173Y67150D3*
D33*
X22698Y49370D3*
X23333Y47465D3*
D26*
X47463Y23335D3*
X35398Y21430D3*
X59528Y56355D3*
X57623Y54450D3*
X48733Y58260D3*
X54448D3*
X50003Y62070D3*
X23333Y65880D3*
X29048Y76040D3*
X62703Y26510D3*
X13173Y28415D3*
X48098Y38575D3*
X39843Y100170D3*
X63338Y44290D3*
X40478Y68420D3*
X28413Y32860D3*
D33*
X39208Y27145D3*
X100168Y69690D3*
Y67150D3*
Y64610D3*
Y62070D3*
Y57625D3*
Y53815D3*
D44*
X27780Y38615D3*
D42*
X30320D3*
D44*
X39845Y73540D3*
D42*
X42385D3*
D44*
X30319Y99555D3*
D42*
X32859D3*
D44*
X40478Y42385D3*
D42*
X43018D3*
D44*
X27780Y69095D3*
D42*
X30320D3*
D44*
X48100Y97670D3*
D42*
Y100210D3*
D44*
X59530Y101480D3*
D42*
X56990D3*
D44*
X69690Y55760D3*
D42*
X67150D3*
D44*
X88105Y101480D3*
D42*
X90645D3*
D44*
X93185Y55760D3*
D42*
X90645D3*
D40*
X18889Y102095D3*
X21429D3*
X23969D3*
X18889Y99555D3*
X21429D3*
X23969D3*
D38*
X17618Y96360D3*
Y93820D3*
Y91280D3*
Y88740D3*
Y86200D3*
Y83660D3*
Y81120D3*
Y78580D3*
Y76040D3*
Y73500D3*
Y70960D3*
Y68420D3*
Y65880D3*
Y63340D3*
Y60800D3*
Y58260D3*
Y55720D3*
Y53180D3*
Y50640D3*
Y48100D3*
Y45560D3*
Y43020D3*
Y40480D3*
Y37940D3*
Y35400D3*
Y32860D3*
Y30320D3*
Y27780D3*
Y25240D3*
Y22700D3*
Y20160D3*
Y17620D3*
X15078Y96360D3*
Y93820D3*
Y91280D3*
Y88740D3*
Y86200D3*
Y83660D3*
Y81120D3*
Y78580D3*
Y76040D3*
Y73500D3*
Y70960D3*
Y68420D3*
Y65880D3*
Y63340D3*
Y60800D3*
Y58260D3*
Y55720D3*
Y53180D3*
Y50640D3*
Y48100D3*
Y45560D3*
Y43020D3*
Y40480D3*
Y37940D3*
Y35400D3*
Y32860D3*
Y30320D3*
Y27780D3*
Y25240D3*
Y22700D3*
Y20160D3*
Y17620D3*
D28*
X12538Y101420D3*
Y12520D3*
D36*
X51910Y97670D3*
D34*
Y95130D3*
Y92590D3*
Y90050D3*
Y87510D3*
Y84970D3*
Y82430D3*
Y79890D3*
Y77350D3*
Y74810D3*
Y72270D3*
Y69730D3*
Y67190D3*
Y64650D3*
Y62110D3*
Y59570D3*
X67150D3*
Y62110D3*
Y64650D3*
Y67190D3*
Y69730D3*
Y72270D3*
Y74810D3*
Y77350D3*
Y79890D3*
Y82430D3*
Y84970D3*
Y87510D3*
Y90050D3*
Y92590D3*
Y95130D3*
Y97670D3*
D36*
X51910Y51950D3*
D34*
Y49410D3*
Y46870D3*
Y44330D3*
Y41790D3*
Y39250D3*
Y36710D3*
Y34170D3*
Y31630D3*
Y29090D3*
Y26550D3*
Y24010D3*
Y21470D3*
Y18930D3*
Y16390D3*
Y13850D3*
X67150D3*
Y16390D3*
Y18930D3*
Y21470D3*
Y24010D3*
Y26550D3*
Y29090D3*
Y31630D3*
Y34170D3*
Y36710D3*
Y39250D3*
Y41790D3*
Y44330D3*
Y46870D3*
Y49410D3*
Y51950D3*
D36*
X74770Y97670D3*
D34*
Y95130D3*
Y92590D3*
Y90050D3*
Y87510D3*
Y84970D3*
Y82430D3*
Y79890D3*
Y77350D3*
Y74810D3*
Y72270D3*
Y69730D3*
Y67190D3*
Y64650D3*
Y62110D3*
Y59570D3*
X59530D3*
Y62110D3*
Y64650D3*
Y67190D3*
Y69730D3*
Y72270D3*
Y74810D3*
Y77350D3*
Y79890D3*
Y82430D3*
Y84970D3*
Y87510D3*
Y90050D3*
Y92590D3*
Y95130D3*
Y97670D3*
D36*
X74770Y51950D3*
D34*
Y49410D3*
Y46870D3*
Y44330D3*
Y41790D3*
Y39250D3*
Y36710D3*
Y34170D3*
Y31630D3*
Y29090D3*
Y26550D3*
Y24010D3*
Y21470D3*
Y18930D3*
Y16390D3*
Y13850D3*
X59530D3*
Y16390D3*
Y18930D3*
Y21470D3*
Y24010D3*
Y26550D3*
Y29090D3*
Y31630D3*
Y34170D3*
Y36710D3*
Y39250D3*
Y41790D3*
Y44330D3*
Y46870D3*
Y49410D3*
Y51950D3*
D36*
X83025Y97670D3*
D34*
Y95130D3*
Y92590D3*
Y90050D3*
Y87510D3*
Y84970D3*
Y82430D3*
Y79890D3*
Y77350D3*
Y74810D3*
Y72270D3*
Y69730D3*
Y67190D3*
Y64650D3*
Y62110D3*
Y59570D3*
X98265D3*
Y62110D3*
Y64650D3*
Y67190D3*
Y69730D3*
Y72270D3*
Y74810D3*
Y77350D3*
Y79890D3*
Y82430D3*
Y84970D3*
Y87510D3*
Y90050D3*
Y92590D3*
Y95130D3*
Y97670D3*
D36*
X83025Y51950D3*
D34*
Y49410D3*
Y46870D3*
Y44330D3*
Y41790D3*
Y39250D3*
Y36710D3*
Y34170D3*
Y31630D3*
Y29090D3*
Y26550D3*
Y24010D3*
Y21470D3*
Y18930D3*
Y16390D3*
Y13850D3*
X98265D3*
Y16390D3*
Y18930D3*
Y21470D3*
Y24010D3*
Y26550D3*
Y29090D3*
Y31630D3*
Y34170D3*
Y36710D3*
Y39250D3*
Y41790D3*
Y44330D3*
Y46870D3*
Y49410D3*
Y51950D3*
D36*
X105885Y97670D3*
D34*
Y95130D3*
Y92590D3*
Y90050D3*
Y87510D3*
Y84970D3*
Y82430D3*
Y79890D3*
Y77350D3*
Y74810D3*
Y72270D3*
Y69730D3*
Y67190D3*
Y64650D3*
Y62110D3*
Y59570D3*
X90645D3*
Y62110D3*
Y64650D3*
Y67190D3*
Y69730D3*
Y72270D3*
Y74810D3*
Y77350D3*
Y79890D3*
Y82430D3*
Y84970D3*
Y87510D3*
Y90050D3*
Y92590D3*
Y95130D3*
Y97670D3*
D36*
X105885Y51950D3*
D34*
Y49410D3*
Y46870D3*
Y44330D3*
Y41790D3*
Y39250D3*
Y36710D3*
Y34170D3*
Y31630D3*
Y29090D3*
Y26550D3*
Y24010D3*
Y21470D3*
Y18930D3*
Y16390D3*
Y13850D3*
X90645D3*
Y16390D3*
Y18930D3*
Y21470D3*
Y24010D3*
Y26550D3*
Y29090D3*
Y31630D3*
Y34170D3*
Y36710D3*
Y39250D3*
Y41790D3*
Y44330D3*
Y46870D3*
Y49410D3*
Y51950D3*
D36*
X37305Y38615D3*
D34*
Y36075D3*
Y33535D3*
Y30995D3*
Y28455D3*
Y25915D3*
Y23375D3*
Y20835D3*
X44905D3*
Y23375D3*
Y25915D3*
Y28455D3*
Y30995D3*
Y33535D3*
Y36075D3*
Y38615D3*
D36*
X25240Y95765D3*
D34*
Y93225D3*
Y90685D3*
Y88145D3*
Y85605D3*
Y83065D3*
Y80525D3*
Y77985D3*
Y75445D3*
Y72905D3*
X32840Y95765D3*
Y93225D3*
Y90685D3*
Y88145D3*
Y85605D3*
Y83065D3*
Y80525D3*
Y77985D3*
Y75445D3*
Y72905D3*
D36*
X25240Y65285D3*
D34*
Y62745D3*
Y60205D3*
Y57665D3*
Y55125D3*
Y52585D3*
Y50045D3*
Y47505D3*
Y44965D3*
Y42425D3*
X32840Y65285D3*
Y62745D3*
Y60205D3*
Y57665D3*
Y55125D3*
Y52585D3*
Y50045D3*
Y47505D3*
Y44965D3*
Y42425D3*
D36*
X37305Y100210D3*
D34*
Y97670D3*
Y95130D3*
Y92590D3*
Y90050D3*
Y87510D3*
Y84970D3*
Y82430D3*
Y79890D3*
Y77350D3*
X44905Y100210D3*
Y97670D3*
Y95130D3*
Y92590D3*
Y90050D3*
Y87510D3*
Y84970D3*
Y82430D3*
Y79890D3*
Y77350D3*
D36*
X25240Y34805D3*
D34*
Y32265D3*
Y29725D3*
Y27185D3*
Y24645D3*
Y22105D3*
Y19565D3*
Y17025D3*
Y14485D3*
Y11945D3*
X32840Y34805D3*
Y32265D3*
Y29725D3*
Y27185D3*
Y24645D3*
Y22105D3*
Y19565D3*
Y17025D3*
Y14485D3*
Y11945D3*
D36*
X37305Y69730D3*
D34*
Y67190D3*
Y64650D3*
Y62110D3*
Y59570D3*
Y57030D3*
Y54490D3*
Y51950D3*
Y49410D3*
Y46870D3*
X44905Y69730D3*
Y67190D3*
Y64650D3*
Y62110D3*
Y59570D3*
Y57030D3*
Y54490D3*
Y51950D3*
Y49410D3*
Y46870D3*
M02*
