G04 DipTrace 2.3.1.0*
%INBottomPaste.gbr*%
%MOMM*%
%ADD26C,1.016*%
%ADD30C,0.813*%
%FSLAX53Y53*%
G04*
G71*
G90*
G75*
G01*
%LNBotPaste*%
%LPD*%
D30*
X100805Y50680D3*
Y43060D3*
Y45600D3*
Y48140D3*
Y40520D3*
Y37980D3*
X84930Y50680D3*
Y48140D3*
Y43060D3*
Y40520D3*
Y37980D3*
Y35440D3*
X76675Y36710D3*
Y34170D3*
Y31630D3*
Y29090D3*
Y26550D3*
Y24010D3*
X69053Y26510D3*
X96358Y12540D3*
X56988Y68420D3*
X12538Y86200D3*
X45558Y44290D3*
X20158Y25240D3*
X23333Y27145D3*
X29683Y88105D3*
X27778D3*
Y91915D3*
X29683D3*
X49368Y42385D3*
X30318Y46195D3*
X27778Y29685D3*
Y28415D3*
X29683Y34130D3*
X46828Y50640D3*
X36033Y11270D3*
X37938D3*
X29683D3*
X27778D3*
X11268Y28415D3*
Y40480D3*
X23333Y61435D3*
Y58895D3*
X48098Y11270D3*
X58258D3*
X68418D3*
X78578D3*
X88738D3*
X98898D3*
Y102710D3*
X78578D3*
X68418D3*
X48098D3*
X28413Y53180D3*
Y60165D3*
X22698Y64610D3*
Y93820D3*
X11268Y91280D3*
Y81120D3*
Y70960D3*
Y60800D3*
Y50640D3*
X17618Y11270D3*
X11268Y17620D3*
X32858Y102710D3*
X100168Y95090D3*
X59528Y53815D3*
X56353Y60165D3*
X57623Y29050D3*
X49368Y33495D3*
X54448Y96360D3*
X55083Y73500D3*
X100168Y92550D3*
Y90010D3*
Y87470D3*
Y84930D3*
Y82390D3*
Y79850D3*
Y77310D3*
Y74770D3*
Y72230D3*
X100803Y34130D3*
Y31590D3*
Y29050D3*
Y26510D3*
Y23970D3*
Y21430D3*
Y18890D3*
Y16350D3*
X57623Y31590D3*
X48098Y28415D3*
X49368Y36035D3*
X35398Y27145D3*
X39843Y96360D3*
X28413Y56355D3*
Y63975D3*
X64608Y56990D3*
Y54450D3*
X74768Y55720D3*
X83023D3*
X16348Y102075D3*
X35398Y30955D3*
X20158Y43655D3*
X22063Y44925D3*
X20158Y36670D3*
X29683Y13175D3*
X34763D3*
X103978Y37940D3*
X23333Y77945D3*
Y81755D3*
X20158Y46830D3*
X23333Y84295D3*
X30953Y71595D3*
X34763Y36035D3*
X49368Y30955D3*
X39208Y69690D3*
X20158Y91915D3*
D26*
X42383Y91280D3*
X49862Y76217D3*
X39208Y86200D3*
X30318Y42385D3*
X55718Y57625D3*
X62068Y55720D3*
X46828Y49370D3*
X48098Y53815D3*
X47463Y46830D3*
X13173Y67150D3*
D30*
X22698Y49370D3*
X23333Y47465D3*
D26*
X47463Y23335D3*
X35398Y21430D3*
X59528Y56355D3*
X57623Y54450D3*
X48733Y58260D3*
X54448D3*
X50003Y62070D3*
X23333Y65880D3*
X29048Y76040D3*
X62703Y26510D3*
X13173Y28415D3*
X48098Y38575D3*
X39843Y100170D3*
X63338Y44290D3*
X40478Y68420D3*
X28413Y32860D3*
D30*
X39208Y27145D3*
X100168Y69690D3*
Y67150D3*
Y64610D3*
Y62070D3*
Y57625D3*
Y53815D3*
M02*
