M48
METRIC,0000.00
T01C0.486
T02C0.813
T03C0.9
T04C0.965
T05C1.0
T06C2.8
%
T01
X+010081Y+005068
X+010081Y+004814
X+010081Y+004560
X+010081Y+004306
X+010081Y+004052
X+010081Y+003798
X+010398Y+003794
X+010080Y+003413
X+010080Y+003159
X+010080Y+002905
X+010080Y+002651
X+010080Y+002397
X+010080Y+002143
X+010080Y+001889
X+010080Y+001635
X+009890Y+001127
X+009636Y+001254
X+008874Y+001127
X+007858Y+001127
X+006842Y+001127
X+005826Y+001127
X+004810Y+001127
X+003794Y+001127
X+003603Y+001127
X+003476Y+001318
X+002968Y+001318
X+002968Y+001127
X+002778Y+001127
X+001762Y+001127
X+001127Y+001762
X+001127Y+002842
X+001317Y+002842
X+002016Y+002524
X+002333Y+002715
X+002778Y+002842
X+002778Y+002969
X+002841Y+003286
X+002968Y+003413
X+003476Y+003604
X+003540Y+003096
X+003540Y+002715
X+003921Y+002715
X+003540Y+002143
X+004746Y+002334
X+004810Y+002842
X+004937Y+003096
X+004937Y+003350
X+004937Y+003604
X+004810Y+003858
X+004937Y+004239
X+004556Y+004429
X+004746Y+004683
X+004683Y+004937
X+004683Y+005064
X+004810Y+005382
X+004873Y+005826
X+005000Y+006207
X+005445Y+005826
X+005572Y+005763
X+005635Y+006017
X+005953Y+005636
X+005953Y+005382
X+005762Y+005445
X+006207Y+005572
X+006461Y+005699
X+006461Y+005445
X+007477Y+005572
X+008302Y+005572
X+008493Y+005068
X+008493Y+004814
X+008493Y+004306
X+008493Y+004052
X+008493Y+003798
X+008493Y+003544
X+007668Y+003671
X+007668Y+003417
X+007668Y+003163
X+007668Y+002909
X+007668Y+002655
X+007668Y+002401
X+006905Y+002651
X+006270Y+002651
X+005762Y+002905
X+005762Y+003159
X+006334Y+004429
X+005699Y+006842
X+005508Y+007350
X+004986Y+007622
X+004048Y+006842
X+003921Y+006969
X+003095Y+007160
X+002905Y+007604
X+002333Y+007795
X+002333Y+008176
X+002333Y+008430
X+002778Y+008811
X+002968Y+008811
X+002968Y+009192
X+002778Y+009192
X+002270Y+009382
X+002016Y+009192
X+001127Y+009128
X+001254Y+008620
X+001127Y+008112
X+001127Y+007096
X+001317Y+006715
X+001127Y+006080
X+001127Y+005064
X+002016Y+004683
X+002206Y+004493
X+002016Y+004366
X+002333Y+004747
X+002270Y+004937
X+002841Y+005318
X+002841Y+005636
X+002841Y+006017
X+002841Y+006398
X+002333Y+006588
X+002270Y+006461
X+002333Y+006144
X+002333Y+005890
X+003032Y+004620
X+003032Y+004239
X+002016Y+003667
X+001127Y+004048
X+003921Y+008620
X+004238Y+009128
X+003984Y+009636
X+003984Y+010017
X+003286Y+010271
X+004810Y+010271
X+005445Y+009636
X+006842Y+010271
X+007858Y+010271
X+009890Y+010271
X+010017Y+009509
X+010017Y+009255
X+010017Y+009001
X+010017Y+008747
X+010017Y+008493
X+010017Y+008239
X+010017Y+007985
X+010017Y+007731
X+010017Y+007477
X+010017Y+007223
X+010017Y+006969
X+010017Y+006715
X+010017Y+006461
X+010017Y+006207
X+010017Y+005763
X+010017Y+005382
X+001635Y+010208
T02
X+001889Y+010210
X+002143Y+010210
X+002397Y+010210
X+002397Y+009956
X+002143Y+009956
X+001889Y+009956
T03
X+005191Y+009767
X+005191Y+009513
X+005191Y+009259
X+005191Y+009005
X+005191Y+008751
X+005191Y+008497
X+005191Y+008243
X+005191Y+007989
X+005191Y+007735
X+005191Y+007481
X+005191Y+007227
X+005191Y+006973
X+005191Y+006719
X+005191Y+006465
X+005191Y+006211
X+005191Y+005957
X+004491Y+005957
X+004491Y+005703
X+004491Y+005449
X+004491Y+005195
X+004491Y+004941
X+004491Y+004687
X+005191Y+004687
X+005191Y+004941
X+005191Y+005195
X+005953Y+005195
X+005953Y+004941
X+005953Y+004687
X+005953Y+004433
X+005953Y+004179
X+005953Y+003925
X+005953Y+003671
X+005953Y+003417
X+005953Y+003163
X+005953Y+002909
X+005953Y+002655
X+005953Y+002401
X+005953Y+002147
X+005953Y+001893
X+005953Y+001639
X+005953Y+001385
X+005191Y+001385
X+005191Y+001639
X+005191Y+001893
X+005191Y+002147
X+005191Y+002401
X+005191Y+002655
X+005191Y+002909
X+005191Y+003163
X+005191Y+003417
X+005191Y+003671
X+005191Y+003925
X+005191Y+004179
X+005191Y+004433
X+004491Y+003862
X+004491Y+003608
X+004491Y+003354
X+004491Y+003100
X+004491Y+002846
X+004491Y+002592
X+004491Y+002338
X+004491Y+002084
X+003731Y+002084
X+003731Y+002338
X+003731Y+002592
X+003731Y+002846
X+003731Y+003100
X+003731Y+003354
X+003731Y+003608
X+003731Y+003862
X+003284Y+004243
X+003284Y+004496
X+003284Y+004750
X+003284Y+005005
X+003284Y+005258
X+003284Y+005512
X+003284Y+005767
X+003284Y+006020
X+003284Y+006274
X+003284Y+006528
X+003731Y+006465
X+003731Y+006211
X+003731Y+005957
X+003731Y+005703
X+003731Y+005449
X+003731Y+005195
X+003731Y+004941
X+003731Y+004687
X+002524Y+004750
X+002524Y+004496
X+002524Y+004243
X+002524Y+005005
X+002524Y+005258
X+002524Y+005512
X+002524Y+005767
X+002524Y+006021
X+002524Y+006275
X+002524Y+006529
X+002524Y+007291
X+002524Y+007544
X+002524Y+007798
X+002524Y+008053
X+002524Y+008306
X+002524Y+008560
X+002524Y+008815
X+002524Y+009069
X+002524Y+009323
X+002524Y+009577
X+003284Y+009576
X+003284Y+009322
X+003284Y+009068
X+003284Y+008815
X+003284Y+008560
X+003284Y+008306
X+003284Y+008053
X+003284Y+007798
X+003284Y+007544
X+003284Y+007291
X+003731Y+006973
X+003731Y+006719
X+004491Y+006719
X+004491Y+006973
X+004491Y+006465
X+004491Y+006211
X+005953Y+006211
X+005953Y+005957
X+005953Y+006465
X+005953Y+006719
X+005953Y+006973
X+005953Y+007227
X+005953Y+007481
X+005953Y+007735
X+005953Y+007989
X+005953Y+008243
X+005953Y+008497
X+005953Y+008751
X+005953Y+009005
X+005953Y+009259
X+005953Y+009513
X+005953Y+009767
X+006715Y+009767
X+006715Y+009513
X+006715Y+009259
X+006715Y+009005
X+006715Y+008751
X+006715Y+008497
X+006715Y+008243
X+006715Y+007989
X+006715Y+007735
X+006715Y+007481
X+006715Y+007227
X+006715Y+006973
X+006715Y+006719
X+006715Y+006465
X+006715Y+006211
X+006715Y+005957
X+006715Y+005195
X+006715Y+004941
X+006715Y+004687
X+006715Y+004433
X+006715Y+004179
X+006715Y+003925
X+006715Y+003671
X+006715Y+003417
X+006715Y+003163
X+006715Y+002909
X+006715Y+002655
X+006715Y+002401
X+006715Y+002147
X+006715Y+001893
X+006715Y+001639
X+006715Y+001385
X+007477Y+001385
X+007477Y+001639
X+007477Y+001893
X+007477Y+002147
X+007477Y+002401
X+007477Y+002655
X+007477Y+002909
X+007477Y+003163
X+007477Y+003417
X+007477Y+003671
X+007477Y+003925
X+007477Y+004179
X+007477Y+004433
X+007477Y+004687
X+007477Y+004941
X+007477Y+005195
X+007477Y+005957
X+007477Y+006211
X+007477Y+006465
X+007477Y+006719
X+007477Y+006973
X+007477Y+007227
X+007477Y+007481
X+007477Y+007735
X+007477Y+007989
X+007477Y+008243
X+007477Y+008497
X+007477Y+008751
X+007477Y+009005
X+007477Y+009259
X+007477Y+009513
X+007477Y+009767
X+008303Y+009767
X+008303Y+009513
X+008303Y+009259
X+008303Y+009005
X+008303Y+008751
X+008303Y+008497
X+008303Y+008243
X+008303Y+007989
X+008303Y+007735
X+008303Y+007481
X+008303Y+007227
X+008303Y+006973
X+008303Y+006719
X+008303Y+006465
X+008303Y+006211
X+008303Y+005957
X+008303Y+005195
X+008303Y+004941
X+008303Y+004687
X+008303Y+004433
X+008303Y+004179
X+008303Y+003925
X+008303Y+003671
X+008303Y+003417
X+008303Y+003163
X+008303Y+002909
X+008303Y+002655
X+008303Y+002401
X+008303Y+002147
X+008303Y+001893
X+008303Y+001639
X+008303Y+001385
X+009065Y+001385
X+009065Y+001639
X+009065Y+001893
X+009065Y+002147
X+009065Y+002401
X+009065Y+002655
X+009065Y+002909
X+009065Y+003163
X+009065Y+003417
X+009065Y+003671
X+009065Y+003925
X+009065Y+004179
X+009065Y+004433
X+009065Y+004687
X+009065Y+004941
X+009065Y+005195
X+009065Y+005957
X+009065Y+006211
X+009065Y+006465
X+009065Y+006719
X+009065Y+006973
X+009065Y+007227
X+009065Y+007481
X+009065Y+007735
X+009065Y+007989
X+009065Y+008243
X+009065Y+008497
X+009065Y+008751
X+009065Y+009005
X+009065Y+009259
X+009065Y+009513
X+009065Y+009767
X+009827Y+009767
X+009827Y+009513
X+009827Y+009259
X+009827Y+009005
X+009827Y+008751
X+009827Y+008497
X+009827Y+008243
X+009827Y+007989
X+009827Y+007735
X+009827Y+007481
X+009827Y+007227
X+009827Y+006973
X+009827Y+006719
X+009827Y+006465
X+009827Y+006211
X+009827Y+005957
X+010589Y+005957
X+010589Y+006211
X+010589Y+006465
X+010589Y+006719
X+010589Y+006973
X+010589Y+007227
X+010589Y+007481
X+010589Y+007735
X+010589Y+007989
X+010589Y+008243
X+010589Y+008497
X+010589Y+008751
X+010589Y+009005
X+010589Y+009259
X+010589Y+009513
X+010589Y+009767
X+010589Y+005195
X+010589Y+004941
X+010589Y+004687
X+010589Y+004433
X+010589Y+004179
X+010589Y+003925
X+010589Y+003671
X+010589Y+003417
X+010589Y+003163
X+010589Y+002909
X+010589Y+002655
X+010589Y+002401
X+010589Y+002147
X+010589Y+001893
X+010589Y+001639
X+010589Y+001385
X+009827Y+001385
X+009827Y+001639
X+009827Y+001893
X+009827Y+002147
X+009827Y+002401
X+009827Y+002655
X+009827Y+002909
X+009827Y+003163
X+009827Y+003417
X+009827Y+003671
X+009827Y+003925
X+009827Y+004179
X+009827Y+004433
X+009827Y+004687
X+009827Y+004941
X+009827Y+005195
X+004491Y+007735
X+004491Y+007989
X+004491Y+008243
X+004491Y+008497
X+004491Y+008751
X+004491Y+009005
X+004491Y+009259
X+004491Y+009513
X+004491Y+009767
X+004491Y+010021
X+003731Y+010021
X+003731Y+009767
X+003731Y+009513
X+003731Y+009259
X+003731Y+009005
X+003731Y+008751
X+003731Y+008497
X+003731Y+008243
X+003731Y+007989
X+003731Y+007735
X+003284Y+003480
X+003284Y+003226
X+003284Y+002972
X+003284Y+002719
X+003284Y+002464
X+003284Y+002210
X+003284Y+001957
X+003284Y+001702
X+003284Y+001448
X+003284Y+001195
X+002524Y+001195
X+002524Y+001448
X+002524Y+001702
X+002524Y+001957
X+002524Y+002210
X+002524Y+002464
X+002524Y+002719
X+002524Y+002973
X+002524Y+003227
X+002524Y+003481
T04
X+002778Y+003862
X+003032Y+003862
X+004048Y+004239
X+004302Y+004239
X+006715Y+005576
X+006969Y+005576
X+009065Y+005576
X+009319Y+005576
X+009065Y+010148
X+008811Y+010148
X+005953Y+010148
X+005699Y+010148
X+004810Y+010021
X+004810Y+009767
X+003286Y+009956
X+003032Y+009956
X+003985Y+007354
X+004239Y+007354
X+003032Y+006910
X+002778Y+006910
T05
X+001762Y+009636
X+001762Y+009382
X+001762Y+009128
X+001762Y+008874
X+001762Y+008620
X+001762Y+008366
X+001762Y+008112
X+001762Y+007858
X+001762Y+007604
X+001762Y+007350
X+001762Y+007096
X+001762Y+006842
X+001762Y+006588
X+001762Y+006334
X+001762Y+006080
X+001762Y+005826
X+001762Y+005572
X+001762Y+005318
X+001762Y+005064
X+001762Y+004810
X+001762Y+004556
X+001762Y+004302
X+001762Y+004048
X+001762Y+003794
X+001762Y+003540
X+001762Y+003286
X+001762Y+003032
X+001762Y+002778
X+001762Y+002524
X+001762Y+002270
X+001762Y+002016
X+001762Y+001762
X+001508Y+001762
X+001508Y+002016
X+001508Y+002270
X+001508Y+002524
X+001508Y+002778
X+001508Y+003032
X+001508Y+003286
X+001508Y+003540
X+001508Y+003794
X+001508Y+004048
X+001508Y+004302
X+001508Y+004556
X+001508Y+004810
X+001508Y+005064
X+001508Y+005318
X+001508Y+005572
X+001508Y+005826
X+001508Y+006080
X+001508Y+006334
X+001508Y+006588
X+001508Y+006842
X+001508Y+007096
X+001508Y+007350
X+001508Y+007604
X+001508Y+007858
X+001508Y+008112
X+001508Y+008366
X+001508Y+008620
X+001508Y+008874
X+001508Y+009128
X+001508Y+009382
X+001508Y+009636
T06
X+001254Y+010142
X+001254Y+001252
T00
M30
