M48
INCH
T01C0.0191
T02C0.022
T03C0.0236
T04C0.0276
T05C0.03
T06C0.0315
T07C0.032
T08C0.0354
T09C0.038
T10C0.0394
T11C0.0433
T12C0.0669
T13C0.0709
T14C0.0984
T15C0.1102
T16C0.12
T17C0.15
%
T01
X+086187Y+009437
X+085437Y+009187
X+084187Y+009937
X+082687Y+009187
X+081187Y+009187
X+081437Y+011687
X+081187Y+013187
X+081687Y+014687
X+081187Y+015187
X+082687Y+016937
X+084937Y+016937
X+087687Y+016437
X+087687Y+015187
X+089437Y+016687
X+090437Y+016687
X+093187Y+015687
X+093187Y+013687
X+093187Y+011687
X+093187Y+009687
X+093187Y+007687
X+093187Y+005687
X+090937Y+005687
X+090937Y+004437
X+088937Y+004437
X+086937Y+004437
X+082937Y+004437
X+080937Y+004437
X+078937Y+004437
X+076937Y+004437
X+074937Y+004437
X+072937Y+004437
X+070937Y+004437
X+068937Y+004437
X+064937Y+004437
X+062937Y+004437
X+058937Y+004437
X+056937Y+004437
X+052937Y+004437
X+050937Y+004437
X+048937Y+004437
X+046937Y+004437
X+048187Y+007687
X+047937Y+010687
X+047937Y+011687
X+048187Y+013187
X+049437Y+012687
X+049437Y+013687
X+051937Y+015687
X+052937Y+015687
X+052937Y+016687
X+052187Y+016687
X+053187Y+013937
X+053187Y+013187
X+056187Y+013687
X+057187Y+016187
X+056437Y+016437
X+058687Y+016187
X+061687Y+016187
X+062937Y+014687
X+064187Y+014187
X+065187Y+013187
X+065687Y+013687
X+065437Y+015187
X+064687Y+016187
X+068187Y+015687
X+068437Y+014187
X+068937Y+013687
X+068437Y+012187
X+071187Y+012437
X+070437Y+016687
X+072437Y+016687
X+073937Y+016437
X+075187Y+016437
X+076687Y+016437
X+077937Y+015687
X+077937Y+014187
X+077687Y+013437
X+077187Y+012937
X+077187Y+011937
X+077187Y+010937
X+077937Y+007687
X+084687Y+013187
X+085437Y+013187
X+089187Y+011937
X+089687Y+012437
X+090687Y+011687
X+090187Y+010437
X+090437Y+008687
X+088437Y+009187
X+093187Y+017687
X+093187Y+019687
X+093187Y+021687
X+093187Y+023687
X+093187Y+025687
X+093187Y+027687
X+093187Y+029687
X+093187Y+031687
X+093187Y+033687
X+093187Y+035687
X+093187Y+037687
X+093187Y+039687
X+089687Y+039937
X+088687Y+039937
X+087687Y+039937
X+086687Y+039937
X+085687Y+039937
X+084687Y+039937
X+083687Y+039937
X+082687Y+039937
X+081687Y+040437
X+078437Y+039187
X+078437Y+038687
X+077187Y+039937
X+076187Y+039937
X+075187Y+039937
X+074187Y+039937
X+073187Y+039937
X+072187Y+039937
X+071187Y+039937
X+069687Y+040187
X+069187Y+041437
X+068437Y+039187
X+067187Y+039187
X+065687Y+039937
X+064687Y+039937
X+063687Y+039937
X+062687Y+039937
X+061687Y+039937
X+060687Y+039937
X+059687Y+039937
X+058687Y+039937
X+057437Y+039937
X+055937Y+039937
X+053937Y+039187
X+053187Y+038187
X+051937Y+039937
X+050937Y+039937
X+049937Y+039937
X+048937Y+039937
X+046937Y+039937
X+045937Y+039937
X+044937Y+039937
X+043687Y+038937
X+042437Y+038937
X+041437Y+039687
X+041437Y+040687
X+041187Y+037687
X+035187Y+041687
X+035187Y+042437
X+034687Y+042687
X+034437Y+043187
X+032937Y+043937
X+032937Y+044687
X+032187Y+044437
X+032437Y+042937
X+033937Y+044937
X+035187Y+044937
X+035937Y+047437
X+034187Y+047437
X+032437Y+047437
X+029437Y+045437
X+029937Y+043437
X+029937Y+042187
X+028937Y+040937
X+029187Y+040437
X+029687Y+039937
X+030437Y+037687
X+030937Y+036687
X+030187Y+036437
X+030187Y+035187
X+031437Y+035187
X+031937Y+035187
X+031937Y+036687
X+032187Y+037187
X+033937Y+039687
X+027437Y+037937
X+027187Y+039937
X+026687Y+040687
X+024937Y+041937
X+025437Y+043187
X+026187Y+043187
X+027437Y+043937
X+024437Y+043437
X+023937Y+043687
X+021937Y+043937
X+022437Y+045687
X+024187Y+045687
X+025437Y+049437
X+024687Y+050187
X+023187Y+050187
X+021437Y+050187
X+019687Y+050187
X+019687Y+053187
X+020437Y+053187
X+020437Y+054437
X+018812Y+053562
X+018062Y+054312
X+018437Y+055687
X+017937Y+056437
X+017937Y+057437
X+017937Y+058437
X+014937Y+058187
X+014937Y+059187
X+014937Y+060187
X+014937Y+061187
X+014937Y+062187
X+018437Y+062437
X+018437Y+063437
X+019437Y+063437
X+019437Y+062437
X+020437Y+062437
X+020437Y+063437
X+021437Y+063437
X+021437Y+062437
X+022437Y+062437
X+022437Y+063437
X+023437Y+063437
X+023437Y+062437
X+024437Y+063437
X+025437Y+063437
X+025437Y+062437
X+026437Y+062437
X+026437Y+063437
X+027437Y+063437
X+028437Y+063437
X+028437Y+062437
X+027437Y+062437
X+027437Y+061437
X+028437Y+061437
X+028437Y+060437
X+027437Y+060437
X+026437Y+060437
X+026437Y+061437
X+025437Y+061437
X+025437Y+060437
X+023437Y+060437
X+022437Y+060437
X+022437Y+061437
X+021437Y+061437
X+021437Y+060437
X+018437Y+061437
X+014437Y+057312
X+014687Y+056687
X+014437Y+055937
X+014437Y+054187
X+015937Y+051437
X+015562Y+050687
X+015562Y+049687
X+015562Y+048562
X+015562Y+047562
X+015562Y+046687
X+015562Y+045687
X+015562Y+044812
X+015687Y+043687
X+015437Y+042687
X+015187Y+041687
X+012937Y+039687
X+013687Y+038937
X+015687Y+037687
X+015687Y+036687
X+015687Y+035687
X+013687Y+035687
X+010437Y+033937
X+008687Y+034187
X+008437Y+033437
X+008437Y+032687
X+007937Y+031437
X+007687Y+030687
X+007687Y+029937
X+006937Y+028437
X+005937Y+027437
X+004937Y+026437
X+005937Y+025437
X+004937Y+024437
X+005937Y+023437
X+006937Y+024437
X+006937Y+022437
X+005937Y+021437
X+006937Y+020437
X+005937Y+019437
X+004937Y+018437
X+005937Y+017437
X+004937Y+016437
X+005937Y+015437
X+004937Y+014437
X+005937Y+013437
X+004937Y+012437
X+005937Y+011437
X+007187Y+011437
X+007187Y+010687
X+005937Y+009437
X+006937Y+008437
X+005937Y+007437
X+004937Y+006437
X+005937Y+005437
X+004937Y+004437
X+006937Y+004437
X+008937Y+004437
X+006937Y+006437
X+004937Y+008437
X+004937Y+010437
X+012187Y+012187
X+016687Y+012687
X+017937Y+013937
X+017937Y+014937
X+017937Y+015937
X+017937Y+016937
X+017937Y+017937
X+016937Y+018937
X+017937Y+019937
X+016937Y+020937
X+017437Y+022437
X+019187Y+023437
X+019937Y+023437
X+020437Y+022937
X+019937Y+024187
X+019187Y+024937
X+018437Y+024687
X+018437Y+025437
X+018937Y+025937
X+017687Y+025437
X+017187Y+025937
X+016687Y+026937
X+017437Y+029437
X+016937Y+029937
X+017937Y+030187
X+018437Y+029687
X+018437Y+030687
X+017687Y+031187
X+015937Y+031937
X+014687Y+030687
X+014687Y+030187
X+013937Y+029437
X+013937Y+030937
X+012187Y+030437
X+011687Y+030937
X+011187Y+030187
X+011687Y+029437
X+010187Y+029187
X+009687Y+029187
X+010437Y+031937
X+007937Y+035187
X+007937Y+036187
X+006687Y+037937
X+004437Y+039437
X+004437Y+041437
X+004437Y+043437
X+004437Y+045437
X+004437Y+047437
X+004437Y+049437
X+004937Y+051437
X+004937Y+053437
X+004937Y+055437
X+004937Y+057437
X+004937Y+059437
X+005937Y+060187
X+004937Y+060937
X+006937Y+060937
X+006937Y+063437
X+010187Y+061687
X+010187Y+060687
X+010187Y+059687
X+009437Y+058187
X+009437Y+057187
X+009437Y+056187
X+009437Y+055187
X+009437Y+054187
X+009437Y+052937
X+009437Y+051937
X+009437Y+050937
X+009437Y+049937
X+009437Y+048937
X+009437Y+047937
X+009687Y+046937
X+010937Y+046937
X+010937Y+047937
X+010937Y+048937
X+010937Y+049937
X+010937Y+050937
X+010937Y+051937
X+010937Y+052937
X+010937Y+053937
X+010937Y+056187
X+010937Y+057187
X+010937Y+058187
X+010687Y+044687
X+008187Y+043687
X+009687Y+041187
X+010437Y+038937
X+009687Y+038187
X+017687Y+039437
X+018687Y+039937
X+019437Y+039937
X+019937Y+040187
X+020687Y+040187
X+022187Y+039437
X+023437Y+039937
X+024437Y+039437
X+020687Y+037937
X+019437Y+035687
X+019187Y+032687
X+019687Y+030937
X+019437Y+030187
X+020437Y+029687
X+021437Y+030187
X+021687Y+030687
X+022687Y+030687
X+023437Y+030687
X+023437Y+031687
X+024437Y+031187
X+025187Y+031437
X+025937Y+031437
X+024437Y+032187
X+027437Y+032687
X+028187Y+032687
X+028187Y+031687
X+028937Y+031187
X+029687Y+030687
X+030187Y+031437
X+029187Y+032187
X+026437Y+034937
X+025937Y+026687
X+026437Y+025437
X+026437Y+024437
X+025937Y+023937
X+025437Y+024937
X+024687Y+023437
X+024687Y+022437
X+024687Y+020437
X+024937Y+018437
X+022937Y+018437
X+022937Y+019437
X+020437Y+019437
X+019687Y+019187
X+019937Y+017937
X+019937Y+016937
X+019937Y+015937
X+019937Y+014937
X+019937Y+013937
X+022937Y+010937
X+024437Y+009937
X+025187Y+009937
X+025937Y+009937
X+027187Y+011187
X+026437Y+011687
X+028187Y+011437
X+028687Y+011187
X+028437Y+012437
X+028187Y+013437
X+027937Y+013937
X+027437Y+014937
X+027187Y+015437
X+027187Y+016937
X+027437Y+019437
X+028187Y+020937
X+027937Y+021437
X+028437Y+021937
X+028687Y+022937
X+028437Y+024187
X+027437Y+023937
X+027937Y+025187
X+027937Y+026437
X+028937Y+025937
X+030687Y+024937
X+031437Y+023937
X+030687Y+023437
X+032687Y+022437
X+033187Y+025687
X+032437Y+026437
X+033187Y+026937
X+032437Y+028937
X+030937Y+026687
X+035937Y+027687
X+035937Y+029187
X+038937Y+029187
X+038937Y+027937
X+038437Y+027187
X+038687Y+026687
X+040437Y+026187
X+040687Y+025687
X+040937Y+025187
X+040687Y+027937
X+040687Y+029187
X+044937Y+029187
X+046687Y+029187
X+044937Y+026687
X+048937Y+022687
X+048437Y+022187
X+047937Y+021687
X+046937Y+021187
X+046437Y+020687
X+044687Y+020687
X+044937Y+016437
X+043687Y+014687
X+045187Y+012937
X+047437Y+016687
X+049937Y+023187
X+050687Y+023687
X+051687Y+024187
X+051687Y+028687
X+052437Y+029187
X+050687Y+028687
X+058437Y+024687
X+059437Y+025187
X+060437Y+025687
X+061437Y+026187
X+062437Y+026687
X+063437Y+027187
X+064437Y+027687
X+064937Y+028187
X+065187Y+029187
X+063937Y+029187
X+059437Y+028937
X+065437Y+037687
X+066937Y+043687
X+065937Y+044437
X+064937Y+044437
X+064937Y+049187
X+064937Y+049687
X+064937Y+050187
X+063437Y+050687
X+062437Y+050937
X+060437Y+051062
X+059437Y+051062
X+058937Y+052187
X+058937Y+052937
X+059937Y+052687
X+059937Y+053460
X+059437Y+053937
X+058437Y+054187
X+057437Y+053437
X+056437Y+053937
X+054937Y+054187
X+055187Y+054937
X+053937Y+054187
X+053687Y+054937
X+052937Y+053937
X+053187Y+052687
X+051937Y+052687
X+051437Y+053187
X+050687Y+053437
X+049937Y+054437
X+049437Y+055187
X+048937Y+054437
X+050437Y+055187
X+051437Y+055187
X+051437Y+056187
X+050437Y+056187
X+049437Y+056187
X+049187Y+058687
X+050687Y+058687
X+050687Y+060187
X+050187Y+062187
X+051437Y+063437
X+052937Y+060937
X+054937Y+060937
X+056687Y+060937
X+058187Y+060937
X+059687Y+060937
X+058187Y+059437
X+058437Y+056687
X+059437Y+056687
X+060437Y+056687
X+062437Y+056937
X+063437Y+056937
X+064437Y+056937
X+065437Y+056937
X+069437Y+056937
X+070437Y+056937
X+073437Y+056687
X+074562Y+056687
X+075437Y+056687
X+078437Y+058937
X+079437Y+060687
X+078437Y+061437
X+079437Y+061937
X+080937Y+060437
X+083687Y+059437
X+084187Y+059687
X+084437Y+058687
X+084437Y+057187
X+084437Y+055187
X+084187Y+052437
X+084937Y+051937
X+084687Y+049687
X+084937Y+047187
X+086437Y+046687
X+087187Y+044687
X+085187Y+044687
X+083187Y+044687
X+082937Y+047187
X+081187Y+048187
X+079937Y+047687
X+079937Y+049437
X+078937Y+049437
X+075937Y+049437
X+075187Y+049437
X+074437Y+049187
X+073437Y+049187
X+073687Y+050937
X+072437Y+050687
X+071437Y+050687
X+070187Y+051437
X+069187Y+051937
X+069437Y+049437
X+068437Y+049437
X+067437Y+049437
X+066937Y+050187
X+065937Y+052437
X+064187Y+052937
X+063187Y+053437
X+062437Y+053187
X+061937Y+053937
X+060937Y+053937
X+057437Y+056687
X+056437Y+056187
X+055437Y+056437
X+054437Y+056437
X+052937Y+056187
X+052437Y+055687
X+050437Y+052187
X+049937Y+051687
X+048687Y+051937
X+046437Y+051937
X+045687Y+052937
X+046187Y+053937
X+046187Y+054937
X+042937Y+054687
X+041937Y+054687
X+039937Y+055687
X+039187Y+054937
X+038187Y+054687
X+037937Y+055437
X+036687Y+054687
X+035187Y+054687
X+033687Y+053187
X+034937Y+052437
X+036437Y+052437
X+037687Y+051187
X+038687Y+050187
X+039937Y+048937
X+040437Y+048437
X+038937Y+047437
X+041687Y+051937
X+038437Y+053687
X+038187Y+057187
X+038937Y+057937
X+039687Y+058687
X+039687Y+059687
X+040687Y+059687
X+041687Y+059187
X+041187Y+058437
X+040437Y+057687
X+040437Y+056687
X+041687Y+060437
X+043437Y+061437
X+044187Y+060437
X+045687Y+060437
X+047437Y+060437
X+047437Y+058687
X+044187Y+058687
X+043437Y+063437
X+040437Y+063437
X+040437Y+062437
X+039437Y+062437
X+039437Y+063437
X+038437Y+063437
X+037437Y+063437
X+036437Y+063437
X+036437Y+062437
X+035437Y+062437
X+035437Y+063437
X+034437Y+063437
X+033437Y+063437
X+033437Y+062437
X+032437Y+062437
X+032437Y+063437
X+031437Y+063437
X+031437Y+062437
X+030437Y+062437
X+030437Y+063437
X+029437Y+063437
X+029437Y+062437
X+029437Y+061437
X+030437Y+061437
X+030437Y+060437
X+029437Y+060437
X+031437Y+060437
X+032437Y+060437
X+033437Y+060437
X+034187Y+059937
X+035437Y+061437
X+032437Y+061437
X+031437Y+061437
X+035687Y+057187
X+033437Y+051687
X+029437Y+050437
X+027937Y+051937
X+026437Y+053437
X+025437Y+053437
X+025437Y+054437
X+024437Y+054437
X+024437Y+055437
X+027187Y+049437
X+028187Y+048437
X+018937Y+041937
X+019937Y+026937
X+020687Y+025437
X+022937Y+024937
X+022937Y+023687
X+022437Y+022187
X+022937Y+026437
X+027187Y+021437
X+031687Y+017937
X+032437Y+015687
X+031687Y+015437
X+030937Y+014687
X+030687Y+013437
X+030937Y+011937
X+032937Y+011937
X+032937Y+010687
X+032937Y+009937
X+033187Y+007937
X+032437Y+007937
X+032937Y+004437
X+035937Y+004437
X+038187Y+006687
X+040937Y+007187
X+041437Y+004437
X+038437Y+011937
X+038187Y+014187
X+038187Y+015187
X+037437Y+016187
X+036937Y+016687
X+036437Y+017187
X+036187Y+017687
X+036937Y+018187
X+037687Y+018687
X+036187Y+015687
X+040687Y+013437
X+027687Y+007687
X+026937Y+007687
X+025687Y+007687
X+023687Y+007687
X+023687Y+009187
X+024937Y+012937
X+024937Y+015437
X+019687Y+008937
X+017937Y+008937
X+016937Y+006437
X+015937Y+005437
X+014937Y+004437
X+013937Y+005437
X+014937Y+006437
X+016937Y+004437
X+018937Y+004437
X+020937Y+004437
X+022937Y+004437
X+014937Y+016937
X+014937Y+017937
X+014937Y+018937
X+013187Y+021437
X+012187Y+023187
X+010937Y+020937
X+004937Y+020437
X+004937Y+022437
X+006937Y+026437
X+004937Y+028437
X+046687Y+044187
X+047187Y+043937
X+047687Y+044187
X+048187Y+044437
X+048937Y+044687
X+049937Y+043937
X+050687Y+043937
X+054187Y+043687
X+054937Y+043687
X+054687Y+044437
X+058187Y+044437
X+058937Y+047687
X+057437Y+051062
X+056437Y+052187
X+055187Y+051062
X+052187Y+051187
X+050937Y+050437
X+049937Y+049687
X+048687Y+047437
X+046437Y+047687
X+045687Y+046937
X+046937Y+063437
X+055937Y+063187
X+058437Y+063187
X+060437Y+063187
X+062437Y+063187
X+064437Y+063187
X+065437Y+060937
X+066437Y+060937
X+067437Y+060937
X+068437Y+060937
X+069937Y+061687
X+071937Y+063187
X+073437Y+063187
X+073687Y+060937
X+075437Y+061687
X+076437Y+060687
X+076937Y+061187
X+072437Y+059437
X+062937Y+060687
X+061437Y+059437
X+070437Y+049437
X+070687Y+044187
X+071687Y+044187
X+072687Y+044187
X+073687Y+044187
X+074187Y+044937
X+074687Y+044187
X+075187Y+044937
X+075687Y+044187
X+077187Y+043687
X+077937Y+043937
X+077437Y+044437
X+078687Y+044187
X+083437Y+036687
X+085187Y+037187
X+086687Y+035687
X+087687Y+035187
X+088687Y+036187
X+089187Y+034687
X+086437Y+033687
X+084937Y+034187
X+084937Y+028937
X+083437Y+028937
X+088937Y+028937
X+090187Y+028937
X+089187Y+043687
X+090187Y+044687
X+091437Y+045187
X+093187Y+045187
X+093187Y+047187
X+093187Y+049187
X+093187Y+051187
X+093187Y+053187
X+093187Y+055187
X+093187Y+057187
X+093187Y+059187
X+089937Y+059687
X+089937Y+061437
X+088687Y+056187
X+090187Y+055437
X+089437Y+053437
X+088687Y+052187
X+090187Y+048187
X+074687Y+033187
X+074937Y+032687
X+074187Y+032187
X+074687Y+031687
X+074187Y+030687
X+073687Y+031187
X+073187Y+030187
X+074187Y+029687
X+074437Y+028937
X+071437Y+028937
X+064187Y+012187
X+063687Y+011687
X+062937Y+011687
X+062937Y+010687
X+062437Y+009687
X+061687Y+010687
X+058687Y+010687
X+057187Y+010687
X+056437Y+010687
X+065687Y+010687
X+065687Y+007687
T02
X+070187Y+059437
X+071187Y+059437
X+071187Y+062437
X+070187Y+062437
X+087187Y+062437
X+087187Y+063187
X+090187Y+063187
X+090187Y+062437
X+091937Y+055437
X+091937Y+052437
X+091937Y+051687
X+091937Y+048687
X+052437Y+062437
X+052437Y+063187
X+049437Y+063187
X+049437Y+062437
X+037687Y+050187
X+034687Y+050187
X+030687Y+050437
X+027687Y+050437
X+015687Y+038937
X+012687Y+038937
X+011937Y+035687
X+014937Y+035687
X+011687Y+062687
X+008687Y+062687
T03
X+012687Y+040937
X+013687Y+040937
X+056687Y+059437
X+059687Y+059437
X+059687Y+062437
X+056687Y+062437
X+091937Y+047937
X+091937Y+046937
T04
X+048937Y+060937
X+049437Y+060937
X+049937Y+060937
X+048187Y+062187
X+048187Y+062687
X+048187Y+063187
X+033937Y+050687
X+033437Y+050687
X+032937Y+050687
T05
X+075937Y+058437
X+074937Y+058437
X+073937Y+058437
X+072937Y+058437
X+071937Y+058437
X+086937Y+053687
X+086937Y+052687
X+086937Y+051687
X+086937Y+050687
X+086937Y+049687
X+081937Y+036687
X+081937Y+035687
X+081937Y+034687
X+081937Y+033687
X+081937Y+032687
X+081937Y+031687
X+081937Y+030687
X+081937Y+029687
X+081937Y+028687
X+069437Y+029187
X+069437Y+030187
X+069437Y+031187
X+069437Y+032187
X+069437Y+033187
X+069437Y+034187
X+069437Y+035187
X+069437Y+036187
X+069437Y+037187
X+072187Y+011937
X+073187Y+011937
X+074187Y+011937
X+075187Y+011937
X+076187Y+011937
X+075687Y+006687
X+074687Y+006687
X+073687Y+006687
X+072687Y+006687
X+071687Y+006687
X+051187Y+008687
X+051187Y+009687
X+051187Y+010687
X+051187Y+011687
X+051187Y+012687
X+051187Y+013687
X+051187Y+014687
X+051187Y+015687
X+051187Y+016687
X+044687Y+015437
X+044687Y+014437
X+044687Y+013437
X+044687Y+012437
X+044687Y+011437
X+044687Y+010437
X+044687Y+009437
X+044687Y+008437
X+044687Y+007437
X+015187Y+008937
X+014187Y+008937
X+013187Y+008937
X+012187Y+008937
X+011187Y+008937
X+012687Y+044187
X+012687Y+045187
X+012687Y+046187
X+012687Y+047187
X+012687Y+048187
X+012687Y+049187
X+012687Y+050187
X+012687Y+051187
X+012687Y+052187
X+012687Y+054687
X+012687Y+055687
X+012687Y+056687
X+012687Y+057687
X+012687Y+058687
X+012687Y+059687
X+012687Y+060687
X+012687Y+061687
X+012687Y+062687
T06
X+033437Y+054937
X+034829Y+053545
X+041246Y+055437
X+041246Y+057484
X+043687Y+057484
X+043687Y+055437
T07
X+018437Y+035937
X+020337Y+035937
X+021937Y+036937
X+021937Y+037937
T08
X+037187Y+039437
X+037187Y+040437
X+037187Y+041945
X+036187Y+041945
X+038187Y+041945
X+039187Y+041945
X+040187Y+041945
X+041187Y+041945
X+042187Y+041945
X+043187Y+041945
X+044937Y+041187
X+045937Y+041187
X+046937Y+041187
X+047937Y+041187
X+048937Y+041187
X+049937Y+041187
X+050937Y+041187
X+051937Y+041187
X+051937Y+042687
X+050937Y+042687
X+049937Y+042687
X+048937Y+042687
X+047937Y+042687
X+046937Y+042687
X+045937Y+042687
X+045937Y+045687
X+046937Y+045687
X+047937Y+045687
X+048937Y+045687
X+049937Y+045687
X+050937Y+045687
X+051937Y+045687
X+052937Y+045687
X+053937Y+045687
X+054937Y+045687
X+054937Y+048437
X+053937Y+048437
X+052937Y+048437
X+051937Y+048437
X+050937Y+048437
X+049937Y+048437
X+048937Y+048437
X+047687Y+048437
X+047687Y+047437
X+047687Y+049437
X+047687Y+050437
X+047687Y+051437
X+047687Y+052437
X+047687Y+053437
X+047687Y+054437
X+047687Y+055437
X+047687Y+056437
X+048937Y+057437
X+049937Y+057437
X+050937Y+057437
X+051937Y+057437
X+052937Y+057437
X+053937Y+057437
X+054937Y+057437
X+055937Y+057437
X+056937Y+057437
X+057937Y+057437
X+058937Y+057437
X+059937Y+057437
X+060937Y+057437
X+061937Y+057437
X+062937Y+057437
X+063937Y+057437
X+064937Y+057437
X+065937Y+057437
X+066937Y+057437
X+067937Y+057437
X+068937Y+057437
X+069937Y+057437
X+070937Y+057437
X+071937Y+057437
X+072937Y+057437
X+073937Y+057437
X+074937Y+057437
X+075937Y+057437
X+076937Y+057437
X+077937Y+057437
X+078937Y+057437
X+079937Y+057437
X+079937Y+059437
X+078937Y+059437
X+077937Y+059437
X+076937Y+059437
X+075937Y+059437
X+074937Y+059437
X+073937Y+059437
X+073937Y+062437
X+074937Y+062437
X+075937Y+062437
X+076937Y+062437
X+077937Y+062437
X+078937Y+062437
X+079937Y+062437
X+081687Y+062437
X+081687Y+061437
X+082687Y+061437
X+083687Y+061437
X+083687Y+062437
X+082687Y+062437
X+084687Y+062437
X+084687Y+061437
X+085937Y+059687
X+085937Y+058687
X+085937Y+057687
X+085937Y+056687
X+085937Y+055687
X+085937Y+054687
X+085937Y+053687
X+085937Y+052687
X+085937Y+051687
X+085937Y+050687
X+085937Y+049687
X+085937Y+048687
X+087937Y+048687
X+087937Y+049687
X+087937Y+050687
X+087937Y+051687
X+087937Y+052687
X+087937Y+053687
X+087937Y+054687
X+087937Y+055687
X+087937Y+056687
X+087937Y+057687
X+087937Y+058687
X+090937Y+058687
X+090937Y+057687
X+090937Y+056687
X+090937Y+055687
X+090937Y+054687
X+090937Y+053687
X+090937Y+052687
X+090937Y+051687
X+090937Y+050687
X+090937Y+049687
X+090937Y+048687
X+090937Y+047687
X+090187Y+045687
X+089187Y+045687
X+088187Y+045687
X+087187Y+045687
X+086187Y+045687
X+085187Y+045687
X+084187Y+045687
X+083187Y+045687
X+082187Y+045687
X+081187Y+045687
X+078687Y+045687
X+077687Y+045687
X+076687Y+045687
X+075687Y+045687
X+074687Y+045687
X+073687Y+045687
X+072687Y+045687
X+071687Y+045687
X+070687Y+045687
X+069687Y+045687
X+066937Y+045687
X+065937Y+045687
X+064937Y+045687
X+063937Y+045687
X+062937Y+045687
X+061937Y+045687
X+060937Y+045687
X+059937Y+045687
X+058937Y+045687
X+057937Y+045687
X+057937Y+048437
X+056937Y+048437
X+055937Y+048437
X+058937Y+048437
X+059937Y+048437
X+060937Y+048437
X+061937Y+048437
X+062937Y+048437
X+063937Y+048437
X+064937Y+048437
X+065937Y+048437
X+066937Y+048437
X+067937Y+048437
X+068937Y+048437
X+069937Y+048437
X+070937Y+048437
X+071937Y+048437
X+072937Y+048437
X+073937Y+048437
X+074937Y+048437
X+075937Y+048437
X+076937Y+048437
X+077937Y+048437
X+078937Y+048437
X+079937Y+048437
X+082937Y+048687
X+082937Y+049687
X+082937Y+050687
X+082937Y+051687
X+082937Y+052687
X+082937Y+053687
X+082937Y+054687
X+082937Y+055687
X+082937Y+056687
X+082937Y+057687
X+082937Y+058687
X+082937Y+059687
X+090937Y+059937
X+090937Y+060937
X+087937Y+047687
X+088187Y+042687
X+087187Y+042687
X+086187Y+042687
X+085187Y+042687
X+084187Y+042687
X+083187Y+042687
X+082187Y+042687
X+081187Y+042687
X+082687Y+041179
X+083687Y+041179
X+084687Y+041179
X+085687Y+041179
X+086687Y+041179
X+087687Y+041179
X+088687Y+041179
X+089687Y+041179
X+089187Y+042687
X+090187Y+042687
X+089687Y+038187
X+088687Y+038187
X+087687Y+038187
X+086687Y+038187
X+085687Y+038187
X+084687Y+038187
X+083687Y+038187
X+082687Y+038187
X+077187Y+038187
X+076187Y+038187
X+075187Y+038187
X+074187Y+038187
X+073187Y+038187
X+072187Y+038187
X+071187Y+038187
X+070187Y+038187
X+070187Y+041179
X+071187Y+041179
X+072187Y+041179
X+073187Y+041179
X+074187Y+041179
X+075187Y+041179
X+076187Y+041179
X+077187Y+041179
X+076687Y+042687
X+075687Y+042687
X+074687Y+042687
X+073687Y+042687
X+072687Y+042687
X+071687Y+042687
X+070687Y+042687
X+069687Y+042687
X+066937Y+042687
X+065937Y+042687
X+064937Y+042687
X+063937Y+042687
X+062937Y+042687
X+061937Y+042687
X+060937Y+042687
X+059937Y+042687
X+058937Y+042687
X+057937Y+042687
X+057687Y+041187
X+058687Y+041187
X+059687Y+041187
X+060687Y+041187
X+061687Y+041187
X+062687Y+041187
X+063687Y+041187
X+064687Y+041187
X+064687Y+038195
X+063687Y+038195
X+062687Y+038195
X+061687Y+038195
X+060687Y+038195
X+059687Y+038195
X+058687Y+038195
X+057687Y+038195
X+054937Y+042687
X+053937Y+042687
X+052937Y+042687
X+051937Y+038195
X+050937Y+038195
X+049937Y+038195
X+048937Y+038195
X+047937Y+038195
X+046937Y+038195
X+045937Y+038195
X+044937Y+038195
X+040187Y+040437
X+039187Y+040437
X+039187Y+044937
X+038187Y+044937
X+037187Y+044937
X+036187Y+044937
X+035687Y+046187
X+034687Y+046187
X+033687Y+046187
X+032687Y+046187
X+031687Y+046187
X+029937Y+044687
X+028937Y+044687
X+027937Y+044687
X+026937Y+044687
X+025937Y+044687
X+024937Y+044687
X+023937Y+044687
X+022937Y+044687
X+021937Y+044687
X+020937Y+044687
X+019937Y+044687
X+018937Y+044687
X+016687Y+044187
X+016687Y+045187
X+016687Y+046187
X+016687Y+047187
X+016687Y+048187
X+016687Y+049187
X+016687Y+050187
X+016687Y+051187
X+016687Y+053687
X+016687Y+054687
X+016687Y+055687
X+016687Y+056687
X+016687Y+057687
X+016687Y+058687
X+016687Y+059687
X+016687Y+060687
X+016687Y+061687
X+016687Y+062687
X+013687Y+062687
X+013687Y+061687
X+013687Y+060687
X+013687Y+059687
X+013687Y+058687
X+013687Y+057687
X+013687Y+056687
X+013687Y+055687
X+013687Y+054687
X+013687Y+053687
X+011687Y+053437
X+011687Y+052437
X+011687Y+051437
X+011687Y+050437
X+011687Y+049437
X+011687Y+048437
X+011687Y+047437
X+011687Y+046437
X+011687Y+045187
X+011687Y+044187
X+011687Y+043187
X+011687Y+042187
X+011687Y+041187
X+011687Y+040187
X+011687Y+039187
X+011687Y+038187
X+009687Y+036687
X+009687Y+035687
X+009687Y+034687
X+009687Y+033687
X+009687Y+032687
X+009687Y+031687
X+009687Y+030687
X+006687Y+030687
X+006687Y+031687
X+006687Y+032687
X+006687Y+033687
X+006687Y+034687
X+006687Y+035687
X+006687Y+036687
X+005687Y+036437
X+004687Y+036437
X+004687Y+035437
X+005687Y+035437
X+005687Y+034437
X+004687Y+034437
X+004687Y+033437
X+005687Y+033437
X+005687Y+032437
X+004687Y+032437
X+004773Y+031101
X+005480Y+030394
X+006187Y+029687
X+011937Y+028437
X+012937Y+028437
X+013937Y+028437
X+014937Y+028437
X+015937Y+028437
X+016937Y+028437
X+017937Y+028437
X+018937Y+028437
X+019937Y+028437
X+020937Y+028437
X+021937Y+028437
X+022937Y+028437
X+023937Y+028437
X+024937Y+028437
X+025937Y+028437
X+026937Y+028437
X+027937Y+028437
X+028937Y+028437
X+029937Y+028437
X+030937Y+028437
X+029937Y+026437
X+029937Y+025437
X+029937Y+024437
X+029937Y+023437
X+029937Y+022437
X+029937Y+021437
X+029937Y+020437
X+029937Y+019437
X+029937Y+018437
X+029937Y+017437
X+029937Y+016437
X+029937Y+015437
X+029937Y+014437
X+029937Y+013437
X+029937Y+012437
X+029937Y+011437
X+028187Y+008429
X+027187Y+008429
X+026187Y+008429
X+025187Y+008429
X+024187Y+008429
X+023187Y+008429
X+022187Y+008429
X+022187Y+005437
X+023187Y+005437
X+024187Y+005437
X+025187Y+005437
X+026187Y+005437
X+027187Y+005437
X+028187Y+005437
X+029687Y+005437
X+030687Y+005437
X+036945Y+006187
X+036945Y+007187
X+036945Y+008187
X+036945Y+009187
X+036945Y+010187
X+036945Y+011187
X+036945Y+012187
X+036945Y+013187
X+036945Y+014187
X+036945Y+015187
X+039937Y+015187
X+039937Y+014187
X+039937Y+013187
X+039937Y+012187
X+039937Y+011187
X+039937Y+010187
X+039937Y+009187
X+039937Y+008187
X+039937Y+007187
X+039937Y+006187
X+047187Y+007687
X+047187Y+008687
X+047187Y+009687
X+047187Y+010687
X+047187Y+011687
X+047187Y+012687
X+047187Y+013687
X+047187Y+014687
X+050187Y+014687
X+050187Y+013687
X+050187Y+012687
X+050187Y+011687
X+050187Y+010687
X+050187Y+009687
X+050187Y+008687
X+050187Y+007687
X+047937Y+005937
X+047937Y+004937
X+069687Y+007937
X+070687Y+007937
X+071687Y+007937
X+072687Y+007937
X+073687Y+007937
X+074687Y+007937
X+075687Y+007937
X+075687Y+010937
X+074687Y+010937
X+073687Y+010937
X+072687Y+010937
X+071687Y+010937
X+070687Y+010937
X+069687Y+010937
X+082187Y+011187
X+083187Y+011187
X+084187Y+011187
X+085187Y+011187
X+086187Y+011187
X+087187Y+011187
X+088187Y+011187
X+089187Y+011187
X+089187Y+008195
X+088187Y+008195
X+087187Y+008195
X+086187Y+008195
X+085187Y+008195
X+084187Y+008195
X+083187Y+008195
X+082187Y+008195
X+078687Y+042687
X+077687Y+042687
X+069937Y+058437
X+068937Y+058437
X+068937Y+059437
X+067937Y+059437
X+066937Y+059437
X+065937Y+059437
X+064937Y+059437
X+063937Y+059437
X+062937Y+059437
X+062937Y+062437
X+063937Y+062437
X+064937Y+062437
X+065937Y+062437
X+066937Y+062437
X+067937Y+062437
X+068937Y+062437
X+054937Y+061687
X+053937Y+061687
X+052937Y+061687
X+051937Y+061687
X+051937Y+058687
X+052937Y+058687
X+053937Y+058687
X+054937Y+058687
X+044687Y+056437
X+044687Y+055437
X+044687Y+054437
X+044687Y+053437
X+044687Y+052437
X+044687Y+051437
X+044687Y+050437
X+044687Y+049437
X+044687Y+048437
X+044687Y+047437
X+043187Y+044937
X+042187Y+044937
X+041187Y+044937
X+040187Y+044937
X+037687Y+046187
X+036687Y+046187
X+036687Y+049187
X+037687Y+049187
X+035687Y+049187
X+034687Y+049187
X+033687Y+049187
X+032687Y+049187
X+031687Y+049187
X+035937Y+051687
X+036937Y+051687
X+036687Y+055937
X+038656Y+055937
X+038437Y+061187
X+040406Y+061187
X+042687Y+061187
X+042687Y+062187
X+042687Y+063187
X+026421Y+051953
X+024453Y+051953
X+022187Y+051937
X+020219Y+051937
X+019187Y+054937
X+019187Y+056906
X+023437Y+056687
X+023437Y+054719
X+013687Y+051187
X+013687Y+050187
X+013687Y+049187
X+013687Y+048187
X+013687Y+047187
X+013687Y+046187
X+013687Y+045187
X+013687Y+044187
X+013687Y+043187
X+013687Y+042187
X+016687Y+042187
X+016687Y+043187
X+018937Y+038687
X+019937Y+038687
X+020937Y+038687
X+021937Y+038687
X+022937Y+038687
X+023937Y+038687
X+024187Y+037937
X+024937Y+038687
X+025937Y+038687
X+026937Y+038687
X+027937Y+038687
X+028937Y+038687
X+029937Y+038687
X+031437Y+041937
X+031437Y+042937
X+030937Y+034437
X+029937Y+034437
X+028937Y+034437
X+027937Y+034437
X+026937Y+034437
X+025937Y+034437
X+024937Y+034437
X+023937Y+034437
X+022937Y+034437
X+021937Y+034437
X+020937Y+034437
X+019937Y+034437
X+018937Y+034437
X+017937Y+034437
X+016937Y+034437
X+015937Y+034437
X+014937Y+034437
X+013937Y+034437
X+012937Y+034437
X+011937Y+034437
X+008687Y+038187
X+008687Y+039187
X+008687Y+040187
X+008687Y+041187
X+008687Y+042187
X+008687Y+043187
X+008687Y+044187
X+008687Y+045187
X+008695Y+046437
X+008695Y+047437
X+008695Y+048437
X+008695Y+049437
X+008695Y+050437
X+008695Y+051437
X+008695Y+052437
X+008695Y+053437
X+008695Y+054687
X+008695Y+055687
X+008695Y+056687
X+008695Y+057687
X+008695Y+058687
X+008695Y+059687
X+008695Y+060687
X+008695Y+061687
X+011687Y+061687
X+011687Y+060687
X+011687Y+059687
X+011687Y+058687
X+011687Y+057687
X+011687Y+056687
X+011687Y+055687
X+011687Y+054687
X+005687Y+037437
X+004687Y+037437
X+011437Y+026437
X+011437Y+025437
X+011437Y+024437
X+011437Y+023437
X+011437Y+022437
X+011437Y+021437
X+011437Y+020437
X+011437Y+019437
X+011437Y+018437
X+011437Y+017437
X+011437Y+016437
X+011437Y+015437
X+012187Y+014187
X+012187Y+013187
X+010687Y+012687
X+010687Y+011687
X+011937Y+011187
X+011937Y+010187
X+013937Y+011187
X+013937Y+012187
X+013937Y+013687
X+014937Y+013687
X+015687Y+013437
X+015687Y+014437
X+015687Y+015437
X+015687Y+016437
X+015687Y+017437
X+015687Y+018437
X+015687Y+019437
X+015687Y+020437
X+015687Y+021437
X+015687Y+022437
X+015687Y+023437
X+015687Y+024437
X+015687Y+025437
X+015687Y+026437
X+014437Y+026437
X+014437Y+025437
X+014437Y+024437
X+014437Y+023437
X+014437Y+022437
X+014437Y+021437
X+014437Y+020437
X+014437Y+019437
X+014437Y+018437
X+014437Y+017437
X+014437Y+016437
X+014437Y+015437
X+015687Y+012437
X+015687Y+011437
X+017937Y+006187
X+017937Y+005187
X+021687Y+011437
X+021687Y+012437
X+021687Y+013437
X+021687Y+014437
X+021687Y+015437
X+021687Y+016437
X+021687Y+017437
X+021687Y+018437
X+021687Y+019437
X+021687Y+020437
X+021687Y+021437
X+021687Y+022437
X+021687Y+023437
X+021687Y+024437
X+021687Y+025437
X+021687Y+026437
X+023937Y+026437
X+023937Y+025437
X+023937Y+024437
X+023937Y+023437
X+023937Y+022437
X+023937Y+021437
X+023937Y+020437
X+023937Y+019437
X+023937Y+018437
X+023937Y+017437
X+023937Y+016437
X+023937Y+015437
X+023937Y+014437
X+023937Y+013437
X+023937Y+012437
X+023937Y+011437
X+009187Y+011187
X+009187Y+010187
X+009187Y+009187
X+009187Y+008187
X+008187Y+008687
X+008187Y+009687
X+008187Y+010687
X+008187Y+011687
X+009187Y+012187
X+009187Y+020437
X+009187Y+021437
X+009187Y+022437
X+009187Y+023437
X+009187Y+024437
X+008187Y+023937
X+008187Y+022937
X+008187Y+021937
X+008187Y+020937
X+019437Y+036937
X+023187Y+036937
T09
X+064937Y+058437
X+063937Y+058437
X+066437Y+058437
X+067437Y+058437
X+072187Y+060937
X+072187Y+061937
X+061437Y+062437
X+061437Y+061437
X+054687Y+062937
X+053687Y+062937
X+041187Y+052937
X+040480Y+052230
X+039480Y+052980
X+040187Y+053687
X+032187Y+053187
X+032187Y+054187
X+031937Y+057937
X+032937Y+057937
X+027687Y+054687
X+026687Y+054687
X+026437Y+058187
X+025437Y+058187
X+023937Y+058187
X+022937Y+058187
X+014937Y+052437
X+013937Y+052437
X+006937Y+052187
X+005937Y+052187
X+005937Y+051187
X+005937Y+050187
X+005937Y+049187
X+005937Y+048187
X+005937Y+047187
X+005937Y+046187
X+005937Y+045187
X+005937Y+044187
X+005937Y+043187
X+005937Y+042187
X+006937Y+042187
X+006937Y+043187
X+006937Y+044187
X+006937Y+045187
X+006937Y+046187
X+006937Y+047187
X+006937Y+048187
X+006937Y+049187
X+006937Y+050187
X+006937Y+051187
X+006937Y+053187
X+005937Y+053187
X+005937Y+054187
X+005937Y+055187
X+005937Y+056187
X+005937Y+057187
X+006937Y+057187
X+006937Y+056187
X+006937Y+055187
X+006937Y+054187
X+006937Y+058187
X+006937Y+059187
X+005937Y+059187
X+005937Y+058187
X+005937Y+041187
X+005937Y+040187
X+006937Y+040187
X+006937Y+041187
X+010687Y+036687
X+010687Y+035687
X+012437Y+036687
X+013437Y+036687
X+013187Y+037937
X+014187Y+037937
X+015187Y+039937
X+015187Y+040937
X+017437Y+037687
X+018437Y+037687
X+022687Y+035937
X+023687Y+035937
X+031437Y+039437
X+031437Y+040437
X+038937Y+038687
X+039937Y+038687
X+044437Y+044687
X+044437Y+045687
X+056437Y+044687
X+056437Y+043687
X+056687Y+041937
X+056687Y+040937
X+056687Y+039187
X+056687Y+038187
X+056937Y+028937
X+057937Y+028937
X+069187Y+038437
X+069187Y+039437
X+068437Y+042187
X+068437Y+043187
X+068437Y+044687
X+068437Y+045687
X+067937Y+047187
X+068937Y+047187
X+065687Y+047187
X+064687Y+047187
X+079937Y+046187
X+079937Y+045187
X+080187Y+041937
X+079187Y+041937
X+081687Y+039187
X+081687Y+038187
X+076937Y+028937
X+075937Y+028937
X+091437Y+042187
X+091437Y+043187
X+092687Y+043187
X+092687Y+042187
X+091937Y+057687
X+091937Y+058687
X+088437Y+061437
X+087437Y+061437
X+085937Y+061437
X+085937Y+062437
X+076937Y+007687
X+076937Y+006687
X+081687Y+006937
X+081687Y+005937
X+082937Y+005937
X+082937Y+006937
X+087187Y+006937
X+087187Y+005937
X+088437Y+005937
X+088437Y+006937
X+089687Y+006937
X+089687Y+005937
X+070437Y+006687
X+069437Y+006687
X+064687Y+007187
X+064687Y+006187
X+063437Y+006187
X+063437Y+007187
X+057937Y+007187
X+057937Y+006187
X+056687Y+006187
X+056687Y+007187
X+046187Y+005937
X+045187Y+005937
X+045187Y+004687
X+046187Y+004687
X+038687Y+004937
X+037687Y+004937
X+031937Y+004937
X+031937Y+005937
X+031437Y+007937
X+030437Y+007937
X+022937Y+009687
X+021937Y+009687
X+020687Y+005437
X+019687Y+005437
X+016937Y+010187
X+015937Y+010187
X+010437Y+018437
X+010437Y+019437
X+048687Y+015937
X+049687Y+015937
T10
X+019937Y+045687
X+018937Y+045687
X+028937Y+053437
X+030937Y+053437
X+031687Y+051187
X+031687Y+050187
X+033937Y+038187
X+033937Y+037187
X+033937Y+036187
X+033937Y+035187
X+033937Y+034187
X+033937Y+033187
X+033937Y+032187
X+033937Y+031187
X+033937Y+030187
X+033937Y+029187
X+033937Y+028187
X+033937Y+027187
X+033937Y+026187
X+033937Y+025187
X+033937Y+024187
X+033937Y+023187
X+033937Y+022187
X+033937Y+021187
X+033937Y+020187
X+033937Y+019187
X+033937Y+018187
X+033937Y+017187
X+033937Y+016187
X+033937Y+015187
X+033937Y+014187
X+033937Y+013187
X+033937Y+012187
X+033937Y+011187
X+033937Y+010187
X+033937Y+009187
X+034937Y+009187
X+034937Y+008187
X+034937Y+007187
X+033937Y+007187
X+033937Y+008187
X+034937Y+010187
X+034937Y+011187
X+034937Y+012187
X+034937Y+013187
X+034937Y+014187
X+034937Y+015187
X+034937Y+016187
X+034937Y+017187
X+034937Y+018187
X+034937Y+019187
X+034937Y+020187
X+034937Y+021187
X+034937Y+022187
X+034937Y+023187
X+034937Y+024187
X+034937Y+025187
X+034937Y+026187
X+034937Y+027187
X+034937Y+028187
X+034937Y+029187
X+034937Y+030187
X+034937Y+031187
X+034937Y+032187
X+034937Y+033187
X+034937Y+034187
X+034937Y+035187
X+034937Y+036187
X+034937Y+037187
X+034937Y+038187
X+041937Y+038187
X+041937Y+037187
X+041937Y+036187
X+041937Y+035187
X+041937Y+034187
X+041937Y+033187
X+041937Y+032187
X+041937Y+031187
X+041937Y+030187
X+041937Y+029187
X+041937Y+028187
X+041937Y+027187
X+041937Y+026187
X+041937Y+025187
X+041937Y+024187
X+041937Y+023187
X+041937Y+022187
X+041937Y+021187
X+041937Y+020187
X+041937Y+019187
X+041937Y+018187
X+041937Y+017187
X+041937Y+016187
X+041937Y+015187
X+041937Y+014187
X+041937Y+013187
X+041937Y+012187
X+041937Y+011187
X+041937Y+010187
X+041937Y+009187
X+042937Y+009187
X+042937Y+008187
X+042937Y+007187
X+041937Y+007187
X+041937Y+008187
X+042937Y+010187
X+042937Y+011187
X+042937Y+012187
X+042937Y+013187
X+042937Y+014187
X+042937Y+015187
X+042937Y+016187
X+042937Y+017187
X+042937Y+018187
X+042937Y+019187
X+042937Y+020187
X+042937Y+021187
X+042937Y+022187
X+042937Y+023187
X+042937Y+024187
X+042937Y+025187
X+042937Y+026187
X+042937Y+027187
X+042937Y+028187
X+042937Y+029187
X+042937Y+030187
X+042937Y+031187
X+042937Y+032187
X+042937Y+033187
X+042937Y+034187
X+042937Y+035187
X+042937Y+036187
X+042937Y+037187
X+042937Y+038187
X+053937Y+038187
X+053937Y+037187
X+053937Y+036187
X+053937Y+035187
X+053937Y+034187
X+053937Y+033187
X+053937Y+032187
X+053937Y+031187
X+053937Y+030187
X+053937Y+029187
X+053937Y+028187
X+053937Y+027187
X+053937Y+026187
X+053937Y+025187
X+053937Y+024187
X+053937Y+023187
X+053937Y+022187
X+053937Y+021187
X+053937Y+020187
X+053937Y+019187
X+053937Y+018187
X+053937Y+017187
X+053937Y+016187
X+053937Y+015187
X+053937Y+014187
X+053937Y+013187
X+053937Y+012187
X+053937Y+011187
X+053937Y+010187
X+053937Y+009187
X+054937Y+009187
X+054937Y+008187
X+054937Y+007187
X+053937Y+007187
X+053937Y+008187
X+054937Y+010187
X+054937Y+011187
X+054937Y+012187
X+054937Y+013187
X+054937Y+014187
X+054937Y+015187
X+054937Y+016187
X+054937Y+017187
X+054937Y+018187
X+054937Y+019187
X+054937Y+020187
X+054937Y+021187
X+054937Y+022187
X+054937Y+023187
X+054937Y+024187
X+054937Y+025187
X+054937Y+026187
X+054937Y+027187
X+054937Y+028187
X+054937Y+029187
X+054937Y+030187
X+054937Y+031187
X+054937Y+032187
X+054937Y+033187
X+054937Y+034187
X+054937Y+035187
X+054937Y+036187
X+054937Y+037187
X+054937Y+038187
X+066437Y+038187
X+066437Y+037187
X+066437Y+036187
X+066437Y+035187
X+066437Y+034187
X+066437Y+033187
X+066437Y+032187
X+066437Y+031187
X+066437Y+030187
X+066437Y+029187
X+066437Y+028187
X+066437Y+027187
X+066437Y+026187
X+066437Y+025187
X+066437Y+024187
X+066437Y+023187
X+066437Y+022187
X+066437Y+021187
X+066437Y+020187
X+066437Y+019187
X+066437Y+018187
X+066437Y+017187
X+066437Y+016187
X+066437Y+015187
X+066437Y+014187
X+066437Y+013187
X+066437Y+012187
X+066437Y+011187
X+066437Y+010187
X+066437Y+009187
X+067437Y+009187
X+067437Y+008187
X+067437Y+007187
X+066437Y+007187
X+066437Y+008187
X+067437Y+010187
X+067437Y+011187
X+067437Y+012187
X+067437Y+013187
X+067437Y+014187
X+067437Y+015187
X+067437Y+016187
X+067437Y+017187
X+067437Y+018187
X+067437Y+019187
X+067437Y+020187
X+067437Y+021187
X+067437Y+022187
X+067437Y+023187
X+067437Y+024187
X+067437Y+025187
X+067437Y+026187
X+067437Y+027187
X+067437Y+028187
X+067437Y+029187
X+067437Y+030187
X+067437Y+031187
X+067437Y+032187
X+067437Y+033187
X+067437Y+034187
X+067437Y+035187
X+067437Y+036187
X+067437Y+037187
X+067437Y+038187
X+078937Y+038187
X+078937Y+037187
X+078937Y+036187
X+078937Y+035187
X+078937Y+034187
X+078937Y+033187
X+078937Y+032187
X+078937Y+031187
X+078937Y+030187
X+078937Y+029187
X+078937Y+028187
X+078937Y+027187
X+078937Y+026187
X+078937Y+025187
X+078937Y+024187
X+078937Y+023187
X+078937Y+022187
X+078937Y+021187
X+078937Y+020187
X+078937Y+019187
X+078937Y+018187
X+078937Y+017187
X+078937Y+016187
X+078937Y+015187
X+078937Y+014187
X+078937Y+013187
X+078937Y+012187
X+078937Y+011187
X+078937Y+010187
X+078937Y+009187
X+079937Y+009187
X+079937Y+008187
X+079937Y+007187
X+078937Y+007187
X+078937Y+008187
X+079937Y+010187
X+079937Y+011187
X+079937Y+012187
X+079937Y+013187
X+079937Y+014187
X+079937Y+015187
X+079937Y+016187
X+079937Y+017187
X+079937Y+018187
X+079937Y+019187
X+079937Y+020187
X+079937Y+021187
X+079937Y+022187
X+079937Y+023187
X+079937Y+024187
X+079937Y+025187
X+079937Y+026187
X+079937Y+027187
X+079937Y+028187
X+079937Y+029187
X+079937Y+030187
X+079937Y+031187
X+079937Y+032187
X+079937Y+033187
X+079937Y+034187
X+079937Y+035187
X+079937Y+036187
X+079937Y+037187
X+079937Y+038187
X+091437Y+038187
X+091437Y+037187
X+091437Y+036187
X+091437Y+035187
X+091437Y+034187
X+091437Y+033187
X+091437Y+032187
X+091437Y+031187
X+091437Y+030187
X+091437Y+029187
X+091437Y+028187
X+091437Y+027187
X+091437Y+026187
X+091437Y+025187
X+091437Y+024187
X+091437Y+023187
X+091437Y+022187
X+091437Y+021187
X+091437Y+020187
X+091437Y+019187
X+091437Y+018187
X+091437Y+017187
X+091437Y+016187
X+091437Y+015187
X+091437Y+014187
X+091437Y+013187
X+091437Y+012187
X+091437Y+011187
X+091437Y+010187
X+091437Y+009187
X+092437Y+009187
X+092437Y+008187
X+092437Y+007187
X+091437Y+007187
X+091437Y+008187
X+092437Y+010187
X+092437Y+011187
X+092437Y+012187
X+092437Y+013187
X+092437Y+014187
X+092437Y+015187
X+092437Y+016187
X+092437Y+017187
X+092437Y+018187
X+092437Y+019187
X+092437Y+020187
X+092437Y+021187
X+092437Y+022187
X+092437Y+023187
X+092437Y+024187
X+092437Y+025187
X+092437Y+026187
X+092437Y+027187
X+092437Y+028187
X+092437Y+029187
X+092437Y+030187
X+092437Y+031187
X+092437Y+032187
X+092437Y+033187
X+092437Y+034187
X+092437Y+035187
X+092437Y+036187
X+092437Y+037187
X+092437Y+038187
X+020866Y+058575G85X+019685Y+058575
X+018346Y+059264G85X+018346Y+060248
X+020768Y+060937G85X+019783Y+060937
T11
X+049055Y+059695
X+045996Y+057687
X+042937Y+059695
X+041711Y+050327
X+040937Y+047437
X+029437Y+046937
X+029437Y+047937
X+029437Y+048937
X+029687Y+057687
X+028687Y+057687
X+027687Y+057687
X+028187Y+059262
X+029187Y+059262
X+030187Y+059262
X+030687Y+057687
T12
X+026187Y+056187
X+033604Y+056187
T13
X+022687Y+047937
X+024687Y+047937
X+026687Y+047937
X+020687Y+047937
T14
X+034187Y+061437
X+024187Y+061437
T15
X+034819Y+004974
X+042819Y+004974
X+054819Y+004974
X+067319Y+004974
X+079819Y+004974
X+092319Y+004974
X+092319Y+040407
X+079819Y+040407
X+067319Y+040407
X+054819Y+040407
X+042819Y+040407
X+034819Y+040407
T16
X+008687Y+027187
X+008687Y+017687
X+008687Y+014937
X+008687Y+005437
T17
X+084937Y+005437
X+060937Y+005437
X+011937Y+005437
X+005437Y+062437
X+044937Y+062437
X+092437Y+062437
T00
M30
